<mxfile host="app.diagrams.net" modified="2023-05-30T19:30:29.582Z" agent="Mozilla/5.0 (Windows NT 10.0; Win64; x64) AppleWebKit/537.36 (KHTML, like Gecko) Chrome/112.0.0.0 Safari/537.36 OPR/98.0.0.0" etag="N_hS8JOhGNwcpRLqKXwC" version="21.3.6" type="github">
  <diagram id="wFE0QG_FPsp0jaGvCLVb" name="Page-1">
    <mxGraphModel dx="1393" dy="766" grid="1" gridSize="10" guides="1" tooltips="1" connect="1" arrows="1" fold="1" page="1" pageScale="1" pageWidth="850" pageHeight="1100" math="0" shadow="0">
      <root>
        <mxCell id="0" />
        <mxCell id="1" parent="0" />
        <mxCell id="bIWq4vjU1cbC7Kvbh_jD-1" value="" style="shape=image;verticalLabelPosition=bottom;labelBackgroundColor=default;verticalAlign=top;aspect=fixed;imageAspect=0;image=data:image/png,iVBORw0KGgoAAAANSUhEUgAAD6AAAAjLCAYAAABJ6yIVAAAACXBIWXMAABcRAAAXEQHKJvM/AAAgAElEQVR4nOzdz68V93038HGUrQ1ZQwVWu4HoKfazCERNBUjBURxFYOMqbrIAHCVtNnCtpu2iqTFOumjqiIs3bVOZH4skjmJskFVHMZVs1FSGLJ7AIxU2j2SswjrG/AF+9B4zzuFw7r0zc37NOef1ko6ML+eemfl+5/udOWje388Df7hp80cFAAAAAAAAAAAAAAAAAAAAC+/TaYCfvPKzRW8HAAAAAAAAAAAAAAAAAACAhfaNp//84wD69h07Fr0tAAAAAAAAAAAAAAAAAAAAFt6nFr0BAAAAAAAAAAAAAAAAAAAA+JgAOgAAAAAAAAAAAAAAAAAAACUBdAAAAAAAAAAAAAAAAAAAAEoC6AAAAAAAAAAAAAAAAAAAAJQE0AEAAAAAAAAAAAAAAAAAACgJoAMAAAAAAAAAAAAAAAAAAFASQAcAAAAAAAAAAAAAAAAAAKAkgA4AAAAAAAAAAAAAAAAAAEBJAB0AAAAAAAAAAAAAAAAAAICSADoAAAAAAAAAAAAAAAAAAAAlAXQAAAAAAAAAAAAAAAAAAABKAugAAAAAAAAAAAAAAAAAAACUBNABAAAAAAAAAAAAAAAAAAAoCaADAAAAAAAAAAAAAAAAAABQEkAHAAAAAAAAAAAAAAAAAACg9GnNAAAAAAAAAAAAAAAAAABM040bN8rXII888kixfv16/QMwIQLoAAAAAAAAAAAAAAAAAMDEfPDBB8WVK1eKd955p3zlz7dv31518+vWrSt27dpVvvbt21ds3rxZhwGMyQN/uGnzR//vxnvaFwAAAAAAAAAAAAAAAAAYuSpkXoXO33///aE3sW3btmJpaakMo89bdfTnn3++9e+mWnzC+flvU6lAf/r06Xt+qwr9DyOf2V/d/uDBg7UXEcg5c+7cufL8uXjx4n1/v3PnzvIcaLs4waD9W60PBrVTtpljGlbTfRn0/raaHkP6I9tfqV8yRvOZ1TnU9pxM3+eVP/fPHZs2bbpnG8Oeq3zsjzY/LIAOAAAAAAAAAAAAAAAAAIxGFTSvXoOCqaOUyugJog8T2u6aBx54YOg9SrskjJ12aRL03r179z0/O3r06NBtm1Bw/3nw9ttvrxkWzv6kb69evdpoe9XiBHXD1IP276OPPlp1v/rbqah5TKPel0HvbytB/hzbWjKu075Nt5uweNUvay0a8cEHH5TvPXPmTKNt5LzP5+d3my5EwO8lgP4p7QEAAAAAAAAAAAAAAAAANJWQaCoTJ6CcIGxCpY8++mhx6NCh4sSJE2MPn8ft27eLY8eOlWHT7Au/b5eEdx9++OEyjDtrUlk7Ie+m4fPI7+QczDlRJ1A9Kgn8Z0zMs/RLxnibsZ3q5c8++2xZCX21sZqAe/quafi8uHveZ+7JNuZpUYppEEAHAAAAAAAAAAAAAAAAANaUMG9CnQnaJiD6mc98pnjiiSfKAHgCqQl/TkvCrdmXRQgBN1UFcmelXRJyToB8WDknJhlCzvlft+r6LEpofFT9krE6SM7RLGYx7FxSLUwxyQUI5s2nF70BAAAAAAAAAAAAAAAAAID7JQy6vLxcBk/bVKKehvPnz5cB1oSYE7rmY+m/VEJPu3TZjRs3VqzYvm7duk8WP6jk/amY3ZXzM+df2njeguiZC1Y6pvRLxlzveGvbL+nflcLnO3fuLLfTu0/ZRptq7KxNAB0AAAAAAAAAAAAAAAAAuEdCtKkenWrFsyah1wRVE5zvDazOso8++mjNvU/oNxWf03eDQrlnzpwpQ8RdbpMseDAogHz8+PEVg+nF3TBy+nulY5+k7GfauDcoP0lvv/32yPs47TqoX44ePbpqlfkm/bJSmHzv3r3lebFae2YbeeUcZzQ+pR0BAAAAAAAAAAAAAAAAgOJu0DRBz0OHDs1k+LySsOzu3bs7X/F7lNJvCZgnhH7q1KmBn9z19kiIuF+OZbXweaxfv/6TY08AO9WypyXnXip5z5NB/ZJFAVYLn/f3y3vvvbdqvwzaRt6fn68V5k9759z+3e9+V4biGZ4AOgAAAAAAAAAAAAAAAAAsuAREH3nkkZkPnvfL8SxSCL2S0O+gIG6qTHdVqmX3n3ubNm0qj6WJVP/O+ZyAdALQ05Aq/GuFs2dJf2XydevWrbkoQL+EyNMvr7/+evn7/fJ3/VL5vIn0d9r9t7/9bbFt27a5af9pEEAHAAAAAAAAAAAAAAAAgAWV0GcCu6kWntDsPEpQtsvB63EZFBDuch8P6qOcm23l+Ce1+MDevXvv+9mxY8cGhqrnQRaraCvVyuuOx7bbye9lG8Ps56ITQAcAAAAAAAAAAAAAAACABXPjxo1Pguf91Y3nze3bt8tjXbQQ+rSqf3fJpNogQedBFedTvT2V3blXqqFPgjHQngA6AAAAAAAAAAAAAAAAACyIBM8Tin344YfnPnjeKyF0YeCi2LZtWwf2YrBBYeFZqiD+/PPPFzt37rznZ++///7ASvSzLos5TGIsnTt3bu7ablYIoAMAAAAAAAAAAAAAAADAnEtYtAqenzlzZiG7++rVq2Ul9EUJoQ8K76ZSd1cN2rcEuJeXlzu7z/1Onz5drFu37p6fZrzNepB606ZN9/x/FnQYdbB+UFX0hPoXfdGIaRFABwAAAAAAAAAAAAAAAIA5lfBmQpwJdy5q8LxXQujzWJG6XyrdDzrOrh/73r177/vZs88+W+73LASRM84SQu+XxR/SJ7MqCzf0y3yyb9++kR1XPqtftWjELFXCnxcC6AAAAAAAAAAAAAAAAAAwZ3qD58eOHSsrFvOxBGcTCJ5HCeomrJ1q4qke3uvIkSOdroBerBKQP3HiRPGZz3ym7LdUE+9yGD1B6gMHDtzzs4y/WT7nMpcMcv78+eLhhx8ujznB+2H6JZ/RX2m9uBtC3717d3nuphr+LAf5Z4kAOgAAAAAAAAAAAAAAAADMkQRBE9YUPF9ZQuiDKlV31QMPPFDrlaBuwtr9/Z5AdMK7XZdq1wnKryT99sQTT5Rh9Ly3q4Hk7Fd/mPrixYsrBrlHKedA3fMlr0HVzftlIYvjx4+v+PcJoh86dKjsl8w9Oc4rV640PqosLrCSBNFTDT+B9+xPFitY7f0MRwAdAAAAAAAAAAAAAAAAAOZAAtUJZiYI2l/9mvulnWYphN7W66+/PlPHmfB2fwXxQRLorgLJVXXsrlRGX79+/cA2z6IQbYLZXZDA99GjR9fckwTFc5yPPvpoOR8ljF63X9KPOV/XrVu36vsyv2WhhSxGkLZOdXmV0UdLAB3orJs3bxanTp4sXlpeLr7+tafLV/589tVXiw8//FDHAQAAAAAAAAAAAAAAQFEU77zzThncFDxvLqHaWQ0E15Vw7iQqb49SwtsJIvdXEV9JVR07geeuVHpPZfFBge30R1eC8k3lPHr77bdr90vmo4TRqyB6Hfv27SvH5M6dO2u9P9X+Uxk/CxHMctt2jQA60DkJl//NX3232PWFPy3+4YXvFy8tnyh+c/ly+cqf//a7f13s/JMvlGF0AAAAAAAAAAAAAAAAWFQJnifkunv37jKAS3MJr6YN57l6co4xIeAc5yyFcxNETr+cOnWq2LZtW63fybEmiJ7f7cKxJnTdv+8Zq7O2IECvarykX5qExHMOZqGMOv2SwHrmt4TdUw1/rYrolQTR87vzvqjEJHx6/g8RmCWpev6Nrz1d3Lp1a9W9vnPnThlGv/Crt4o3fvmmPgYAYEXXr10rFzmqY8PGjcXGjRs1JgAAAAAAAAAAANBpCX+m0u/Fixd11AgkHJvAcgKv69ev7+Q+Joi7lpwXeZ07d27gggQ5X3Le5O9nSfY5r+rY0k/nz59f9Qjy91051uxDgtc5zyonTpwog9w570bt+PHj5fbqanvO9/ZL+qTqm97j7JfzMsddNyCe9+ZVtWO1jVRWX0m1qETe16QduJcAOtAp3/nWt9cMn/e6fv168YMXXii+99xzOhIA6Iw/2vxw7V35ySs/K7bv2KHzxuj7x14ofnP5cq0NHF46UhxeWprRIwUAAAAAAAAAAADmXYKeqZycKr+MVtNg7KRVIdw6co6stEhBgtlV5fxpahN6TmXrpaWl8lX0BJLzGhR6zrGePn26bIdpyn4vLy8Xhw4dumcvqvD2qBc9SOh6kv2b46vC6FGF0dP2g/qlqgDftAp8wvpVYD/jNNtJuw4Ko2e7OU/yHtr5lHYDuuLsq6+WgfKmTp88VVZOBwAAAAAAAAAAAAAAgHn0wQcflGHKhx9+WPh8jBKMnXZYeVQSCk74dufOnfd9YoLBdeXcG4dRVKZOGDnHkhD30aNHB76nach5XHJe7d27955PT0h6Xs63Xgm/JxiecyfV2NetW3ffe/L3w8j5kzkxff/2228XmzZtuu/TsviCAHp7AuhAZ1z41Vutd+W1V1/VkQAAAAAAAAAAAAAAAMydhDgTJj5x4oTOnYAE/LsSWh6FQUHfJqHcrlaE75UK4umzU6dO3fd3qY7dlWNIWL4/KJ0q7cOGsbtspSrkCd+nSvooJPCePt62bdt9nzaqbSwiAXSgMy5futR6Vy692/53AQAAAAAAAAAAAAAAoKtSITlhTSbn2LFjjaqEd1kqRfdXoE4oe5AsdNBvFBXQU6V6EjJWDhw4cN+WuhJAT1B+0HmV8PwsBP3byjl45MiR+357lMdcLUIwzm0sGgF0oDPu3LmjMwAAAAAAAAAAAAAAAOCuVO9NhWQm79ChQ3MTXk0AuI5BAfSrV68OFULP7/YH3nfu3Nn689aSatj9JhWAr7t/R48evednWWAi4fl5tm/fvrEf3SS2sUgE0AEAAAAAAAAAAAAAAACgYxLcnfdQatclLDwPIfSLFy/Wfu+gcHgWQmhr0O8OCrqPSiphd10qdW/btu2evUzQf2lpqfP7zuL4tL4erz/a/PDU92HLli3Fgw89VGz97NZiw8aNxdatW4vtO3ZMfb8AAAAAAAAAAAAAAAAAGCzh81RGZnrS/qmqnBD6LASbB3nnnXfu+2l/+LlXqqX3B9aXl5dbL4aQ3+03qEp5JdXKhwmoDzrecQbe2zp9+nTZDr1j/MSJE8W6des6t6/FCPqlThX6qtJ+27HWpUr380AF9AVw/fr14jeXLxenT54q/uGF7xffePrPy2D8X37r28WpkyeLmzdvLnoT0RGf27699Y5s3LhRNwIAAAAAAAAAAAAAADAXUjX6/PnzOrMD3n///TIoXIVjZ0n2eVBV7dUC4IOC5qnOnardTeV38rv9EupfSRXMbhMmzvFOuuJ6Wwn6D2rTri46kX7JPmcxhra/3y+f1yufnb5qW3F/0Da62PezQgB9gf3HhQtlIH3XF/60DKNfvnRp0ZuEKdvzpcda78AwvwsAAAAAAAAAAAAAAABdkRBt22rTjEdC1IOC3F2WSuAJcg8KgK92LAkF79y5876fHzt2rFEbJFyd3+l34MCBNStcpwL7ww8/XI6DJkH07F8WDOiViuKrBe6nKfu7d+/eTu7bIDmXHn300cb9kvf3V9UvVlgIIQH8J554ovy7QdXsV5Lw+aDzbbXFDljdp7UPxd0wel4bNmwofvijF4vtO3ZoFyZu/1NPFS8dXy7u3LnTaNNbtmwp9jwmgA4AAAAAAAAAAAAAAMDsS1izq1WQF9mZM2fK4PTy8vJUWmGtMG4CwdUr7+0PYlcSAF+rKnSOMUHjfidOnCirUyc4nYDwoArW2XZ+f9D2EwZv0n5p87y2bdtWjotsrz+0XFU9T+B90Da7vnBAgtPpj1GO+bZVynN+9/fpIHX7pToXBoXP11qIIL+ze/fuYtOmTWWIPJ+fV//vZBtpw+xPv+p3aUcAnXvcunWr+MbTf158bvv2Moi+ceNGDcTEPPTQQ8W//NuPy3OwrgcffLA8VwEAAAAAAAAAAAAAAGDWJUh7/vx5/dhRCWAnbDuNCvUJ4w4rgeE6AfAc4/Hjx4tnn332vr9LyHvQz+tIUHit6ueDpPJ2/zZTpX1QsLlXAshdD6CnPTLuR9G/lbb9kzZtUnW8bb9kIYIsGFBHzreMu7wq6dfi7t+tZlqLRcyLTy16AzDYby5fLr765ceLC2+9pYWYqFTff+PNfy+r8a8llc9/+vNXii1bt+okAAAAAAAAAAAAAAAAZloqBk8j2Ewzhw4dahTS7YqEz7PfdQPgCW4fPXp0JHufwPGpU6dGWo26Tsg5we42gfdJS2XvI0eOdH4/66jTLzkP16rCv5oEz9cKn6c9VT8fjgA6K7pz507xnW//RfGSVR6YsATKL/7Xr4t/fPGfiif37y8r8ve+8rN//vG/Fm/88k3hcwAAAAAAAAAAAAAAAOZCwpK3b9/WmTMgfXXlypWZ2NcEfhMkz/42DWOnSvXrr7/+ScXpNqqq2nUXV0jw/cCBA623V/SE7VPJfVakWnf2u6uqBQlyPrWV82i1fkkQPwsVDHO+VYsdqH4+PAF01vTS8onib/7quxqKidv/1FPFD3/0YlnlvPeVn+157DEdAgAAAAAAAAAAAAAAwFxIWHKtysF0RxYKSAg9Veu7KKHvVIBOeDz7mCB5WznOGzdulKHeJgHpvXv3lttvGgRPSP706dPF7373u+L48eONtpngcvYzYftZCp9XctxdlX7JeVSdC+nfutIv1SIIa/VLFirINnLuZCGCuoH3vC/vzzbqLnbA6h74w02bP/p/N97TTGPyR5sfnptjSTXqBIIBAIDVNfke8JNXflZs37FDi47R17/2dPGby5drbeDw0pHi8NLSjB4pAAAAAAAAAAAAMIsStkwoU/Xz2VNV2m5aWXwt+cwmNm/eXL4mIedrQr5VBfiqsnq1/VSxzvk8yjZJiL7aZv5c/X+2Vdw9/vy5bRtUn9ur+uzV9qfXqPqg6b4Men9b6bOmwf2cq737UC04UJ0T+fOwiwFUfZ9zr1jhnFutjWgumQgB9DFrEjzZsGFDsWHjxqF36Pq1a8WdO3fGcmBvvPnvxZatW8fy2QAAMC8E0LtFAB0AAAAAAAAAAADosgQnVT+fXakEfe7cuUVvBmCOJBPxaR3aHfv/7KmRBx0uX7pU3Lx5swylX/jVW8WtW7eG+ry//Na3i4v/9euR7R8AAAAAAAAAAAAAAADAolpeXhY+n3Hnz58vDh48WJw+fXrRmwKYI5/SmfMtlRT3P/VU8b3nniuD46lg/uT+/a2POQH2l5aXF71ZAQAAAAAAAAAAAAAAAIZy48aN4vnnn9eIc+DMmTMC6MBcEUBfMFu2bi1++KMXi3d+/Z/F57Zvb3Xwp14+WXz44YeL3pQAAAAAAAAAAAAAAAAAraVq9u3btzXgnDh06FBx7ty5RW8GYE4IoC+ojRs3Fj/9+SvF4aUjjRvgzp07xYW33lr0JgQAAAAAAAAAAAAAAABoZXl5ubh48aLGmzNZVODKlSuL3gzAHBBAX3CHl5aKv3vu7xs3wumXTy560wEAAAAAAAAAAAAAAAA0duPGjeL555/XcHMoFe137dpVfPDBB4veFMCME0CnOPTMM8UX9+xp1BDXr18vbt68qfEAAAAAAAAAAAAAAAAAGkiV7ASVmU9C6MA8EECn9MMfvVg8+OCDjRrj8qVLGg8AAAAAAAAAAAAAAACgpuXl5eLixYuaa85dvXq17GuAWSWATumhhx4q9v/ZU40a45YK6AAAAAAAAAAAAAAAAAC13Lhxo3j++ec11oIQQAdm2af1HpX9Tz1VnD55qnZ7XHr3UnF4SfN1zYcfflhcv3atrFCfP1/772sr7uHGjRuLjX+wsdiydWv55/yX8ertn0j/5GfF3YUgtn724z5YhD5JG9y8efOTxSx62yJ2fH5H+d8H0y5bt5ZtkTaadYsyRs1Fs6/qw2vXrhV3PvywuPk/N8sxW8l8VY3J7Tt2FBvSjxs3Tvy4s0/Zz7yKu/cnlUWbV6s+W21u7Uq/TUvaJ+1RXYf7VdecRWuX1Szq9ZrRqOakao7uv5b0ztPzMv767/d7r0uV6t4nx1qNG1Zuw0X+zrRojJ/BfLcCAAAAAAAAAJgvBw8eLG7fvq1XF0T6+ty5c8W+ffsWvSmAGSSAziem9VBqHqBdKQTULw8YJyg/DV3ezzyIfPbVV4vL714qrl+/Xvv3fnP58j3//+CDD5ZhtD1feqz877SCH03aOvuZ16ikHdeq7t+0fxOyufDWW8Vrv3h1zf75jwsX7vvZF/fsKftkz2OPzXSgK21Q9m3N87T//IwNGzZ8co6mPWbFvI3RlSzKcXbFuOar0ydP1urDe/vtxMfbm9AYzXxy4Vcfzym3bt1a9b3982p1fm3//I6ybWZ5Xq2C1HXbolih3+Z5zJXt89ZbZVBr0HVlNb3nSs7nRZmLFvl6zfByL3Dp7rxUd8wNuv+dtfFX3QPluJvPxR/LPX/ba1Ode4JihN9TF/k7U922rhxe6t6qfS81WE13Ev+2sWjjpy7frQAAAAAAAAAA5lOqYV+8eFHvLphZCqB/8MEHxZUrV+752ebNm8vXqGU72V6vRx55pFi/fv1QW7px40bxzjvvfPLfXvnsbCOvXbt2Db2tQe21llEcY79BbdlW1UYrSbvm1Wtc50ivHGP6M//t337VpunTvBidB/5w0+aP/t+N9zTpmPzR5odrf/DhpSNTfzj56197unZQYMuWLcUbv3xz6G3m4eeXlk/Ueu/ntm8vfvrzV4beZhtd3M88oH/q5ZONA1V15SHu/X/21MSDQ03aetTjps4YSKjq4n/9es3PygPjJ44vDwxItPXk/v1ln4wydD9OVZj17C9eLe7cuTPSLeVB+pybh59d6uxD9PM6RvstynF2TZ35qu61OmHTzFej7MOM0UPffKY4+MwzIwmCJWydEM7pl0/WCifVNWvzanG3vzKvvnb27Fg+P/cxaZNpLfozrHFde5q2S5PvAT955WdTPQcX4Xrd5HtOF76XzZJqfq4THG4r17OD33ymU/NSjrsaN6O8LhV3731yDa07L9Sdb0b1PXWRvzP94IUXitMnT9V+/z+++E+dOm/T3l99/Cu13z+u/V/k8bMW360AAAAAAAAAAOZXQpOPPvqoHl5A69atG1k4eNwS8N29e/c9W8n+J/A7ytB0xkOCwqkQ3+vtt99uHSA+ffp0ucjD1atXa//O3r17y8UBDh482Gqbg9qrrm3btn0ShM8+DNO++YxRLW6xc+fO+4L7vZ5//vni2LFj9/zs6NGj5c/HIf2az37//fdrf3r6NX06Kws/dFWesfzUojcC7Y0rXMDa8tB4Hvr/zrf/YmwPJRd3K8tlGzv/5AtlqISPrfWAfB6mTzAhD/aPMkgRCRt+4+k/L/7yW98uw2JdlX37m7/6brHrC39aBjRGHWaLfGbaI9vIeOhSeyzKGDUXdd9a1+qMm/Rh5pVR92HGaBYTSb+dOnlyqM9Kv+dz/uGF7488pFTNq12bRwZJO3z1y4+X+zuu8Hlxt3Lm3373r8s2z6Iwua7NgnFfe3rbJeGwebDo12uGk7khc0Q1P4/z+2E+uxp/074X6D3uXOdGfV0q7t77VNem3G/Nonn9zpSFdZpIVe8uSbC5rmoBkVEyflbmuxUAAAAAAAAAwPxrG3Bl9iVk3bRKdpdk/0d9/ubz+sPnbaXCfKpvHzp0qFH4PM6fP1/+Xn5/tdD1OGRfz5w588n20yb9lb0XWRZtSIA87dMkfF716xNPPFEG/Cfdr/NGAJ3WUtGMycvD2nlIf5wPJPfLQ+EJfCT0lqqrrKysKPflxxtVxWsjD41nO8OGOketCpIkZDbOcGS/jIdsM9uedlByUcaouWj2Zf5IW467DxM+TTCxTfA04zm/l34fRzC2VzWPdG1eLe5WPK/aYZILAGXMJRyW86TLAaWcJ1WIehLXnrRLgluzHKZ2vWZYmSurAOm45+de074XyOIT2fakjjtjJvdb8zZmZvk708aNG8tK2E32oUvXiiYLqCR8/tBDD41028bPYL5bAQAAAAAAAADMv1TvbRqMZb4kJD3LEuhNdfFRWFpaGsl4qALKCRo3DSj3y++nknn2bRoSxk8Y/eGHHy73YVYq5o9TqrrnvBtGzrP06ywvADFtAui0tmHjRo03QXlgOhXc8rD2tCT0lkpieYCb+5WVaR//yliquA1ShToTuuuCPLQ+iSDJarLt7MM0Kt0tyhg1F82HzBuZPyYZGixDQA3GZ96XcOMkgziRdsk53oWgUhUSHkeF+iaqgFIXA9cJs+U8mWSIulKd07NWPXTRr9cMpwoOT/oa0q+6F3hpRP+QuZZqoYssPjGpe/1e1ZiZh5DoPHxn2v9nTzV6f5PQ9zil7ZuM20PfbFbtfSXGz8p8twIAAAAAAAAAWAwJPh47dkxvL7hZD6AXdxdSGDbIm2rUJ04M/8xUAtp1A8o7d+785LWW7FuqZk8zAJ59yLEtcmh6rUU7evt027Zta36eQH97Aujco0m4aZSVsFjbN772dFk9rQuqB7hnternOORh/oTzpiGhu/THNMOSCf/kofVpBAr6ZR8Sapl0IHBRxqi5aLZVIZdphHWLuyGwhJjXCp1W4bRphRtzjudcn+a8mjbKPkwzJNyvClx3JUiXoFTCbNMMwWbbuf53ZTGYtbheM4z0VTmHX7/emXZMaPPrY56vc5+R+Xha185KxkzG7yireU/avHxn2v/UU8WDDz5Yf9u/6MY8d+FX9a/fW7ZsKbZs3Tr0No2f1fluBQAAAAAAAACwGA4ePKinKcO0sx6CTZXuYc7nqmL5sKrw+UoB5U2bNhXHjx8v3nvvveKjjz4qQ+/VK///29/+tjh69Gj5vkHyufn8tg4cOFC8/fbbK76y7bxnpe0XPfswTAg9bbDafqz0GlWl+7bSv4MW7Uh7nTp16r4+TRvlZ9n3I0eOrNquNCeAzieaViDc+tnhH0amnoSauhT0KO5WyVK58mPTDFJU0h/TCL9V1eymWbFtJemTSYXaFr2cW10AACAASURBVGWMmotm3w+OvTD1kMtaIfQuzKlFVQ3ya09PZdsJeHct5FlJ/yX0Pamqw4NUCyl0KZyfYF1XKucP4nrNsLLgQ/pqmgs+rKRaHGMc9wJVxfcuzcejruY9KfP2nalJFfRsd9r3qgkVN7kHPDiC6ufGz+p8twIAAAAAAAAAWAxrVfFlsSQsO+tyPue8biPh9YTYh5UQ+6BxtW7dujJ0fePGjWJpaanYvHnzwC2lwnmOIe9LGHyQfH7bsH22m/D4Sq9s+/Tp0+X2E4ZPGH2QtNUwIfQc52r7sdIrvzdNaZt+CZWnHVbrk+x7wvNp19dff71WZXTWJoDOJ5pWs9zz2GMabwLSL9OuFraSKkS4yKGh9E8XgpLF3Yq9CQdNSsJsXahmt5pJhNoWZYyai2ZfQi5d6cP02aCwbsIuXZlTiykt7pHzeNpVvetIkHlaC590qVpor+xTzuuucb1mWBnrXVrwYZBUN15tcZM28ln5zC7OxxnPsxRCn8fvTAefaRbQnvYc1+Tfe1Ldfdh/7zF+Vue7FQAAAAAAAADAYkhYclAVXxbXMNWsuyTnddMwfULF58+fH/ooEjC+ePHifT9P2Djtm+B5EwmDJwSe8Hq/M2fOFOfOnRtryyfsnbbJPgwKTA9bdX4WDTq30k/r16+vfTRZpCDnQxYkGNS31CeAzifO/qL+w6UbNmwotmxVAX3cqmqVXZaHkxMmSEW1RZIH6nPMXeufhIMuX7o0kW0lZNfF6rz9xhlqW5Qxai6afRkDXQu5JCzYe17lPPv6lCqOrybt1nSRnrbGUR02IbLPbd9evnL/NkrTCHB9o6OV4SupxNy1+dL1mmF0afGStVShyVGE0HM/Merw7JYtWz6Zj/PK/DyM9MtLy8udvveZ5+9MGzduLPuxrib/3jIOp18+WftTEz5/6KGHWu+F8bM6360AAAAAAAAAABbHooVGWdusVkAfFODN+f3BBx/U+v2qInmdz13rcwZVX09wO227UsXztSQEnt8ftD/Z77rHOYxqHwaF0IepOj+LBrV32/k0/TfMuUFRfFobEKdOniyDYHXt/7OntNsEnD55svVD21/cs6fY/vkdxdatW8vFAvofIM+DxLdu3iyuXbtWXH73UvkAfttt/eOL/1Q+gL9I8tD494+90KjN8qD8js/vKLbv2FH+f/6bz6lCMumDS+9eKsNrw8jD7G/88s2hQgNryTaG2c8EBnL8e770WHnuVG3SrwqtpG0u/OqtRvNUrx8ce+GTsTBKizJGzUWzLW2cMdBEVflyy2e3ln3XL/11/b+vlf3VdlwWd6uQJtydbSUk27TvE0bKPLJh48aBfZ/9u3Z3P4cJQWXOu/hfvx7rvDqK6rBVv/WOuUGqa0+2mXE3TDg5Aa6H1j1UfO+554ba9zrSD8MGqRPCzzUnbbTS9af32tOmfdImGTtd4HrNMPIdcRTh8yb3Arm2ZG5qO2dXIfTcC7e9J8gc+Z0W16RevfNxxs1q+5Lxc+nufJPrYhMvLZ9ovY+TMO/fmfLvInX3I21Q3fNMWtquybx86JvNqrv3Mn7W5rsVAAAAAAAAAMBiSFg0oVHoNasV0KsQb2/l8ffff78MBdepEJ5q1Knk3evIkSNlewyqZr6SjKv+z0loPPvQpDr2IFUA/NFHH73nb3OcqVDetLJ6GzmG7MOuXbvumz9S+T37MOxxLqL0Le0JoFM+oPrS8eXaDZGHgQ8+0/6BZOprUyXtyf37i8PPLq35oPDGu2G9PNB96G5/5oH4hIaaBE0OPnOo2P/U4i1IcOrlk7XCBhkveYD/yaeeGtgneWC8N1xxeOnjMfnaq6+W22jzsHjCBXmo/fCYbm6GCSMl+Jfzs25VvS13H6zP+xNuTMAg7dJ0+2nHKmQySosyRs1Fsy3nft25JKGvzFlrhaN6Q6gJtpw4vtw6CJbAaea9ur+/1ry60n7mvKo7d/dL+6VK5rhC1pnbhqmEWbffKtW1p2qftnNrJZVkM1ePcwwOG4TNnJSg4EoB6l69157i7r1yrquZC+uOpSb31uPies0wMrf/wwvfb/0JTc6h3nuByrBzdgKwP/n5K63CxbkutV3sounYKXrGT+6DEt6t5pu6geEuh9Dn/TtTrns/aBCwT79OI4B+qkH189xTDLMIiPGzNt+tAAAAAAAAAADmX0K1x44d09PcJ+HpVPGexWrMCWEnyNsbAD9//nwZ/k7AfCWDFmPYtGlT+fPVfq9fqmIPCrvnc0bVnjm+BONPnLj32bIq/D0JCZjnOPvbOn+eVBC+izKvCpJPx6cW8aD5vTbVqfJg+DgrgPKxplVl89D+P//4X4sf/ujF1lWq8qB3fv+dX/9n+YDzWvKeSVQ87aI61dXy0HYq5ibU0KRP8t78Tn43Fc7aSMgg43vUEihrE0bK+Xl46Uh5THmQve0cknBBdY4mHNFEghAJkI7KooxRc9HsqxP8ynj6ySs/K37681caB6MScMnv5ffT/03l/Ko7r1TzSNN5tbh7XmU//+65v2+1nwlZj2NeLRouEtArQa22/dard25te92pFhIYh1x72ga6c27nuHJ8dcLng+Rcyxzz8bl3pNb5M0zl11FwvWYYmev+8lvfbvUJozqHqjk7c1zmuqYyH7WZsxPUbLtwwyiOO79XfQ+oO9902SJ8Z8riJnWlPcZ1L7GanNfjOJ5+xs/afLcCAAAAAAAAAFgMqQoNK0kAfRYl5J0AdL+c7ysdU6p5D1qMoU3F8vxOf/XzBNlHHchOoD1V1XulCvokq9enrQcd16D2n0eDzo30C9MhgL7A8lD+N772dKPqVFu2bBlbVWXulQeTm8gDxaOqppYHm9cKDeVc+N5RDyUPUj0knoe2h1msIb/7L//241oPifdL8O3sq80rq62lTYXenCsJEI1y7sg5WgVJm0iFu1EFJBdljJqL5l/GUcZT23BuJb+fwE/6ZNQSPnzjzX8v55FhF8FJNcgcb7sQev0KonX94IV2lUIT2EuV6GH7rVfGXK47uYY1bZ+qcvU4fL9Bddle1bndNrDVrwq2pd2bhqonzfWaYbRdFGMc51DmuIy5JvfD2Y/8TtOxn2Bwm7HTe40apWq+Gcd1tQvm5TvTwbtVputqEgYfhRxf3fGcPmlb9dr4qcd3KwAAAAAAAACA+Teo2jP0Sih7VqVi+YEDB+7Z+4TCBy26kIrlg35+9OjRVpWsB7XbOBZ7SPh5UGX2QdXXx2lQAD1zy6wuYNDEoPZPtf30d84rJksAfUHlIeSvfvnxRoGnPIych1WZjEvv1n8wOQ/bj+qh5F5VaCjVw3qVFVd//opK+ANknAxbibZfxl2bQMVrvxhtAP3UyZONQ5J5gD3nSiqhjkOCpP/44j81+uS2VXT7LcoYNRfNryr4dahhcGo16Yv0SZtqtSupgoSjnEfyWW1C6GdHPK+mSnUqqzeVeW/YwN5qqsrDTfsx1fZPjTikn3vWOlX8e6VfE2Yb5bnda6U5qStcrxlGwrF1qlb3S5hxXOdQ5rrcD9dZyKA6l9ssPJHK+02D9+O4RvXKcTQN4M+CefrOlD5qsijJ6ZdHv5jNai78ajLVz42feny3AgAAAAAAAACYb6mQPKjaM/Sa9QDt8vJyWXm818WLF++rUJ0AdSqH99q5c2frStaDAuiDgsqjMOhzJ71wQILwe/fuve/nk6zEPi1p//4q9HHmzJlPqsMvQjt0hQD6AklFqip4/rff/evGDwenCtK4HgzmfrcaVH08/Ox4q9KnethPXvlZGRTIKxXmPJR8vypIMY5xkkBF0+ptCZ+Nqnpo5o+mQbAqADTucyVV+pqE2l47e3Yk7bIoY9RcNL/SfuMItVRBwVEYZxAmc3XTc/bWrVtlaHxUUtm7qcx3bauTNpH2SWiraQg914pcM0Yhn/ODhm00zmtxv8xJTUPV4+Z6zbCajrnibvj8pxM4h9ZayCBhzcxbbfYj51rTBUEmGdZsG67uonn8ztQkuD3K72hryXaaLCjRtJp7xfipz3crAAAAAAAAAID5tVK1Z+g368HZBKMHVQPP4gvVseXvExbulUDx6dOnW2+3P8yez2tTSb2OXbt23feuafTboONrsh8JaudY6r4GVV2fhpxjWehgkFTcP3HiRPHoo4+WYfTMuznfVEYfn0/P64HNopv/c7O4fKl+NaQ6rl27Vtz58MOyylLT6pG9JhV24vcScqsjD9i3qfDX1PYdO8qgQHE3lMb9xr1IQx6c/+rjX2n0O6liOYoKsKdPnmy0aMWkwmyVzE9NKgknnDdsQHZRxqi5aD6limzaclzy2Qn6JEDa1iSCMJkfU/m0SbXozKujOPdyz9f03mzS92Np+/TB17/2dO1rQN6Xa8bhEXz5bHrtKaawYFLVH1ncqQtcrxlGFiure92v5BzKPDEpK425VPIdZt5punDDNMKaGQtZZKJNhfoumcfvTDkvs3hD3fk3c/X3nnuu9fbqynHVlYUk2t7LGz/1+W4FAAAAAAAAADC/UtX56tWrepiFkGD00aNH76v4n8rVCQMPWowh4fMEhtu4cePGfb81rvB5cTcAnYB7ws6V3j9PSkLh/W3cJGg9y3NSzqGE7RM2X0kWJchCB9ViB6kYn98bV2X8RSWA3iEJaQ0T1BqHPBicB8SFz7vrwQk+tO2B5JV9cc+esY+TtH/TQOfldy+NJIB+6uWTjd6fB/wnXT0toaMLv3qr1kP9TcIYw1qUMWoumh2Zr0YxL6wlVRuHua859M1nJtLXB7/5TKPwcBb1OTyChb1ONAxrZf6fxv1Y+iBz+ne+/Re1fyfXjFRRHfY6cPYXrzZ6/ySuxYNkm7neduE+3vWaYbQJkf7zFCrm9i9kMOziHAmlNh2/ucZN436kDFd/+fHGCwV0xTx/Z0oV9LqLa2QOnEQA/XSDa0KTKu69jJ/x8N0KAAAAAAAAAGC2vPPOO6uGJKHXxYsX56I9suhCzv3e40kgOKHp/rB2gsHDhIIHBdDHLQH3LvbVrFfQbyJV0HM+JVReZwGA8+fPl69NmzaV5+eghRBo7lPajJWk4lIqIQmfw9qyUMMkJJDZRMI5w0o1zCbVVFOBchoPsSf8lDBDHTmeHBcsmoQFJ1VNOFUbU02zjQ0bNoykgnYduc9Ju9Q1inm1afXztMekrjOD7HnssTLMV9co5timlZgneW4Pkm3n3nmaXK8ZRpvq5+nHSVToHSTh3YPPHCp+8srPhv6+2vQcy7VtEgu5DJLxM825bljz/J3pYINzImNt3Ats5JjqjulcQ9uOI+MHAAAAAAAAAIBFl2rEQo4sqlQ1T6XwXv1B4YSB8z5oIwsXZAGCVNzPuVRHFkI4dOhQGV5vUjGewVRA5z5l6OvZJcHzKctD4HVCRLdu3pzzlui+BLgmFb5JUCxjtG6YYBTV3ZpUoM2+NQlfjFrmrR8ce6HW2Emlw2HmuUUZo+ai+ZJA1iQr1e750mONgtaVuuHUUUnAum71zoyHVPscph2bVvZOYG/SFYYH7UPCcnUDzqm6OkzALNVhm5j0uT1IWVn18a9Mbfuu1wyj6ZjLggvTCpFWRlVB+rWGc/KRCV+j+m3fsaNxhe8umPfvTNXCO3XvezLmcv8xLqcmUP28MH4a890KAAAAAAAAAGD+pMpuwo6wiDZv3lxWqU7YdyUJn69fv36o1sl2Jm0aVdfrSKi6rgMHDjRqu2m0cx05fzLX5nXu3Lmy8n7+u9bcmwr2aa+8f9hzcJGpgM4nvrhnT/GPL/5TcfG/fi3k0QF1K1LmYflRVGyjvScnPF4S6GwilXbbunnzZqPwaEKj0w4A1g1QDFt1cFHGqLlofiTwMunA6Y4dOxr/zjBVONva/vlm+znMuZ7wepP5J2G2cQbU6src3qSi7DBzQtroPy5cqP3+aZzbg2S+bFIpfpRcrxlG0zFXTLCS9bhl7Fy/fr32VjInb29xbRu1SS/UMgrz/J2p0iTInQB0xt64NJk7215DjZ/mfLcCAAAAAAAAAJgvCTWeOHFCr9LYPFVlPnjwYLF3796Bf5eq1U0C0ysZFIy+cuXK0J+7mv5wc3+l90kY9hjTN1Vwu84r7++6VETPogdZIOC9994rjh8/vuL5F1evXi2PjfYE0Cmlgt3Wz24tq3aN8yFo6mtSHe7E8WUtOyVZuGFSlfwqk3xov0kQIwHALoQk6wZXU3lumIf6F2WMmovmR8bnpAOndUM2vYapwtnW1hb72Vbm1bpVxIu7lb27IgG1zPV1nX21WVXUStPAcc6ZaYepK9MKtbleM4ymYy7fHbsQIh2FpsfelTk592fTWvCijXn/zlTJvNbkOjmuBTZy/a17r5FQeNu+MX7abbsu360AAAAAAAAAALpvnkLETNa4w9OTlirnmzZtumer27ZtG2nwt//zb9++PbYq5Vlcot8jjzwylm3Nwn50VRYmWFpaKquhJ4yeBQ8GyUIhXa1oPwsE0CmlatVLyyeKbzz958X//uNtxV9+69utQ0OMRpNqrKlY+Dd/9V0tPwVNK+uNwiTDGxd+VT9UMI1w6yAJvNYNflwaotLhooxRc9H8mMZ8FRs2bGj0/mkEY9sE5dtqMq+m7boQFK5kjm+yP5ffbTfHNv29LlQ/r0wr1OZ6zTCanD9xsEMLYwyrybF3ZfGGSpcWKFnLvH9n6tVkIZ2zvxjPv7k0Oa+HWfjH+GnOdysAAAAAAAAAgPmSSrwHDhzQqyy89evXlyH0SqqFJxQ8SoOC16PexmqfO+ngdxa4EECvL2H0LHjw29/+dmC1+t7zk2YE0BkoD7r+7Xf/utj5J18QRJ+Spg9nv3b2bLlwwM2bN+eoFbpvFoKSTaqiDvO70wq3DlK3jW4NMV4WZYyai+bHtEI/GxoGwGahqu4izquVJvuUBY4+/PDDxtto0kYJ6U8rZLiSafSb6zXDaDqndSlEOqwm1fW7dtwZP6lGPwvm/TtTryaLovzm8uWR3zPnupt/z6kjofBUbW/L+GnOdysAAAAAAAAAgPmTUGMqPcOi27Vr1ycVqJeXl8tA8ChlwYd+2c6oJfg9KKyc45ukHFuqvPfKXDPqdp03CegPqrw/KMxPPQLorOrWrVtlEP3rX3vaA68TlsqUX9yzp9FG86D5ri/8aVklq8nD4LST0FsXKoiOS8b8nTt3an96l0IFWz9bL3By7b/bj5NFGaPmovnwue3bZ+I4phmkm0QbJRSWe6u6hgmFjUvm+rpVq4sWgb6mbdTJkH7DNhqW6zXDaHr+ZK6cl/vf3KM0OfYmlYsnpYv71G/evzP1y6IoTe4pXhvxgn9NFhAcpvq58dOO71YAAAAAAAAAAPMpwcZBFXdhJakYPo8S/E0I/eDBgyM/ukEB9Pfff3/kla0HBb8zvgdtf1wSgh8Urh9Hu84j7TRaAujUkspcX/3y48WFt97SYBN06Jv1q6f1SpWsrz7+lbKC/Q9eeEG/jUnTqnqjNImQZpNqo10Lt9YNudxpUZm316KMUXPR7OtaheiVPDjnAbUmoaEEmKd5nVlNk/1qGpRq+v6uttEkK/m7XjOMptXld8xA4LmupgusTXJc1zUL1ejn/TvTIE2C3Wd/MdoA+msNPq9JtfZ+xk97vlsBAAAAAAAAAMyfhIlV16WJVGmeV4OqT49CxtmBAwfu+6SlpaUysD0KV65cGRj8zjYmKQHqQSF4wep65nWBh2n59GIedjclEDKuB/ovvXupDBc0qSjZL9WtvvPtvyj+8cV/6mRFznmUh7RTHSsVr9pIf58+eap8RT4rVb7yoPWshBG7rG7VznGYREizSdXaLFLxR5sfHuv+jMP169eH+tRFGaPmotm38Q9mo53nKdg4SJN5tavB6uJuP2Xer6Np5eprDQPoWzvaTrlHaDtnNuV6zTCanD9FR0OkbTVdFKSL9yyz0B/z/p1pkPx7yQ+OvVCrQnjukzMOR9GXOafrzpf596dhzmnjZ7jt+m4FAAAAAAAAADB/Eig+depUcejQIb0LY5Jw+5kzZ+758AS1d+3aVS4CMUzwOCH2lYLfkwygZx/Onz9/389z7ILV9YxqQQI+JoDeIQnzHB7ThHT47sd++OGH5cPNF371Vlk9qY2//e5fl78lhD4ZP/zRi2X1+WEWD6jkAee8/uGF7xcbNmwo9nzpsfLh51monAddtShj1Fw02+a9svg86nIYv0k4/sOGlaubVrrudgX0Ex3YExitLi+O0VST+anLx517qVHcnzFaqYJeBYTXkiroowhDn321fvXzJlXaBzF+huO7FQAAAAAAAADAfEpwNCHY/oAsMBqbN28ujh49Whw7duyez7t69epQIfQElvP7+Zx+kwp+VwH4QeHzbdu2TbwK+zSlH9Pup0+fLvu8qXPnzt33G8L77X1qVnecdh566KHyIdQ87Pp//u/V4vDSkVafk2peTSpe0V767F/+7cdl1bBRqqpmpap9KmH+5be+XZw6ebK4efOm3qppnipADnLp3WYVMRfVooxRc9Fs62qV6EXTZF7t8qIBDzXYt6b3i00qpidk1VVN2mhYrtcMo+n5M8lze9yazDddPu4NHa94PO/fmVZy8Jlnar/3wltvjWSbCbLXkevnsAsKGj/D8d0KAAAAAAAAAGB+LS8vl2FRWInzYzgJJg9qw4THH3nkkTK83ETCygk5Dwqf79y5c+zB7wTPc0zZh0Hh81RgHxSonncXL14s+zNt06Si+ZUrVwb22b59+xauDUdFAH2B5YHXVFx/481/L7Zs2dKoIe7cuVP8zV99d9GbcGJSMeynP39l5A8n96oqZu36wp+WlbjykHLTqqWwqBZljJqLYHK6vGhAk0qmuWdsosl473Locp6qREOl6XfGebL1s90d0xs7HkBfVOmXL+7ZU+voc61sUr18kITY615zh61+3pTxM5jvVgAAAAAAAAAA8ylVdhMWTWgUBlGJeXgrjbH333+/2L17d1nNfLXQdgLNqa6d9z3xxBPF7du373tPQu7jCH4nIF9V+E4o+jOf+UxZ0X3QPuQY8942VcDnQdokbZPjT3X4tfqj6tP+tkw7CqC3J4BO+dDrT37+SuNAwfXr14uXlpc14IRUDydPIviRvs1Dyv/7j7eVCw1cvqSyJqxlUcaouQiYpwrIQH0PGvudtPEPBNC7qknQ+8KvhquCXrf6eTw5ZPXzeTLt8eO7FQAAAAAAAADAfEpYchErFlNPqjoznIyxBLNXWugh1bMTLH/ggQfKQHLvK+2f0PehQ4fK9w2S8Hk+v+1iAQlNZ9uDXgnI55X3DKp4Xtm0aVO5D8OcL9nOSvux2ivtNMpjXuuVMP5qEig/c+bMJ32aNsk+5vdS7Tx/Tl+lTwcF+fMeCz+0J4BOKUGiNiH0Uy+rnjRJeTj5jV++WRxeOjKxrb529mzxjaf/vPj6154ubt682YVmgM5alDFqLgIAgNXteeyxYsOGDbVaKZWq297j5t9k8vt1pCq7qvnd4rsVAAAAAAAAAMB8SiDy+PHjepf7LGo161FLCPnGjRtlWHw1CZn3vq5evbrq+/fu3TtU+HwUjhw5Uly5csViBStIH6YvE3o/ceJE+edBwfPYuXPnmgF3VieAzicSQv/hj15s1CB37twpLrw1XKUumju8tFS88+v/LJ7cv39irfeby5eLXV/4U1XvoYZFGaPmIgAAWFmjKugt/23l7Kv1q5832R8my3crAAAAAAAAAID5k6q7Bw4c0LPcQ6h4dBIST1D76NGjK1ZDryu/n0Ujzp07N7XweeaL9957r1heXl7oit0ZI6OYO7OYQPqT4Qigc49UXmr6sOvpl09qxClI1bIsGFA9oPzggw9OZCdeWj5RfPXLj6uSBWtYlDFqLgIAgMGefKp+4Lvtv6289ot6AfRUY09VdrrLdysAAAAAAAAAgPmTIOlaFZpZLKmOz2ilwnWqoSeIvmnTpkafnfcneJ7fz6IRk5RtJ2h96tSp4ne/+11x+vRpFfLvLiyQtkgYP9Xgmy4ukHZ9/fXXp7qYwDz59KI3APc79M1nitfOnq3dMtevXy8fUs2Dskxe9YDyhx9+WFZMu/Crt4r/uHBhrPuRPs/DyT/9+SvlogXAyhZljJqLAH5PgAuYlNx70V25R/7inj217otv3bpVXL92rdF9bd6fe+I6VD+/X1fHj+9WAAAAAAAAAADzI+HHhCBT0ff27dt6dsHt3Lmz8w2QAHSC3L3GFZo/ePDgfZ/dNoCdsZYgel6pip5xl/9+8MEH5X8z/hJMzufnvdluXsNWpB/UXivtX7Wt3j+PyqC2HOaYVjPq82Glz8t+ZBGPvNKH77zzTvnfLBaQfr169WoZTq/aMp+zb9++kbftohNA5z550DSVsfLwc12XL10qNjao7MXoPfTQQ8X+p54qX5GHlNMveVC5SV/WdefOneLrX3u6eOOXb1p8gOLvnvv7YquH1Fe1KGPUXASj0eVAYcJurO5WRwPortcMo6vn9SR0eU6+9t/m5K5L8LtuePjUyyfL4HFdZ1+tV/28aFiNfZSMn/Z8twIAAAAAAAAAmA8JUSYMu3v3bj264BKO7bqcrwlxT0JC0+OQAPKkQsiTbK/VjKstB6nC+5M0yT7lXgLoDLTnS48Vp0+eqt04ixxG6Ko9jz1Wvr733HNlFc6qatZvLl8e2R7n4eTvfOvb5cPJzJ88cF73fEmYbfuOHc6CBhZljJqL4PeazKsJeWfsdFGTINmWLVvGdgRdvv+cZAV012uG0eT8GUfYcZoS7KxLyJth5Hped5G/3Cs3cfYX9QLoqcI+ykCx8TMdvlsBAAAAAAAAAMyuhDWPHz9ePPvss3pxgc1CAB2g16e0BoNsaPhg8qV3L819O87yQ9N50PzQM88UP/35K8X/+b9Xi3/+8b8WT+7fXz4EP6zr168XLy0vT/sQGYONf1B/HrimGu5QFmWMmotYdE3m1Zv/091wdZM5/8EGI/SQmAAAIABJREFUAbXY+tn61bm7HIadZJV412uG0eT8KSa8uMK4NZlv7nS4gvMog6eMT6qg15Hwb90Qet6X99dRd/t1GT/T57sVAAAAAAAAAMDsWVpaKg4cOKDnFtS2bdvKatkAs0QAnYFSHZF7Nan22WWpVJaKWT/80YvFxf/6dfHGm/9e/N1zfz9UhdJTL5+cm/bh95osRHFdVbuRWZQxai5iETWaVzscFG4y5zcJqBUNK6oWHW6nSS5c5HrNMJouPHZrjgLoTRbISBizi7p8reBeTz5VPwBet6p53fclkJz77lEyfrrFdysAAAAAAAAAgNmxvLxcBpFZPAcPHtTrwMwRQIea5ils0WvL1q1l1aw3fvlm+ZByKmY1laprp0+e7MgRMSob5yQoOesWZYyai1gETRb4SVirq6Gfy5cu1X5v03DrloaLIHWxonf6bZIVVV2vGUaT86doOP67rumia1089i7OgQyWsfbFPXtqtc5/XLiw5j1A/j7vq2PU1c8L46fzfLcCAAAAAAAAAOiu9evXF+fOnSvWrVunlxZI+lsAHZhFAuhQQx7uvnXr1tw3VR5STsWsPKDctFJW3eprzI7tO3bU3tcEJW/O6SINXbIoY9RcxLxqGq6+8NZbnWuJzPVN7ol2NLiWFC3a6PK73Qu0TbrfXK8ZRpPzJy51cMy11Xi+6WCA9sKvunedYGVNguBnX139nnatv+/VpPp6XcbP7PDdCgAAAAAAAACgezZv3lyG0Fkc+/btKxcfAJg1AuhQwzxV+qsjDyj/5Oev1K7QFgmjCTTNn89t3177mLoYlJxXizJGzUXMo0bzageDUU3m+gcffLBxQC0VYvN749ifSZlGv7leM4wmgcRU91+rMvOseOihh4oNGzbU3tuuzclNKmDTDXsee6z2OffaGsHftf6+kvvoXFtHzfiZPb5bAQAAAAAAAAB0y65du4rjx4/rlQXx/PPPL3oTADNKAJ2BuvqA6Z0phR0WLYBe3H2gPFWymjxUfv3atbHuE5O34/P1q2LWDUEwGosyRs1FzJs9X3qs9hElGNW1e7LTL5+s/d6mlZXb/N6dO3c6FahOf00j0OZ6zTC2Nzh/ijlbxKDJfHP9+vVOzckWk5hNdaug53xb6Z4252H+vo4mVdebMn5mj+9WAAAAAAAAAADdsrS0VBw4cECvzLkjR46UVe8BZpEAOgNN8gHTpg8tT0MXK5BOQh5OPvzsUu0teTB5/qRKX10Zn4u4WMM0LcoYNRcxT5rMq/Haq90JCyeslUqYdTUJ2/dqHIbt0H3aS8eXp7Jd12uGsf+pZgHVs3O0iEHT+aZLc/K05huG82SD8XZ2hfPt9Ml6i8EkZNz0vqMJ42c2+W4FAAAAAAAAANAty8vLxbZt2/TKnFq3bp3q58BME0BnoMvvNgulNKm6OKxJV81qGraaN00eWL/5P92snE97W7ZubVQd7YQgzMQtyhg1FzEvNm7cWGzZsqX20Zx6+WTx4YcfduLom4a12obeGof0z57tRFXV7EP2ZRpcrxlG0/PnN5cvz80iBk3nm67MyQkmL/J31FmW+4Av7tlT6whWWmCl7sIr46x+Xhg/M813KwAAAAAAAACA7li/fn1x7ty5MqjM/En4PH0MMKsE0LlPwjNNK41v2LixdUMm8NDEpKsv5SHpRZbqWHWDcl0IfzF6B7/5TO3PTCApizYwOYsyRs1FzJMnGwTC7ty5U/zg2AtTP/qEtZrcHz65f385bttoGtIvOlLJ9G/+6rtT3b7rNcPY86VmQdKuLGIw7HfDzFN1w8DF3Tm5bvXpcUmAtwvXBdqrGwxPSLp/rm6yQN7BZ+pfF9owfmaX71YAAAAAAAAAAN2yefPmMoTOfNm5c2extLSkV2HE3nnnneL06dPlAg+9r/wsf8doCaBznzYBnu072ldAz4OvDz74YO33T7LaXh7uTkBn0T3YMkDGfNj/VLPKeQngdaVa76JYlDFqLmJeZF5tcu+TqtrTrDbcJqw1bNXVJmHqogNtdOrkyanfM7peM4ymQdUuLGLw0vJy8dXHv1L+dxhN56ssUDbNQGbm4wR5mV2pPr1hw4Za+99f7bxu9fNhFoJpwviZXb5bAQAAAAAAAAB0y65du4qjR4/qlTmRivYWFWCSMoc88MAD97zWCmP3vz+vK1euDL3XCYM33ZfVfPDBB2W4fN++feVn7d69uzh06FBx7Nixe175Wf4u73nkkUeK5eXl4saNG87DIQmgc48EdxLgaSIPTm8cogJ60TDAXveB62F1qTJWQk2pPArTkOBCAgx15YH+v/zWtxeqrxZljJqLYDQyrx5qGLDOvDqtwFa23SSs9bnt24danKi4G85rEtIvphioTgXmLlRgd71mGPk+1+T8Ke6OuWnNS7kfeWn5RPnn/Dfnctvx3yQMXNwdOzn2achxN/2+TjfVDW6nv6tzO/+t2//DLgRTl/HTnu9WH/8bZPXK/RQAAAAAAAAAwKJLaHPv3r2L3gxzIWHb9evXL3ozMIMOHjxYBr67IPuReXHz5s1luPz8+fO19+rq1avFs88+Wzz88MOdOqZZJIDOJ/Iwc5sHgfd86bGhG3H75+uHlG7dujWRCpcJn2db05Zj/YcXvl/87Xf/uvjBC9MJxNet6Ln1s1vHvi9Mx+FnlxoFAXPOTCtYUMn2J7EPizJGzUUwWqk23GReTWDrO0MELNvKPNq0sveRZ5eG3m6bkH7u2yZ97UlY6utfe7oz1VRdrxlG0zE3rXkpgc3cj/T6jwsXim987enWAcaDDY89Y2fYyutN5V6s/7iZXU8+VT8gfuGtt+7571oSCB92IZgmjJ/mFvm7VY49i4b80eaHi288/eefvL76+FeKR//XH091cRMAAAAAAAAAgC5Ild9t27bpixl26tSpsvoyzKIEtxP6nrYs4pBxlMrmt2/fHmpvzpw5M5LK7otKAJ1SHu7MA/ttAtcJUA0rVbOaODHmKpN5ALgLlbH6FwU4ffJU8dUvPz7Rh3GbhP0TFmM+pSpm01BSxtAw1SjbyvYyTrL9vFJZbpzbWoQxai6C0WsTsL5+/Xp5vzapeTXjvun90Ciqn1eahvSLuyHUSYWZuxY+L1yvGdKWrVsbV0Gf9Lw0KHzeuy8Zk3VDur0OPfNMoyrOxd3K65OqXpxjyjhlfmS+/uKePbWO5/TLJ+/571qaBsKHZfw0s6jfrarjTtg892uD5J4q9wRpjzZzOQAAAAAAAADAPEjV7ITQ161bpz9n0IEDB8pqyzDLTpw4UZw7d25qR5A5cPfu3cX777/vPOoAAXTKh37zcGce2G8qD0znwelh5TO2bNlS+1NSqWlcIZWEz/MAcBfk4dz+RQHST+mvSVUMaxL2T2iF+XWwRbBg2GqUTWU+2/knX7hnPktluXGFGxZljJqLYDwOLy01uv8pesKe45xXExBKUKtp+Dxh8R/+6MWR7UcCT4dbVFPPfmfeGmcgNsGtroXPK67XDKNpFf2iZ14aZ3gy4znf09aqYFxWZf/2X7S6P2kz32R/xr14Qj4/x9TF+Ybh7P+zelXQM8Zy3an7bzb7G1RXHxXjp75F/W7V5N6ymsubBOUBAAAAAAAAAOZJqv4mgMlsSeV6/ca8yEIKH3zwwcSPJmPo0KFDK/79pk2biqNHjxZvv/128d577xUfffRR+cqf87P8XcYioyOAvsCq4Hke+m37MO73jj43sgZ8subD15VRh1SqsFVXwud5UHq1qlCpGJbgzjiDOvnshP3rGlXFU7opQcA2wcLyYfrHv1I+TD+uMGAVBFxpPsvPR/3w+qKMUXMRjFfbeTVz3jhCW5krc3+40rhfTcJno1iYqFeqqjYN6Rd3Q+jjCFRXIdhU71zr/jnV4KfB9ZphZAy3CZJW4clxzktNvqfl/qRpxeOEdtuM23wvzbZGPW4S6M94yeczn/Y89ljtBUPqns9P7t8/sorVTRg/9Szqd6vcWzTZZmUc5wYAAAAAAAAAwKzYt29fGaRkNqRi/TvvvKO3mBu3b98u56FJWi18nlB5AuY3btwonn/++WLXrl3F5s2bP/n7/Dk/y99duXKlDKQfOHDACTkCAugLIg9s5sH9POyaBzgf/V9/XAY82lQ9rxx85tBIQ0Z5YLlptb0cQ45nmGp7aZs8DJuHfNuErcYhYamXalSkStWstME4HlDOubJWhcFeCYdN40F3JisPnx9eOtJqm9XD9Blvo6iQmbFbLaSRIOBaD7RnrhhVEHFRxqi5CMYvVSX/7rm/b7ydhJQSqhrVuMu8nHky82l/Vc46vrhnTxkWH4eEqZveIxY9gepUGh32utN7v1gnBJv9PdIixDsqrtcMI2M5Y7qpUc9LF956qwyQtp2X2twPtJ1v8j1ylPNx5q1dX/jTWoHNBJjbLNRBN9Stgl530cC6nzcOxs/qFvm71amX2y1OkvM+1wIAAAAAAAAAgEWVIOXevXv1f8dV4fP169cvelMwZy5evFgsL6/93NsoJFi+tDT4+fssxpFQeQLmdSWQnkB7gug7d+50ag7h0zO753Po7C9eLS69O7qKf3c+/HCogPlq8hDq4RUGdVt5qPXQN58pQy9N5GHlvFLpa8+XHisDN3UekM1DrBd+9Vb537oPc6eiV5uqTU3lgekmVemrB5R/cOyFsopa2iH/bSPtkYeDmx7nwW+OJ3RG92TsX/vva60WbKiquuWV8ZRzdevWrbWrqmUhjbwyVzY9R7PthJje+OWbQy+esShj1FwEk5Gw5/X/vlZW7W6qGncJNCV0ljGXUHsdCQZnrOUedJj7m9wXtqm4Xfvzt24tvnf0uUaBqV5p17yqe8Um81KuOWmfJveLxd0Q3igqhg7D9Zph5Bz+xteebvV9sndeqr6f1fmOluBoApr5jpbzp03ovJIAfZt5Kedc2/km527vcWeBtabzcY696ZjNcZ6oEWqlm5586qnG/waykoSpp3ntMX5Wt6jfrTKfNznufrkPy/kAAAAAAAAAALCoEqBM6PLq1avOgY5KQPeRRx5Z9GZgTlXVxsd9jh88eLCsut7v1KlT5d+1lSB6FoigPQH0DsnDpcM8ZD8pqWj1z//247FUmD34zDPlw6Vt2qEKFxV397F6WHnrZ7eW+5qHkhPCaRvMT8X3POybCnzj9IMXXmi9cEAe6u1thwSGquNPewzqs7RLgh5pm7YPBqe92z4IzWwaJpRUycPvvQ/AJzCxYYWgWc7RYR5ar+QzvvOtbxc/+fkrreewRRmj5iKYrAS2MgbajrvcO1WB4eo+aMfnB4fQMs6yrVHcd2ZbuSaM476wV4JHl9+91CqkX+mflxKU2/gH9193qnvGtqH8Mujekbloka/XDCftnvMniwG07dPMMadPnipfRd93tH6jXORr2EUxhp1veo+7Gi/jmo8PLx2Z+mIXDCfXoiyY0GaxkH5dWIjJ+Blskb9bZfvDyHEAAAAAAAAAACyyVNWuQuiDwplM15EjR4YKx0LX5Jw+ceL3hXUy7+QcTwXycUlAPNXW+x0/ftz46gABdBrJA6g//fkrY6tGWAUdhg155+HaKsQwijBDHnxOFclJPPhat8pXHf2BoXE5/OyScNCCSX8nFDZsqK3XpBbhSHXNPJDf9pxdlDFqLoLJGuW8Wt0HjXvcVfeFo5wvVlMFSocJoVfG1T4JvmYxga5Y5Os1w8vYzhgfJoTeq/c72rhkDI5i4YJRzTfVeBnHcWexi3xHLe6OdWbX/j97aiQB9K5UiTZ+7ue7VXujuP4AAAAAAAAAAMy6VB5OCP2JJ57Qlx2yd+/esvo5zJOc0wmEX7169ZOjyp+XlpbGdr4P+tydO3eW22T6PqUPqCsh7EmEjFKBKpWoumQSlT0reWj8n3/8r2Woaxak+tahZ6ZfaY3Jq0JtOQdmRUJJwy6isShj1FwEkzdL8+qk7gv75Z4sobEuGhR8zc+mbVGv14xGFUKfhfuBUYXPK1lMIpWpuyjjubfKe6ohM7tSZTrX1WHk2tilhQiMn3v5bgUAAAAAAAAAwLD27dtXHD16VDt2xLZt28pFAWAeDTq3UxU9wfRRu3HjRnH+/Pn7PvX55593bnWEADq15MHhN3755sRCRqlE1ZVw0T+++E9lKH6S8gB6GerqQGhpNXl4+l/+7cfd3UHGLiGHnKsHnznU+cbOPPaTEYUlF2WMmotg8mZhXs2cMMn7wn5dDKGvFHx9sCNhwEW9XjMa6YtyzHf4fiBzQvZxlAHcfFbuL7o232R/Mp6ZL6mCPoxhf3/UjJ/7+W7VzqyE9gEAAAAAAAAAJiGBzFTdZrrWrVtXnDt3rli/fr2eYC498sgjxfHjx+87tCyE8cEHH4z0kAeF2lP9fNeuXU6ujhBAZ1V50DNVmvLw6aSraXUhXJTweSpVTUMV9OhaNfhKzo2fjrDCILPte88919mKbtmnv3vu70c+jy3KGDUXwXR0dV5NgHnUIc82cp+Y+7QutE+qhI6y6vI4LeL1mtFINfqfdHQRg5w3vdWMRy2fnW10Qdp/nMfK9Dw5xL87pHr6pBfNq8v4udcifrca9tzs6rkNAAAAAAAAADAtqUyc6ttMR8LnCcxu3rxZDzDXlpaWyiB4r9u3bxcHDx4c6WEPCqCPehsMRwCdgfLQaR6Ivfhfvy6rNE1LHg6eRsghxz/N8HmvVIN/59f/WYabuiIVu36qMiV9MldkzuhSlbtUUc0D/oeeeWZs21iUMWougsmr5tXMZdNWVvh+5WdlgLkrcp+WOX6a81Lul2dtEYxFvV4zvJznmQMyFyTwOm2Zl954898nct5kG9nWtCoXVwvDrTQHb9i4ceL7xGhlkYe21/uD3+z23Gn83G+RvlslQD7MNWPPl6b3b5IAAAAAAAAAAF2UqttC6NOzvLxcVoeGRZBK/1l0odf58+fLOWhUbty4cd8nqX7eLQLo3CMPnP5/9u7u547qPBT4gLitX+6DP1BycZIatbkpNEYBKp1zhFFS+qWSlMq0RwqO3GDnIkFK0kIlitRzLjCkKC4XB1BpoCqtaCKMTlOd4AhSiFQBshvORSSwgXte5w/g6Fn2mP3OO3vvmb1nZq/Z+/eTtmy/3h9rr/l4n/XMPGtF4XUUpcQNsTkU0wy9UmN5021d8fmqihzjZvRoUxR7rPoG5ZgQ4O8VfDJFnDNi4ohV76tpNdrnnk2rqF43QEHBphyjzkUwvDivxrlsVcddFAxFbBjFwTmuQFmel6KNQxbExraIYrqIl2e56TfzXLVzU39f0404F1waLx5fyWr65WRhcV4aMg6YXLl4yO8dRcnzJoZz/KyH3/uDxSbAy2HivHkcP/Wfuyljq0UnSYjYbgz7NwAAAAAAAADA0KIA+s033yweeOABfT+gJ5980srMbJRywouqWB29rnB8EWfOnNn1qgMHDtjRMqIAnXRD7rf/4s/T6ktxQ3Dc3JnbKo7lSo193qwcN7ZGP8wqZFh1v0SxR9ygHAVPsWrlkDdulwVCMSHAmFb5ZDWq++oQ4niIz4rPjM9eRaHkphyjzkUwvPK4i/1/iBXRJyclGkPhT7Qx2hpt7nOF1fIc1McKoauwqb+v6UZMwBDHXYyhhpgAohyvrfq8VH7vvgtpJydoEPNshsh7tD2W4nw6pv3D8bPbJoytYhX8tnFG9ENsPwAAAAAAAAAApnvwwQeLN954w2roAzhy5IjiczbSnXfeWRw/fnzHV9/e3k4/78P+/fvtaJm5ZtM7YFPEjZtlkUysxPiJ664rPvOZz4yqcCZuho2ble/50z8t/un554t//sfni7fffnvp940irv/63//bqFZViu0Wq1aGH/3rvxY/+j//Wrz+2mvFBx980OnnxM3vZd9YZZhFlPvqdx74iyv76r/96Eed9WWc26JQ48bfvCn9mUtxwaYco85FMLwoUorH+++/n467ruKhYk2OtWh7PN7++c9TvBjnpWXPSeXvmj/5H3+6tuegTf19zfJiW0ZhYTwiBvinf3y+01ig3Hfi3DRrBeOhlWPTeJTnmi6OmU043zBbrIL+2MlHG/fSnyy4svQqOX7qrfvYKr7bnq09xVP/+8m5z402RvG58yAAAAAAAAAAwHzlauhRjP6Xf/mXeqwHUXxetwo0bIo4v7z88svFW2+9deUbx9/j5/HoktXP83PVJ/cf+OgX776z6f3ASEXxVdyQ+/q/v5b+/rPXX5/5RWJFzF/ZsycV4ceNrFHAtU4FMNEHUXAVj9f+/bX0s3l9UionKbjuuuuKT//qZ4qbbrrJzb70Jo7bn8e++p8/v7Lf/vKXv5z5ceXx+5lfvTR5xtgm0Sg26Bh1LoJhXbx4MR1v6dz6nz9P/553zEVhT5qQ6PI5NWKiOO7WUfTNzy+fk6J/5v3Oid830TdRLL3p56BN/X3N8qrH3Qfvvz+3iLJ6XhrjvpPGpi3OxbH6cIxHlz3flL8H5onPcjzmLc61//z8843a+CuXJ4BYF46feus2torv89gjJ2uL6yOG+N0/uDSZkMlqAAAAAAAAAADai0L0WKV7skiU5cTq8tGvkLtbb721OHPmzI5W/vjHP04/n+aqq67a9T8fffRR7bPjOPjsZz+76+dvvPFGmghjUt2EGNPaUm3D1tZW8eGHH9rfMvGpA9crQIdNMe2m6ig4A1ZvU45R5yIAAIDlGVsBAAAAAAAAAFDHaujdiOLzWPX52muvXYevw5rruwA9nDx5svj617++42f79+9PxemTx0mbAvR43fb2duM2MKwoQL9Gn8NmSCuDuQkZsrUpx6hzEQAAwPKMrQAAAAAAAAAAqBPFn3feeafV0Jeg+Bx2O3HiRPHCCy/sKHQ/f/58+vlTTz21UI/F6unVwvk49mYVzjOsq/U3AAAAAAAAAAAAAAAAAIxfFHXGqsQPPPCArdnS1tZWKqZVfA67xbERx8ikp59+OhWmLyLOVVWLvhf9UIAOAAAAAAAAAAAAAAAAAGskVkN/44030orezBeFtbH6cl1RLFAUBw4cqF3t/J577inefffd1j1Ut9K5AvS8KEAHAAAAAAAAAAAAAAAAgDVjNfRmFJ9DM3feeWdx5MiRHc/d3t5ORehtRQF6dUX18+fPFydPnrQ1MqEAHQAAAAAAAAAAAAAAAADWVKyG/s477xS33HKLTVyh+BzaiQLx/fv373jNmTNnWheOX3vttamgvSrOV4usqE73FKADAAAAAAAAAAAAAAAAwBo7cOBAKrR+5JFHdq06vKkUn0N7UTj+wgsv7Hrd17/+9eLNN99s9X5RbF4VK6pHYfqHH35o66yYAnQAAAAAAAAAAAAAAAAA2AAnTpxIRaKbvhq64nNYXBw3DzzwwK7X/8u//Eur94yJMY4fP77r52+99VZx6623Ll2EHq+vK3KvihXX2xbPbwIF6AAAAAAAAAAAAAAAAACwIcrV0J988smNXA1d8TksLwq7u5jIIt7n137t13b9PIrQ4xiNY3URsUp7ea6bJorOY7X166+/vvjsZz+bnq8Q/WMK0AEAAAAAAAAAAAAAAABgw9xzzz1p5d/f/u3f3pgvHoWuUWCq+ByW99RTTy09icW111479X3Onz9f3HbbbWk19CaF6LHiebxXPP93fud3iu3t7ZnPj+LzyVXb4/PiZ8uuvL4urtn0DgAAAAAAAAAAAAAAAACATRTFn7FScDxOnDiRCjDXVRSfRxFrfGdgebFieBR8R7H3MsqVzqNwvK5o/MyZM6kQPYrU4znlBBLx+TGJRojXx/OaiufXne/iZzFJRXzOplOADgAAAAAAAAAAAAAAAAAbLFb9jYLLBx98sHj00UfXriNilfcolFV8Dt2Kc0ccX5MriS+iLEKP95s2EUYUp8fnLPtZxeUC9GnKovZNd/WmdwAAAAAAAAAAAAAAAAAAbLoozj558mTxxhtvpNXC18Xx48fTCu+Kz6EfMbnD/v37l37vKEKP1cfjmO3KtOO+XEW9jtXPL1GADgAAAAAAAAAAAAAAAAAkZRHoI488UmxtbY22U6LtTz75ZCqqB/oTRd5RhN6FciKMd955pzhy5MjC7xiTaMTxH5NP1ImV1uveP4rfDxw4sPF7S7gmgzYAAAAAAAAAAAAAAAAAABk5ceJEcc8996Q/n3766VFtmliNOQpPZ61yDOugbh+ft9r/Lbfc0vk3j1XDY9KKasH3vLZME0XgUdQexejxni+//HJ6nD9/vvYVMeFE9EUUlkdbmhz78f7x3LLNcb6L13PJVZ/cf+CjX7z7ju4AAAAAAAAAAAAAAAAAAHZ59913U7FmPKYVgOYiVjWOotVFC1+BvH344YfFm2++mdoYhepWLO/epw5crwAdAAAAAAAAAAAAAAAAAGgmCj+jED1WDc6pGD1WQI52WcEYYDkK0AEAAAAAAAAAAAAAAACAhUQx+ssvv5yK0c+cObOyTjx+/Hjx4IMPWvUcoAMK0AEAAAAAAAAAAAAAAACATkQxevmI4vTt7e1eO/bIkSOp8PzAgQM2IEBHFKADAAAAAAAAAAAAAAAAAL2IIvR4vPvuu6koPf48f/78Uh+1tbVV3HPPPcWJEycUngP0IArQr9GxAAAAAAAAAAAAAAAAAEDXfv3Xfz09qqIo/cMPP0xF6SH+Hj+b5tprr03vc+utt6YHAP2yAjoAAAAAAAAAAAAAAAAAAABpBfSrdQMAAAAAAAAAAAAAAAAAAABBAToAAAAAAAAAAAAAAAAAAACJAnQAAAAAAAAAAAAAAAAAAAASBegAAAAAAAAAAAAAAAAAAAAkCtABAAAAAAAAAAAAAAAAAABIFKADAAAAAAAAAAAAAAAAAACQKEAHAAAAAAAAAAAAAAAAAAAgUYAOAAAAAAAAAAAAAAAAAABAogAdAAAAAAAAAAAAAAAAAACARAE6AAAAAAAAAAAAAAAAAAAAiQJ0AAAAAAAAAAAAAAAAAAAAEgXoAAAAAAAAAAAAAACm78+/AAAgAElEQVQAAAAAJArQAQAAAAAAAAAAAAAAAAAASBSgAwAAAAAAAAAAAAAAAAAAkChABwAAAAAAAAAAAAAAAAAAIFGADgAAAAAAAAAAAAAAAAAAQKIAHQAAAAAAAAAAAAAAAAAAgEQBOgAAAAAAAAAAAAAAAAAAAIkCdAAAAAAAAAAAAAAAAAAAAJJrdEMz77//fvHPzz8/hqYCAAAAAAAAAAAAAAAAAAATfvf3f7+47rrrdEkDCtAb+uD994vHTj46irYCAAAAAAAAAAAAAAAAAAAfu/GmmxSgN3T1KFoJAAAAAAAAAAAAAAAAAABA7xSgAwAAAAAAAAAAAAAAAAAAkFyjGxb3GzfeONamAwBAKz97/fUdT/8vn/50sWfPHp0IAMDaefvtt4tfXrx45Wt94hOfKD5x3XU2NAAAAKyZD95/v/jggw+ufKlf2bOn+PSnP20zAwCwti5evFj8v7ff3vH11EQAALDuqrUQNKcAfQnf/4fnRtt2AABo41MHrt/x7D9/4C+KG2+6SR8CALB2vvyHd+246PB7f/D7xX0nTtjQAAAAsGYeO3myeOzko1e+VBSfux8MAIB19vprrxV/dNeXdnxDMTAAAOuuWgtBc1frKwAAAAAAAAAAAAAAAAAAAAoF6AAAAAAAAAAAAAAAAAAAAJQUoAMAAAAAAAAAAAAAAAAAAJAoQAcAAAAAAAAAAAAAAAAAACBRgA4AAAAAAAAAAAAAAAAAAECiAB0AAAAAAAAAAAAAAAAAAIBEAToAAAAAAAAAAAAAAAAAAACJAnQAAAAAAAAAAAAAAAAAAAASBegAAAAAAAAAAAAAAAAAAAAkCtABAAAAAAAAAAAAAAAAAABIFKADAAAAAAAAAAAAAAAAAACQKEAHAAAAAAAAAAAAAAAAAAAgUYAOAAAAAAAAAAAAAAAAAABAogAdAAAAAAAAAAAAAAAAAACARAE6AAAAAAAAAAAAAAAAAAAAiQJ0AAAAAAAAAAAAAAAAAAAAEgXoAAAAAAAAAAAAAAAAAAAAJArQAQAAAAAAAAAAAAAAAAAASBSgAwAAAAAAAAAAAAAAAAAAkChABwAAAAAAAAAAAAAAAAAAIFGADgAAAAAAAAAAAAAAAAAAQKIAHQAAAAAAAAAAAAAAAAAAgEQBOgAAAAAAAAAAAAAAAAAAAMk1umG1/vZ7p3Z8/tbWVnHXl780s03b29vFc99/dtfPD95wQ3Ho5kNX/l1976bKNrz04uniwoULMz9jlrrPj/eN919E0++zb9++Yu++vamti/jasWPFxe3tHa/83KGbi3u/erTxuzVta7Rxa2vP3LYuui2r6vavuveObdyk/6qvPXzH4WLvvn1zn7dMe9u8X9P+nebVV14tfvrqK8W5s2evPGPP1lZx8OANjfsIAFhMznFyyC1WrtNFXDtNxEcRK507d7b2M2bFSn3GtrH9tyfaU31O3WdPi2Gnee/CheL0i6d3/G+MQW6/43DjdkxryyKq793ks5dtQ5PjUSwNAB8bKgap6ioeXCQ2b9L+pvFz08/vM7Zp075p2uath8qBlsoYP2K4qnkxfp2h8vldt3vSsjHtKscFTT9/liH2ia6vRUwyJgEAIGfLXGcpBhpnVy0SY/c55qkacly7bG6lyXuN9V6rWfpsQ5f91UUurIlFcnfyCHnnEZbZd9q8to/rwYvm6ORfgC6NLUZe9BwoRl78vfqM+abpMz6uWvb3at/XSqftT4v87t+E8VZXsesQ5wwxHQDzXPXJ/Qc++sW77+ioOV5/7bXij+7a+Qu3i3771IHrd/w7fkE//cwzM18TyceXagZITz/zdzsKVqrv3VTZhggkjtx9945XRTDz45+cmftOda+NmyG/+/jjC7Vpke8TffGVo0dbFfLUtbt8r/94681e2xrtjPbWtXXRbVlVt3/VvXfsTy/88Adz36/62njvuoH6svvisu83r3+rInj+zre+vSOIrhP9dO/RozNv9AWAdVH9/fv3zz1b3HjTTb19u5zj5GJK3LjKWLnJZxQLxLV17/vEqe+lP+eJ/rj3cjw+qc/YNr7zZNuqz/lff/3Xu5Ky37j//laJ67r3iG03GRPOa0fRYz80+exl2zDrPcXSAKyDL//hXcXPXn/9yje578Tx4r4TJxb+ZkPFIJO6jAcXic2btKdpHzT9/D5imyb6ylv3nQMtxRjqb0+dmhu/FZdj/G/ef3+jGK7vfH5f7S46jGlXOS5o+vl1htwnur4WURiTAADQ0mMnTxaPnXz0yot+48Ybi+//w3O9dWMX11mKgcbZpWVi7D7HPKVVjGvjemDTiQWjEOq2z98y9f+n3X84tnutmuizDV32Vxe5sHkWzd3JI+SdR1hm32nz2j6vBzfN0cm/wLj1VROxqLHFyMueA8XIecTIOcTHpa5+r/Z1rbTNMRrv9ZWjX5078cMmjLe6il37PGeI6YBNM3QtxLqIfrt60zthbOImw2pRTQSx3338bzoPZiPIqAZ/EaTVrSpZFUFmVQxOhhSzPMaNmXd+4YuNBlDhpdMv1v483qva712K949t+1ufv6XXz2kq+qur2ZJy0KZ/4/+P3P3HjfaZeE4UusVjuzLbHgAwrCHj5GIEsXIfcW3E1tWL2bNEf3znW9/KKla660u7L0C9dLpdf1RnS947Z+XRTSKWBoB6q4hBVpXnZL5F8tZN37dtjrmM15u2I2L8vmK4Nv3SZ7s3PaYdep/o+lrEpm8/AADyNsbrLLnH2Ksa11bzNF09Nyc53MuW2/10XVqX3J08wvppkqPTb0CXxhYjj+EcKEbuR1+xae77VNtjtJwIIl63qHXZl3KvxxHTAdCGAvQRiV/y1WAsimliRcems/y0FTMQVT337Oyimggcq0FmzPjUVxvniYFRBEfx5ywRDM0qGDo9JfHbpWhD3cqdq/DEqVNrFyDO69/4/xh4t/3eZQAOAKzGKuLkIuNYuY+4NmKkRROiZayUQ2wZ/Rwzck6KBOm8sUIptl31uYcVnydiaQCYbugYJIc8J/M1zVu31TTHHDeRNplAq06fMf68fumz3Zse065qn+jqWsSmbz8AAPI2xussucfYqxzXzrseuOOzWk5CmJsc7mXL6X66LqxL7k4eYb1Ny9HpN6BLY4uRx3AOFCP3r8vYNPd9apljNF4X++Mi+9M67Uu51uOI6QBo6xo9Ng5xQ2L8kq/6xv3377p5cZp43jcarKy4tbXnyt/LlR0ni2SiLfHv6oqPpeee/f6un9179Gjn/Vz3fSLhde7c2V2DpzTr1KlTxUMPPzz1/aqviRtDJxNoETC9d/+FhYqDpvV99GUEydVEXWzrz9186MpqnU8/88zU945Zopp8VlHZtvOUs1nO6rNFLbIvzrJs/5ZiH6gG0vHesf/uufzcaftY3UpWAED/VhUnFxnHyl3HtRET1l2ciNdHDDTZz/H9I7FbnRkzxWXff7a496tHVxLbToo2f6fSvogZm+wDdasRLBoHrrof6iwTp4ulAWC2IWOQPvOcY9J1DrKprvPWpa5yoMXlGL9uNvsYx9x++I60b8Tf4znnzp5L+2B1Iq34vzb54y76pe92ryKmzWVcsIp9otTVtQhjEgAActX1dZahdBFj9zXmWeUYpii/99mzc69Fls/rQq73Wi2jzzasKi/UxDK5O3kEeYRlLZujk38BujLGGLmrc6AYOc8YeRXxcd+/V5fpnyggrztGJ/enUrSxy/1pHcZbpS5i1z7OGWI6ANpSgD4Cl2aY+fauX/IRHMRqiU1F0DCtEGaWCHhu+/wtO57xxKnv1b5XCiArMzrFwK6Pmxnrv0/8+0spsKnOwhXBT/TZtEC/OgNSvEcETZPf5/SLpxcaqE7r+/hZvF91Jqxod/y73L5tttui27lO9FkMErp6vz7aOOv9mvZvqboPxH4bK6fu3Gcu7WMRYH/t2J+lgUscI22ORQCgG6uOk4tMY+Uu49qIdepmMo0+rnt9GX/FZ5WzZEYs9ZWjR688f1Wxben2Ow6nxO7kfhP90aj4q7L9om2Lbr9V90PXnyOWBoDZhoxB+sxzjslQMVRV13nrUlc50Lj5oy7Gr4vL4kaDeMTPo53VfTh+dujQzWn/7rtfhmj3KmLaHMYFq9onJnVxLcKYBACAHPVxnWUoXcTYfYx5VjWGKd/jymuffbZ4aE5BRHXlvvicRVdKzPVeq1zbsKq8UBPL5O7kET5+nTzCYpbN0cm/AF0Ya4zc1TlQjJxnjLyK+Ljv36uL9k9ZOL7zvbZm3JN5KP188hgtLu8fTa6FF2s43pq0bOzaxzlDTAdAW1frsfzdd+zYrtl54hf3UIOmNJtYzU1qdTMGxYyHk8oB3tBiYFT3uT+tzKxUujSb187vc/iOw2kANakaqHblm3UzZp3rZkamtqrbujqAGKOm/Vu3D0y78bMMtL/7+OMCaQBYkVXHyUWGsXLXcW1dLDjtgs+kSOhGrBQJzRd++IOsipui36sXSZrMiBoJ6upkB5Ec5hKxNADMNlQMsuo8J7O1zVu30TQHGhNmVTWZxGvaTSL/s4P8cZN+GaLdmxrTrmqf6PpahDEJAAA5GvN1llxj7FWNYQ4e3Fn80KSw4XTlOYdHdF0ph3vZcrqfrivrkLuTR1jfPEKTHJ1+A7ow1hg553OgGLl/fcSmue5T1XsciymTGVSVx2hZrB6vabpC/LrtS7nX44jpAGhLAXrmIth4tXLzWQycIiAb0r01iaVqojNumJyceShEQqpp4Ni1gzWzHl24cKH2U6rfpVxFKIKkyfbHd6xujy7UrVj03pS29i1mspz8ztNmmhuTpv1bfd68bV134zAAMIxc4uQis1i5y7i27jnlrK5NRDz+9DPPdL7Cexci5q2qzuxZdfr0izt+Ev0pqfoxsTQAzDdEDLLqPCfztclbt9EkB1q33aM9TWP82I+qs+Y3mUihiVn9MlS7NzGmXeU+0fW1CGMSAAByM/brLDnG2Kscw0R/TPZJueLhNPGek+Py6J+DNxxs1M4c5HAvW07303Vl7Lk7eYT1zyPMy13qN2BZY46Rcz0HipGH0UdsmuuYq7oNY/9o+rmx7/3HW2+2niBi3fal3OtxxHQAtKUAPWNRoFINNCIoe+zxxwdvdN3KjtG+ycCtbkXHMRRk1AWok6sIVYOllyo3ffZlz4oK97e3L+6ayfKJU6d2rbQ0dnX9Wx14RLD/tWPHRn/xAgDWTU5xcpFRrNx1XFudJbRIydEvL93OHMT+Ur14Xp0gYFJd3yo+30ksDQDz9R2D5JrnZHWqOdD6GL9dXFu3An/fN0QP1e5NjGlXuU90fS3CmAQAgNyM/TpLjjH2qse11c+qThw4qTrpYOR0Llx4r1Vbc7Oqe9km5dCGRa1D7k4eAf0GLGvMMXKu50Ax8uosG5uOZ8w1zDG6TvtS7vU4YjoA2lKAnqn4JR6rOk6KIpWHHv6rla0oXreyY1lIU5cgXeXq5+FiwwAt2l0N5iYTuocO3bzj/+Km0K6Dv7obTQ8e3D2b5FCqs6rG963uj2PStH/rBkixf9z2+VuKO7/wxVToJrAGgNXKMU4uMomVu45r33tvd9yzTjNZVpPWs2ZOrfv57YfN6jlJLA0AzfQZg+SQ52S+pnnrtprkQOti/OqqFvPUjQl++uorS7d/Vr8M1e5NjGlXvU90eS3CmAQAgNyM/TpLjjH2qscwh6sFwjW5mFJ1nD6260o53MuW2/10y1qH3J08QjtReBTFe00euZiXu5R/AZY15hg513OgGHkYfcSmYxlzDXWMrtu+lHM9jpgOgLYUoGcogouvHfuzXQFTFKlUV8hpIxJVnzpw/dTHkbvvnvlu01Z2jHZWE57x3Hu/ursIZ0jPPfv9XZ9WN6CqzhYaQfJksFf9dzFnZaK2YrvUBZPVIHpI8X2/cf/9u75zFHx19Z2X2RfbflbT/o39Y9oqUmWxWwTW8YjA2g26ADCsXOPkIpNYueu4tppEXKaPc1TXH69OuXjy3LM7+6lu9dJ1sMyxIJYGgGb6jEFWnefMzZA5yDaa5q3baJoDrbtRIMYnbfQ18desfhmq3ZsY0656n+jyWoQxCQAAuRn7dZYcY+xVj2His6pj+LoJBKuFEl1cV8r1Xqu+LNuGHPNC65C7k0doJ94n9rUmj1zMy13KvwDLGnOMnOs5UIzcf8zXV3zc9z61SP9U96e2+9Iy1m1f6rseZxliOgDaUoCeofuOHasdDDxxavW/vOtWdox2PXF5dcdZzxtKmbirzgwZQWk1uIx+rj6vOptoUTNz00un61clmubc2XO1icQIyuLP6naNgqQhA/Y6EVRWg/hcV0Hvsn8fevjhXcF+Vew30Re/dTmoBgCGkXOcXKw4Vh4irt3a2rNEC/MTSd5d/VGTtI6+rSZ+qyuXcolYGgDm6ysGGSrPyeLa5K3r5JRj7vKGsGX7pY0m7yemXcwy26rLaxG2HwAAORvjdZZ1jbGXGcPcfviOHf+uTiBY1Ew2mON1pRzyDGO8n25Rcnc7ySPkp02OTr8BXRpbjLzO58BNj5FXFZvmvk/t27d36v9FMXWTiXbaFFyvy3irlHM9jpgOgDYUoGcmEjjVJE4pAtfvfOtbK21wBMrVQKM6q03d6o99mDbT0J1f+GJtH36zJkCqBqVxA2hd26vBbATCbYLh6J9y204+6gqoYgD3lRUW8E+qbutoc46rInXdvzEo/PFPzqR9YdasbvG5EVTnNAspAKyr3OPkYsWx8lBx7bqp9kdsq2oB2OnKv+uKxviYWBoA5usjBhEP5qOLvHWdnHLMdZ85T1/90ke7xbTtLbJPTOryWoTtBwAA3VrHGHuZMUy1HyKvMvl+dXmeHK8r5ZBnGOv9dIuQu9tJHmF1usrRyb8Am2xdz4GbHiOvMjYd6z41rc+qj+3ti43fc13GW5NyrscR0wHQ1DV6Km/xi3yyYCUCppcOn14oUErFLjNm+JkVNEyKAGPWKpMxG05uIjiq67Nq8DatX2Pmoei/yQA2EsMPdbwCSwSY0dZcxAAp2jM5Y1EEj9FPsb9Ev0wrBJulq32xrTb9G22MfTkecdydO3c23fhbN5CMPoh+mTcLFADQnRzj5GKFsfIQcW3M9Lpu6vrj9OkXd/Rf9YaQMhZeR10dC2JpAJitjxgktzxnDlaVg2xjWt56GUPkmKeNd7rSR7+0bbeYtp1l94mur0XYfgAA5GjM11nWLcZedgwTY5XJXEzkVsrvG/0z+f7zbuRvagz3WvVlkTbklheSu9tpU/II8/bDSbmshDlpXo5O/gXowlhj5HU8B4qRm+krPu5jn+qifxapE1nWuu1LfdXjdEVMB0ATCtAzFsHGQw//VXHk7j/eESjF6o6fu/lQ60Bm3769nQS88bkxa1Nd0isCoHjkItoawdC04vPqYCmComkz81ysPDcCrAieugpaX/jhD7IsZIltPdlX8WcUVS0TOHa1Lza1bP/G/hOP+M6xjzxx6nu7Av0YFERfrWsxEgDkJNc4uVhRrNxXXBv9PBnzxGfEY93inUgeT26vlKh++NL3rM6iWj5/XfURp4ulAaBelzFITnnOIUSur4mhc5BtzMpbL6pJDvRzh27eFYvFv9uMU+pW3Wq6TeaZ1i+rbvc6x7Q57RN9XIsojEkAAFihsVxnaRu/rzLGzmUME3mayYKI05dzK6k9r76y47mHDt3c6r2nGdu9VqtuQ055oXXK3ckjXNL0HNdmP8ypAH2R3KX8C9DUOsbIqz4HipGHifmGjI+72qcW6Z/qMVpcPk7rPqcsnq5atph6HfelvmLXronpAJjmaj2TpwhSn37m71IQF7+gJ0XAEcU1qzRttqCvHP3qYK0qg9a6R7QvkmD/8dabUxNh1QA0xI2dESTVPaqJ4Ph3JHibiDb94t13rjyqbYrPrc50movo52pwG4Fj3axGqzJk/8ZnPf3MM7X71TquCgoAuck9Ti5WECv3FdcePLh7Jv2m8e+YxPaa9j2rK4/G/ndwDVcHHYpYGgA+1mUMMmSec1FbW3sWemVdDnLv3m6KnfuybN56mi5yoPtqbhb6ac3+M0vdTSN1Y4eqZfplle2uWreYNqe+HeJahDEJAABD6vM6Sy7j7KFj7FzGMJGnmSzIKfMw1RxLPKfLyee6lMO9bGO+n66NMeTumpJH+NhY8wh95S4nyb8As6x7jLyKc6AYuRu5xqZD71N1+/60YzRih2hb9bGsdRhvVY2hHqdKTAfAJAXoGYoA47uP/82VopWYTac6O1AET6tMLEbb6m6SHHL184M3HKwNWuMRibC69pUiWOui/146/eJCr4v2VYuSYhbLZWd86kv0ZXXb/u2pU1m2tViyf5tug7u+9OVdP8t5EAAA62AMcXIxcKzcZ1xbt5p8xIDVmx5myTW+nVS3vcobQap9u86rn3dBLA0AzXUVg6w6z9lUXQF9k5tf6uKL3GdTXyZv3cYiOdC4QaD6mrpVuKYpZ+Ove98++2XIdm9aTLvKfaLOstcijEkAAMhJn9dZhhpn5xZj5zSGqeZrIrdSzdEcHkkxRJHJvWxju5+uibHk7pqSR/jYWPMIXeQu5V+AZYw9Rs7xHChG7sdQsWmOY66qNrFoV21at/FWkWE9jpgOgDYUoGfosccf3zUIqgtiY3XHNgOuru3Zk/eNfrOcrknsTpvZcfJR3S4ReC0SQMW2jO1cdd+xY9kGZNVZl2JweuHCeytrzyyL9u+5s2eLI3ffnR7zjq2LNf+f+82vADB2Y4mTiwFj5T7j2ujXutlcI5neRMSLEVflsCr9PLcfvmPHMyJhHbOMVvejroqF1pFYGgDa6yIGWXWes41qbBmfGTHELHU3NAw5CWrOFs2BfuXo0R3/jv2tacxeN9aK/XOIWG6Idm9qTJvbPrHotQhjEgAActP3dZa+x9m5xti5jGGq+ZrI6zz37M4VEcc0sXEO97KN8X66ecaUu2tKHuGSTc0j6DdgWWOOkXM+B4qRuzdEbJrjPlU7iforr6Zr2E10VVC9buOtUi71OGI6ANpSgJ6ZMolYtXffvqUGB+xUDUCjf6fN7Dj5iBU3571XU7Gdq0FkbNOvHfuzlRdM1YnEdqwyOinn5H7b/i3/r7g8UPqtz9+SBkt13zF+VjdA2rtvb6ffAQD4mDi5Xt9xbcRTdbPk3vmFL06dBTN+PnmxJ56f+/aIfSv6blJ1dt+hCmvGSCwNAIvpIgbJIc/Z1KFDN+965ne+9e3aG3/KmL4ac8aNQ9U+22SL5Jjr9qm4aSNi+Gn53vh5/H91ZYF4n3sr47G+9N3uTY5pc9snFrkWYUwCAECu+rzO0uc4O+cYO5cxTLV4Kvpssu9jbDO2HEYO97KN7X66ecaUu2tKHuGSTcwj6DegK2OMkXM/B4qR+9FnbJrzPlW3/WOSiHhM+97l8RTHZhfWcbxVZFKPI6YDYBHX6LXxiGDjpdOndwRPEfS/dPj0rhm76pw7ey4NFJqIROa6ij6rBkiHG/RfcTkJHIHf5DaIQLk6uGgqtulPX31lx+A13jsC9FjNMzdR3HW6pv/aGmpfbNO/8bPJ7xXBdTlYim2+tbXnyv/VJTjqZp8FAIaxqXHyEHFtJHMjbvrasWM7fl7Oghn/f/CGgxM/P1ebaI73PnjwhqxXEI9ZUSdnVK5+j+oKpeto0WNBLA0Ai1smBllVnrNpzBBtn4z/4u9xo+zkZ8bf44aiaEvElXv37kv5vGlxZZsbXjYlH942x1yu2FDtm3j9bZ+/Zce2uHhxe+bqIPH+Q93c0Xe7NzmmzXGfaHstwpgEAIBc9Xmdpc9xds4xdk5jmMOH79hVsFPqejW+HO+16ksXbeiyvxbNheV0j2KX5BE2N4+g34CujDFGzv0cKEaeb9EYua/4eIh9atH+ie0fcefkNewQRcrxiPsx49i78jnnzhY/feXVzieMWsfxVtFhPc6ixHQALEIB+sg89PBfpUHQpJgt6HM3H5q7Gl8EB9NmBtskp0+/uOvbtglCbz98eMegK/o1gtsmxU11YsAXMwdNBt0xKI5BXnWGo1WLfeyb99+/a9Df1pD7YtP+jYHQ1tbp2sHPtEH2pBwS/ACwyTYxTh4qro1/P7T9cO3MwU37Li7w5Fx8Xly+4aOaOC9FYr1uBf51s+ixIJYGgMUtE4OsKs/ZNGb4XM0qExG3H7n7j3fFDdGOeXFD3MTR5mL2JuXD2+aYY7+K/qyL8Ztsi+Ly9lg0J76oPtu96TFtbvtE22sRm779AADIW5/XWfoaZ+ceY+cyhkmrY/71vtrCga7HzDnea5VzG7rsr0VzYbndo9gleYTNzCPoN6BLY4uRx3AOFCP3p4/4eIh9apn+ie/13nsXalc0TwsDTSkMLy5f4+6iuHpdx1td1eMsSkwHwCKu1mvjEoOa6i/t+OVfN1hgtzIROyn6tM1MXXUzkdYljJsqZx2rihtPc7xBMgL2MRXfNO3fSEK88MMftC6MivePmazM5AQAq7VpcfLQcW3ESBHztJ3hNmKl2C5DrYiwjPhu05LTXc+aum7E0gCwuEVjkBzznE1EG59+5u9a/f4vV8LIfUKjVVokx1zGcG1j/Hh+xHCr2h59tVtMm98+0eZahO0HAEDu+rrO0tc4ewwxdi5jmLr8Srz3vAmyc5bDvWxju5+uaqy5uzbkETaPfgO6NqYYeSznQDFyP/qITcewT8UxEcdam+0Whetd3me3juOtYsX1OGI6ABahAH2E4pd9dWAwbyYhLqmbhSlmC22jbuWh6PtlZmqK96ubDei+Y8c6mQGqa2MoIJrUtH9j28Z3+/FPzqQB0KwAOZ4b7/l/f3JmI1bDBIAx2KQ4eRVxbTw34qQmK09OxkpDrYTQhcOH76h9l7pkNjuJpQFgcYvEILnmOZuIOCEuakfsMCsWiPZFXLHIBfBNtEiOObZF0xg//r+M91Ydw/XVbjFtfvtEm2sRtqs+m00AACAASURBVB8AALnr6zpLX+PsMcTYOYxh6oorbp+S6xmTHO5lG9v9dJPGnLtrQx5h8+g3oGtjipHHcg4UI/ejj9h0DPtUeXzEn7OKvqNNUZzc9erY6zreKlZcjyOmA6Ctqz65/8BHv3j3HR03x+uvvVb80V07Axj9BpuhOjvZwRsOjn7mLABo61MHrt/xir9/7tnixptu0o8bLGbuP3f2XEqix98jPoqE4759e1vPpJuTauy3tbXHzJ1LEEsDMEZf/sO7ip+9/vqVlt934nhx34kTvX6TTY9BxAx5KGP8c2fPXmlP7Ie5x/h9t3uT98+x7hOTnF8AAJjlsZMni8dOPnrlGb9x443F9//huUH6rM/rLH3GwTnH2OswhoExk0fYXPoNxiXnmogxxsi5nwPFyOOT8z4V+9F7F94rLly4cOX49Ht/fYjpgHWnFmIx0W8K0BtSgA4AwCYz6AIAYFOsogAdAAAAGN4qC9ABAGAV1EQAALCJ1EIsJvrt6jE2HAAAAAAAAAAAAAAAAAAAgO4pQAcAAAAAAAAAAAAAAAAAACBRgA4AAAAAAAAAAAAAAAAAAECiAB0AAAAAAAAAAAAAAAAAAIBEAToAAAAAAAAAAAAAAAAAAACJAnQAAAAAAAAAAAAAAAAAAAASBegAAAAAAAAAAAAAAAAAAAAkCtABAAAAAAAAAAAAAAAAAABIFKADAAAAAAAAAAAAAAAAAACQKEAHAAAAAAAAAAAAAAAAAAAgUYAOAAAAAAAAAAAAAAAAAABAogAdAAAAAAAAAAAAAAAAAACARAE6AAAAAAAAAAAAAAAAAAAAiQJ0AAAAAAAAAAAAAAAAAAAAEgXoAAAAAAAAAAAAAAAAAAAAJArQAQAAAAAAAAAAAAAAAAAASBSgAwAAAAAAAAAAAAAAAAAAkChABwAAAAAAAAAAAAAAAAAAIFGADgAAAAAAAAAAAAAAAAAAQKIAHQAAAAAAAAAAAAAAAAAAgEQBOgAAAAAAAAAAAAAAAAAAAIkCdAAAAAAAAAAAAAAAAAAAABIF6AAAAAAAAAAAAAAAAAAAACQK0AEAAAAAAAAAAAAAAAAAAEgUoAMAAAAAAAAAAAAAAAAAAJAoQAcAAAAAAAAAAAAAAAAAACBRgA4AAAAAAAAAAAAAAAAAAECiAB0AAAAAAAAAAAAAAAAAAIBEAToAAAAAAAAAAAAAAAAAAACJAnQAAAAAAAAAAAAAAAAAAAASBegAAAAAAAAAAAAAAAAAAAAkCtABAAAAAAAAAAAAAAAAAABIFKADAAAAAAAAAAAAAAAAAACQKEAHAAAAAAAAAAAAAAAAAAAgUYAOAAAAAAAAAAAAAAAAAABAogAdAAAAAAAAAAAAAAAAAACARAE6AAAAAAAAAAAAAAAAAAAAiQJ0AAAAAAAAAAAAAAAAAAAAEgXoAAAAAAAAAAAAAAAAAAAAJArQAQAAAAAAAAAAAAAAAAAASBSgAwAAAAAAAAAAAAAAAAAAkChABwAAAAAAAAAAAAAAAAAAIFGADgAAAAAAAAAAAAAAAAAAQKIAHQAAAAAAAAAAAAAAAAAAgEQBOgAAAAAAAAAAAAAAAAAAAIkCdAAAAAAAAAAAAAAAAAAAABIF6AAAAAAAAAAAAAAAAAAAACQK0AEAAAAAAAAAAAAAAAAAAEgUoAMAAAAAAAAAAAAAAAAAAJAoQAcAAAAAAAAAAAAAAAAAACBRgA4AAAAAAAAAAAAAAAAAAECiAB0AAAAAAAAAAAAAAAAAAIBEAToAAAAAAAAAAAAAAAAAAACJAnQAAAAAAAAAAAAAAAAAAAASBegAAAAAAAAAAAAAAAAAAAAkCtABAAAAAAAAAAAAAAAAAABIFKADAAAAAAAAAAAAAAAAAACQKEAHAAAAAAAAAAAAAAAAAAAgUYAOAAAAAAAAAAAAAAAAAABAogAdAAAAAAAAAAAAAAAAAACARAE6AAAAAAAAAAAAAAAAAAAAiQJ0AAAAAAAAAAAAAAAAAAAAEgXoAAAAAAAAAAAAAAAAAAAAJArQAQAAAAAAAAAAAAAAAAAASBSgAwAAAAAAAAAAAAAAAAAAkChABwAAAAAAAAAAAAAAAAAAIFGADgAAAAAAAAAAAAAAAAAAQKIAHQAAAAAAAAAAAAAAAAAAgEQBOgAAAAAAAAAAAAAAAAAAAIkCdAAAAAAAAAAAAAAAAAAAABIF6AAAAAAAAAAAAAAAAAAAACQK0AEAAAAAAAAAAAAAAAAAAEgUoAMAAAAAAAAAAAAAAAAAAJAoQAcAAAAAAAAAAAAAAAAAACBRgA4AAAAAAAAAAAAAAAAAAECiAB0AAAAAAAAAAAAAAAAAAIBEAToAAAAAAAAAAAAAAAAAAACJAnQAAAAAAAAAAAAAAAAAAAASBegAAAAAAAAAAAAAAAAAAAAkCtABAAAAAAAAAAAAAAAAAABIFKADAAAAAAAAAAAAAAAAAACQKEAHAAAAAAAAAAAAAAAAAAAgUYAOAAAAAAAAAAAAAAAAAABAogAdAAAAAAAAAAAAAAAAAACARAE6AAAAAAAAAAAAAAAAAAAAiQJ0AAAAAAAAAAAAAAAAAAAAEgXoAAAAAAAAAAAAAAAAAAAAJArQAQAAAAAAAAAAAAAAAAAASBSgAwAAAAAAAAAAAAAAAAAAkChABwAAAAAAAAAAAAAAAAAAIFGADgAAAAAAAAAAAAAAAAAAQKIAHQAAAAAAAAAAAAAAAAAAgEQBOgAAAAAAAAAAAAAAAAAAAIkCdAAAAAAAAAAAAAAAAAAAABIF6AAAAAAAAAAAAAAAAAAAACQK0AEAAAAAAAAAAAAAAAAAAEgUoAMAAAAAAAAAAAAAAAAAAJAoQAcAAAAAAAAAAAAAAAAAACBRgA4AAAAAAAAAAAAAAAAAAECiAB0AAAAAAAAAAAAAAAAAAIBEAToAAPD/2bcDEgAAAABB/18H7dAfAgAAAAAAAAAAAAAAwAR0AAAAAAAAAAAAAAAAAAAAJqADAAAAAAAAAAAAAAAAAAAwAR0AAAAAAAAAAAAAAAAAAIAJ6AAAAAAAAAAAAAAAAAAAAExABwAAAAAAAAAAAAAAAAAAYAI6AAAAAAAAAAAAAAAAAAAAE9ABAAAAAAAAAAAAAAAAAACYgA4AAAAAAAAAAAAAAAAAAMAEdAAAAAAAAAAAAAAAAAAAACagAwAAAAAAAAAAAAAAAAAAMAEdAAAAAAAAAAAAAAAAAACACegAAAAAAAAAAAAAAAAAAABMQAcAAAAAAAAAAAAAAAAAAGACOgAAAAAAAAAAAAAAAAAAABPQAQAAAAAAAAAAAAAAAAAAmIAOAAAAAAAAAAAAAAAAAADABHQAAAAAAAAAAAAAAAAAAAAmoAMAAAAAAAAAAAAAAAAAADABHQAAAAAAAAAAAAAAAAAAgAnoAAAAAAAAAAAAAAAAAAAATEAHAAAAAAAAAAAAAAAAAABgAjoAAAAAAAAAAAAAAAAAAAAT0AEAAAAAAAAAAAAAAAAAAJiADgAAAAAAAAAAAAAAAAAAwAR0AAAAAAAAAAAAAAAAAAAAJqADAAAAAAAAAAAAAAAAAAAwAR0AAAAAAAAAAAAAAAAAAIAJ6AAAAAAAAAAAAAAAAAAAAExABwAAAAAAAAAAAAAAAAAAYAI6AAAAAAAAAAAAAAAAAAAAE9ABAAAAAAAAAAAAAAAAAACYgA4AAAAAAAAAAAAAAAAAAMAEdAAAAAAAAAAAAAAAAAAAACagAwAAAAAAAAAAAAAAAAAAMAEdAAAAAAAAAAAAAAAAAACACegAAAAAAAAAAAAAAAAAAABMQAcAAAAAAAAAAAAAAAAAAGACOgAAAAAAAAAAAAAAAAAAABPQAQAAAAAAAAAAAAAAAAAAmIAOAAAAAAAAAAAAAAAAAADABHQAAAAAAAAAAAAAAAAAAAAmoAMAAAAAAAAAAAAAAAAAADABHQAAAAAAAAAAAAAAAAAAgAnoAAAAAAAAAAAAAAAAAAAATEAHAAAAAAAAAAAAAAAAAABgAjoAAAAAAAAAAAAAAAAAAAAT0AEAAAAAAAAAAAAAAAAAAJiADgAAAAAAAAAAAAAAAAAAwAR0AAAAAAAAAAAAAAAAAAAAJqADAAAAAAAAAAAAAAAAAAAwAR0AAAAAAAAAAAAAAAAAAIAJ6AAAAAAAAAAAAAAAAAAAAExABwAAAAAAAAAAAAAAAAAAYAI6AAAAAAAAAAAAAAAAAAAAE9ABAAAAAAAAAAAAAAAAAACYgA4AAAAAAAAAAAAAAAAAAMAEdAAAAAAAAAAAAAAAAAAAACagAwAAAAAAAAAAAAAAAAAAMAEdAAAAAAAAAAAAAAAAAACACegAAAAAAAAAAAAAAAAAAABMQAcAAAAAAAAAAAAAAAAAAGACOgAAAAAAAAAAAAAAAAAAABPQAQAAAAAAAAAAAAAAAAAAmIAOAAAAAAAAAAAAAAAAAADABHQAAAAAAAAAAAAAAAAAAAAmoAMAAAAAAAAAAAAAAAAAADABHQAAAAAAAAAAAAAAAAAAgAnoAAAAAAAAAAAAAAAAAAAATEAHAAAAAAAAAAAAAAAAAABgAjoAAAAAAAAAAAAAAAAAAAAT0AEAAAAAAAAAAAAAAAAAAJiADgAAAAAAAAAAAAAAAAAAwAR0AAAAAAAAAAAAAAAAAAAAJqADAAAAAAAAAAAAAAAAAAAwAR0AAAAAAAAAAAAAAAAAAIAJ6AAAAAAAAAAAAAAAAAAAAExABwAAAAAAAAAAAAAAAAAAYAI6AAAAAAAAAAAAAAAAAAAAE9ABAAAAAAAAAAAAAAAAAACYgA4AAAAAAAAAAAAAAAAAAMAEdAAAAAAAAAAAAAAAAAAAACagAwAAAAAAAAAAAAAAAAAAMAEdAAAAAAAAAAAAAAAAAACACegAAAAAAAAAAAAAAAAAAABMQAcAAAAAAAAAAAAAAAAAAGACOgAAAAAAAAAAAAAAAAAAABPQAQAAAAAAAAAAAAAAAAAAmIAOAAAAAAAAAAAAAAAAAADABHQAAAAAAAAAAAAAAAAAAAAmoAMAAAAAAAAAAAAAAAAAADABHQAAAAAAAAAAAAAAAAAAgAnoAAAAAAAAAAAAAAAAAAAATEAHAAAAAAAAAAAAAAAAAABgAjoAAAAAAAAAAAAAAAAAAAAT0AEAAAAAAAAAAAAAAAAAAJiADgAAAAAAAAAAAAAAAAAAwAR0AAAAAAAAAAAAAAAAAAAAJqADAAAAAAAAAAAAAAAAAAAwAR0AAAAAAAAAAAAAAAAAAIAJ6AAAAAAAAAAAAAAAAAAAAExABwAAAAAAAAAAAAAAAAAAYAI6AAAAAAAAAAAAAAAAAAAAE9ABAAAAAAAAAAAAAAAAAACYgA4AAAAAAAAAAAAAAAAAAMAEdAAAAAAAAAAAAAAAAAAAACagAwAAAAAAAAAAAAAAAAAAMAEdAAAAAAAAAAAAAAAAAACACegAAAAAAAAAAAAAAAAAAABMQAcAAAAAAAAAAAAAAAAAAGACOgAAAAAAAAAAAAAAAAAAABPQAQAAAAAAAAAAAAAAAAAAmIAOAAAAAAAAAAAAAAAAAADABHQAAAAAAAAAAAAAAAAAAAAmoAMAAAAAAAAAAAAAAAAAADABHQAAAAAAAAAAAAAAAAAAgAnoAAAAAAAAAAAAAAAAAAAATEAHAAAAAAAAAAAAAAAAAABgAjoAAAAAAAAAAAAAAAAAAAAT0AEAAAAAAAAAAAAAAAAAAJiADgAAAAAAAAAAAAAAAAAAwAR0AAAAAAAAAAAAAAAAAAAAJqADAAAAAAAAAAAAAAAAAAAwAR0AAAAAAAAAAAAAAAAAAIAJ6AAAAAAAAAAAAAAAAAAAAExABwAAAAAAAAAAAAAAAAAAYAI6AAAAAAAAAAAAAAAAAAAAE9ABAAAAAAAAAAAAAAAAAACYgA4AAAAAAAAAAAAAAAAAAMAEdAAAAAAAAAAAAAAAAAAAACagAwAAAAAAAAAAAAAAAAAAMAEdAAAAAAAAAAAAAAAAAACACegAAAAAAAAAAAAAAAAAAABMQAcAAAAAAAAAAAAAAAAAAGACOgAAAAAAAAAAAAAAAAAAABPQAQAAAAAAAAAAAAAAAAAAmIAOAAAAAAAAAAAAAAAAAADABHQAAAAAAAAAAAAAAAAAAAAmoAMAAAAAAAAAAAAAAAAAADABHQAAAAAAAAAAAAAAAAAAgAnoAAAAAAAAAAAAAAAAAAAATEAHAAAAAAAAAAAAAAAAAABgAjoAAAAAAAAAAAAAAAAAAAAT0AEAAAAAAAAAAAAAAAAAAJiADgAAAAAAAAAAAAAAAAAAwAR0AAAAAAAAAAAAAAAAAAAAJqADAAAAAAAAAAAAAAAAAAAwAR0AAAAAAAAAAAAAAAAAAIAJ6AAAAAAAAAAAAAAAAAAAAExABwAAAAAAAAAAAAAAAAAAYAI6AAAAAAAAAAAAAAAAAAAAE9ABAAAAAAAAAAAAAAAAAACYgA4AAAAAAAAAAAAAAAAAAMAEdAAAAAAAAAAAAAAAAAAAACagAwAAAAAAAAAAAAAAAAAAMAEdAAAAAAAAAAAAAAAAAACACegAAAAAAAAAAAAAAAAAAABMQAcAAAAAAAAAAAAAAAAAAGACOgAAAAAAAAAAAAAAAAAAABPQAQAAAAAAAAAAAAAAAAAAmIAOAAAAAAAAAAAAAAAAAADABHQAAAAAAAAAAAAAAAAAAAAmoAMAAAAAAAAAAAAAAAAAADABHQAAAAAAAAAAAAAAAAAAgAnoAAAAAAAAAAAAAAAAAAAATEAHAAAAAAAAAAAAAAAAAABgAjoAAAAAAAAAAAAAAAAAAAAT0AEAAAAAAAAAAAAAAAAAAJiADgAAAAAAAAAAAAAAAAAAwAR0AAAAAAAAAAAAAAAAAAAAJqADAAAAAAAAAAAAAAAAAAAwAR0AAAAAAAAAAAAAAAAAAIAJ6AAAAAAAAAAAAAAAAAAAAExABwAAAAAAAAAAAAAAAAAAYAI6AAAAAAAAAAAAAAAAAAAAE9ABAAAAAAAAAAAAAAAAAACYgA4AAAAAAAAAAAAAAAAAAMAEdAAAAAAAAAAAAAAAAAAAACagAwAAAAAAAAAAAAAAAAAAMAEdAAAAAAAAAAAAAAAAAACACegAAAAAAAAAAAAAAAAAAABMQAcAAAAAAAAAAAAAAAAAAGACOgAAAAAAAAAAAAAAAAAAABPQAQAAAAAAAAAAAAAAAAAAmIAOAAAAAAAAAAAAAAAAAADABHQAAAAAAAAAAAAAAAAAAAAmoAMAAAAAAAAAAAAAAAAAADABHQAAAAAAAAAAAAAAAAAAgAnoAAAAAAAAAAAAAAAAAAAATEAHAAAAAAAAAAAAAAAAAABgAjoAAAAAAAAAAAAAAAAAAAAT0AEAAAAAAAAAAAAAAAAAAJiADgAAAAAAAAAAAAAAAAAAwAR0AAAAAAAAAAAAAAAAAAAAJqADAAAAAAAAAAAAAAAAAAAwAR0AAAAAAAAAAAAAAAAAAIAJ6AAAAAAAAAAAAAAAAAAAAExABwAAAAAAAAAAAAAAAAAAYAI6AAAAAAAAAAAAAAAAAAAAE9ABAAAAAAAAAAAAAAAAAACYgA4AAAAAAAAAAAAAAAAAAMAEdAAAAAAAAAAAAAAAAAAAACagAwAAAAAAAAAAAAAAAAAAMAEdAAAAAAAAAAAAAAAAAACACegAAAAAAAAAAAAAAAAAAABMQAcAAAAAAAAAAAAAAAAAAGACOgAAAAAAAAAAAAAAAAAAABPQAQAAAAAAAAAAAAAAAAAAmIAOAAAAAAAAAAAAAAAAAADABHQAAAAAAAAAAAAAAAAAAAAmoAMAAAAAAAAAAAAAAAAAADABHQAAAAAAAAAAAAAAAAAAgAnoAAAAAAAAAAAAAAAAAAAATEAHAAAAAAAAAAAAAAAAAABgAjoAAAAAAAAAAAAAAAAAAAAT0AEAAAAAAAAAAAAAAAAAAJiADgAAAAAAAAAAAAAAAAAAwAR0AAAAAAAAAAAAAAAAAAAAJqADAAAAAAAAAAAAAAAAAAAwAR0AAAAAAAAAAAAAAAAAAIAJ6AAAAAAAAAAAAAAAAAAAAExABwAAAAAAAAAAAAAAAAAAYAI6AAAAAAAAAAAAAAAAAAAAE9ABAAAAAAAAAAAAAAAAAACYgA4AAAAAAAAAAAAAAAAAAMAEdAAAAAAAAAAAAAAAAAAAACagAwAAAAAAAAAAAAAAAAAAMAEdAAAAAAAAAAAAAAAAAACACegAAAAAAAAAAAAAAAAAAABMQAcAAAAAAAAAAAAAAAAAAGACOgAAAAAAAAAAAAAAAAAAABPQAQAAAAAAAAAAAAAAAAAAmIAOAAAAAAAAAAAAAAAAAADABHQAAAAAAAAAAAAAAAAAAAAmoAMAAAAAAAAAAAAAAAAAADABHQAAAAAAAAAAAAAAAAAAgAnoAAAAAAAAAAAAAAAAAAAATEAHAAAAAAAAAAAAAAAAAABgAjoAAAAAAAAAAAAAAAAAAAAT0AEAAAAAAAAAAAAAAAAAAJiADgAAAAAAAAAAAAAAAAAAwAR0AAAAAAAAAAAAAAAAAAAAJqADAAAAAAAAAAAAAAAAAAAwAR0AAAAAAAAAAAAAAAAAAIAJ6AAAAAAAAAAAAAAAAAAAAExABwAAAAAAAAAAAAAAAAAAYAI6AAAAAAAAAAAAAAAAAAAAE9ABAAAAAAAAAAAAAAAAAACYgA4AAAAAAAAAAAAAAAAAAMAEdAAAAAAAAAAAAAAAAAAAACagAwAAAAAAAAAAAAAAAAAAMAEdAAAAAAAAAAAAAAAAAACACegAAAAAAAAAAAAAAAAAAABMQAcAAAAAAAAAAAAAAAAAAGACOgAAAAAAAAAAAAAAAAAAABPQAQAAAAAAAAAAAAAAAAAAmIAOAAAAAAAAAAAAAAAAAADABHQAAAAAAAAAAAAAAAAAAAAmoAMAAAAAAAAAAAAAAAAAADABHQAAAAAAAAAAAAAAAAAAgAnoAAAAQOzbAQkAAACAoP+vg3boDwEAAAAAAAAAAAAAYAI6AAAAAAAAAAAAAAAAAAAAE9ABAAAAAAAAAAAAAAAAAACYgA4AAAAAAAAAAAAAAAAAAMAEdAAAAAAAAAAAAAAAAAAAACagAwAAAAAAAAAAAAAAAAAAMAEdAAAAAAAAAAAAAAAAAACACegAAAAAAAAAAAAAAAAAAABMQAcAAAAAAAAAAAAAAAAAAGACOgAAAAAAAAAAAAAAAAAAABPQAQAAAAAAAAAAAAAAAAAAmIAOAAAAAAAAAAAAAAAAAADABHQAAAAAAAAAAAAAAAAAAAAmoAMAAAAAAAAAAAAAAAAAADABHQAAAAAAAAAAAAAAAAAAgAnoAAAAAAAAAAAAAAAAAAAATEAHAAAAAAAAAAAAAAAAAABgAjoAAAAAAAAAAAAAAAAAAAAT0AEAAAAAAAAAAAAAAAAAAJiADgAAAAAAAAAAAAAAAAAAwAR0AAAAAAAAAAAAAAAAAAAAJqADAAAAAAAAAAAAAAAAAAAwAR0AAAAAAAAAAAAAAAAAAIAJ6AAAAAAAAAAAAAAAAAAAAExABwAAAAAAAAAAAAAAAAAAYAI6AAAAAAAAAAAAAAAAAAAAE9ABAAAAAAAAAAAAAAAAAACYgA4AAAAAAAAAAAAAAAAAAMAEdAAAAAAAAAAAAAAAAAAAACagAwAAAAAAAAAAAAAAAAAAMAEdAAAAAAAAAAAAAAAAAACACegAAAAAAAAAAAAAAAAAAABMQAcAAAAAAAAAAAAAAAAAAGACOgAAAAAAAAAAAAAAAAAAABPQAQAAAAAAAAAAAAAAAAAAmIAOAAAAAAAAAAAAAAAAAADABHQAAAAAAAAAAAAAAAAAAAAmoAMAAAAAAAAAAAAAAAAAADABHQAAAAAAAAAAAAAAAAAAgAnoAAAAAAAAAAAAAAAAAAAATEAHAAAAAAAAAAAAAAAAAABgAjoAAAAAAAAAAAAAAAAAAAAT0AEAAAAAAAAAAAAAAAAAAJiADgAAAAAAAAAAAAAAAAAAwAR0AAAAAAAAAAAAAAAAAAAAJqADAAAAAAAAAAAAAAAAAAAwAR0AAAAAAAAAAAAAAAAAAIAJ6AAAAAAAAAAAAAAAAAAAAExABwAAAAAAAAAAAAAAAAAAYAI6AAAAAAAAAAAAAAAAAAAAE9ABAAAAAAAAAAAAAAAAAACYgA4AAAAAAAAAAAAAAAAAAMAEdAAAAAAAAAAAAAAAAAAAACagAwAAAAAAAAAAAAAAAAAAMAEdAAAAAAAAAAAAAAAAAACACegAAAAAAAAAAAAAAAAAAABMQAcAAAAAAAAAAAAAAAAAAGACOgAAAAAAAAAAAAAAAAAAABPQAQAAAAAAAAAAAAAAAAAAmIAOAAAAAAAAAAAAAAAAAADABHQAAAAAAAAAAAAAAAAAAAAmoAMAAAAAAAAAAAAAAAAAADABHQAAAAAAAAAAAAAAAAAAgAnoAAAAAAAAAAAAAAAAAAAATEAHAAAAAAAAAAAAAAAAAABgAjoAAAAAAAAAAAAAAAAAAAAT0AEAAAAAAAAAAAAAAAAAAJiADgAAAAAAAAAAAAAAAAAAwAR0AAAAAAAAAAAAAAAAAAAAJqADAAAAAAAAAAAAAAAAAAAwAR0AAAAAAAAAAAAAAAAAAIAJ6AAAAAAAAAAAAAAAAAAAAExABwAAAAAAAAAAAAAAAAAAYAI6AAAAAAAAAAAAAAAAAAAAE9ABAAAAAAAAAAAAAAAAAACYgA4AAAAAAAAAAAAAAAAAAMAEdAAAAAAAAAAAAAAAAAAAACagAwAAAAAAAAAAAAAAAAAAMAEdAAAAAAAAAAAAAAAAAACACegAAAAAAAAAAAAAAAAAAABMQAcAAAAAAAAAAAAAAAAAAGACOgAAAAAAAAAAAAAAAAAAABPQAQAAAAAAAAAAAAAAAAAAmIAOAAAAAAAAAAAAAAAAGYyc5AAAIABJREFUAADABHQAAAAAAAAAAAAAAAAAAAAmoAMAAAAAAAAAAAAAAAAAADABHQAAAAAAAAAAAAAAAAAAgAnoAAAAAAAAAAAAAAAAAAAATEAHAAAAAAAAAAAAAAAAAABgAjoAAAAAAAAAAAAAAAAAAAAT0AEAAAAAAAAAAAAAAAAAAJiADgAAAAAAAAAAAAAAAAAAwAR0AAAAAAAAAAAAAAAAAAAAJqADAAAAAAAAAAAAAAAAAAAwAR0AAAAAAAAAAAAAAAAAAIAJ6AAAAAAAAAAAAAAAAAAAAExABwAAAAAAAAAAAAAAAAAAYAI6AAAAAAAAAAAAAAAAAAAAE9ABAAAAAAAAAAAAAAAAAACYgA4AAAAAAAAAAAAAAAAAAMAEdAAAAAAAAAAAAAAAAAAAACagAwAAAAAAAAAAAAAAAAAAMAEdAAAAAAAAAAAAAAAAAACACegAAAAAAAAAAAAAAAAAAABMQAcAAAAAAAAAAAAAAAAAAGACOgAAAAAAAAAAAAAAAAAAABPQAQAAAAAAAAAAAAAAAAAAmIAOAAAAAAAAAAAAAAAAAADABHQAAAAAAAAAAAAAAAAAAAAmoAMAAAAAAAAAAAAAAAAAADABHQAAAAAAAAAAAAAAAAAAgAnoAAAAAAAAAAAAAAAAAAAATEAHAAAAAAAAAAAAAAAAAABgAjoAAAAAAAAAAAAAAAAAAAAT0AEAAAAAAAAAAAAAAAAAAJiADgAAAAAAAAAAAAAAAAAAwAR0AAAAAAAAAAAAAAAAAAAAJqADAAAAAAAAAAAAAAAAAAAwAR0AAAAAAAAAAAAAAAAAAIAJ6AAAAAAAAAAAAAAAAAAAAExABwAAAAAAAAAAAAAAAAAAYAI6AAAAAAAAAAAAAAAAAAAAE9ABAAAAAAAAAAAAAAAAAACYgA4AAAAAAAAAAAAAAAAAAMAEdAAAAAAAAAAAAAAAAAAAACagAwAAAAAAAAAAAAAAAAAAMAEdAAAAAAAAAAAAAAAAAACACegAAAAAAAAAAAAAAAAAAABMQAcAAAAAAAAAAAAAAAAAAGACOgAAAAAAAAAAAAAAAAAAABPQAQAAAAAAAAAAAAAAAAAAmIAOAAAAAAAAAAAAAAAAAADABHQAAAAAAAAAAAAAAAAAAAAmoAMAAAAAAAAAAAAAAAAAADABHQAAAAAAAAAAAAAAAAAAgAnoAAAAAAAAAAAAAAAAAAAATEAHAAAAAAAAAAAAAAAAAABgAjoAAAAAAAAAAAAAAAAAAAAT0AEAAAAAAAAAAAAAAAAAAJiADgAAAAAAAAAAAAAAAAAAwAR0AAAAAAAAAAAAAAAAAAAAJqADAAAAAAAAAAAAAAAAAAAwAR0AAAAAAAAAAAAAAAAAAIAJ6AAAAAAAAAAAAAAAAAAAAExABwAAAAAAAAAAAAAAAAAAYAI6AAAAAAAAAAAAAAAAAAAAE9ABAAAAAAAAAAAAAAAAAACYgA4AAAAAAAAAAAAAAAAAAMAEdAAAAAAAAAAAAAAAAAAAACagAwAAAAAAAAAAAAAAAAAAMAEdAAAAAAAAAAAAAAAAAACACegAAAAAAAAAAAAAAAAAAABMQAcAAAAAAAAAAAAAAAAAAGACOgAAAAAAAAAAAAAAAAAAABPQAQAAAAAAAAAAAAAAAAAAmIAOAAAAAAAAAAAAAAAAAADABHQAAAAAAAAAAAAAAAAAAAAmoAMAAAAAAAAAAAAAAAAAADABHQAAAAAAAAAAAAAAAAAAgAnoAAAAAAAAAAAAAAAAAAAATEAHAAAAAAAAAAAAAAAAAABgAjoAAAAAAAAAAAAAAAAAAAAT0AEAAAAAAAAAAAAAAAAAAJiADgAAAAAAAAAAAAAAAAAAwAR0AAAAAAAAAAAAAAAAAAAAJqADAAAAAAAAAAAAAAAAAAAwAR0AAAAAAAAAAAAAAAAAAIAJ6AAAAAAAAAAAAAAAAAAAAExABwAAAAAAAAAAAAAAAAAAYAI6AAAAAAAAAAAAAAAAAAAAE9ABAAAAAAAAAAAAAAAAAACYgA4AAAAAAAAAAAAAAAAAAMAEdAAAAAAAAAAAAAAAAAAAACagAwAAAAAAAAAAAAAAAAAAMAEdAAAAAAAAAAAAAAAAAACACegAAAAAAAAAAAAAAAAAAABMQAcAAAAAAAAAAAAAAAAAAGACOgAAAAAAAAAAAAAAAAAAABPQAQAAAAAAAAAAAAAAAAAAmIAOAAAAAAAAAAAAAAAAAADABHQAAAAAAAAAAAAAAAAAAAAmoAMAAAAAAAAAAAAAAAAAADABHQAAAAAAAAAAAAAAAAAAgAnoAAAAAAAAAAAAAAAAAAAATEAHAAAAAAAAAAAAAAAAAABgAjoAAAAAAAAAAAAAAAAAAAAT0AEAAAAAAAAAAAAAAAAAAJiADgAAAAAAAAAAAAAAAAAAwAR0AAAAAAAAAAAAAAAAAAAAJqADAAAAAAAAAAAAAAAAAAAwAR0AAAAAAAAAAAAAAAAAAIAJ6AAAAAAAAAAAAAAAAAAAAExABwAAAAAAAAAAAAAAAAAAYAI6AAAAAAAAAAAAAAAAAAAAE9ABAAAAAAAAAAAAAAAAAACYgA4AAAAAAAAAAAAAAAAAAMAEdAAAAAAAAAAAAAAAAAAAACagAwAAAAAAAAAAAAAAAAAAMAEdAAAAAAAAAAAAAAAAAACACegAAAAAAAAAAAAAAAAAAABMQAcAAAAAAAAAAAAAAAAAAGACOgAAAAAAAAAAAAAAAAAAABPQAQAAAAAAAAAAAAAAAAAAmIAOAAAAAAAAAAAAAAAAAADABHQAAAAAAAAAAAAAAAAAAAAmoAMAAAAAAAAAAAAAAAAAADABHQAAAAAAAAAAAAAAAAAAgAnoAAAAAAAAAAAAAAAAAAAATEAHAAAAAAAAAAAAAAAAAABgAjoAAAAAAAAAAAAAAAAAAAAT0AEAAAAAAAAAAAAAAAAAAJiADgAAAAAAAAAAAAAAAAAAwAR0AAAAAAAAAAAAAAAAAAAAJqADAAAAAAAAAAAAAAAAAAAwAR0AAAAAAAAAAAAAAAAAAIAJ6AAAAAAAAAAAAAAAAAAAAExABwAAAAAAAAAAAAAAAAAAYAI6AAAAAAAAAAAAAAAAAAAAE9ABAAAAAAAAAAAAAAAAAACYgA4AAAAAAAAAAAAAAAAAAMAEdAAAAAAAAAAAAAAAAAAAACagAwAAAAAAAAAAAAAAAAAAMAEdAAAAAAAAAAAAAAAAAACACegAAAAAAAAAAAAAAAAAAABMQAcAAAAAAAAAAAAAAAAAAGACOgAAAAAAAAAAAAAAAAAAABPQAQAAAAAAAAAAAAAAAAAAmIAOAAAAAAAAAAAAAAAAAADABHQAAAAAAAAAAAAAAAAAAAAmoAMAAAAAAAAAAAAAAAAAADABHQAAAAAAAAAAAAAAAAAAgAnoAAAAAAAAAAAAAAAAAAAATEAHAAAAAAAAAAAAAAAAAABgAjoAAAAAAAAAAAAAAAAAAAAT0AEAAAAAAAAAAAAAAAAAAJiADgAAAAAAAAAAAAAAAAAAwAR0AAAAAAAAAAAAAAAAAAAAJqADAAAAAAAAAAAAAAAAAAAwAR0AAAAAAAAAAAAAAAAAAIAJ6AAAAAAAAAAAAAAAAAAAAExABwAAAAAAAAAAAAAAAAAAYAI6AAAAAAAAAAAAAAAAAAAAE9ABAAAAAAAAAAAAAAAAAACYgA4AAAAAAAAAAAAAAAAAAMAEdAAAAAAAAAAAAAAAAAAAACagAwAAAAAAAAAAAAAAAAAAMAEdAAAAAAAAAAAAAAAAAACACegAAAAAAAAAAAAAAAAAAABMQAcAAAAAAAAAAAAAAAAAAGACOgAAAAAAAAAAAAAAAAAAABPQAQAAAAAAAAAAAAAAAAAAmIAOAAAAAAAAAAAAAAAAAADABHQAAAAAAAAAAAAAAAAAAAAmoAMAAAAAAAAAAAAAAAAAADABHQAAAAAAAAAAAAAAAAAAgAnoAAAAAAAAAAAAAAAAAAAATEAHAAAAAAAAAAAAAAAAAABgAjoAAAAAAAAAAAAAAAAAAAAT0AEAAAAAAAAAAAAAAAAAAJiADgAAAAAAAAAAAAAAAAAAwAR0AAAAACD27qBHivPMA3gFcQ3zAWyIo+Q4XIPFIFvOjUG2orVXAYfIN4M1MeHiIBGfIozkzcWxjTzmhjIxREpWli2a20a2jBcsrbSrGS2XSImw8wEgHyCr5wnFdldXz1R3V/fUzPx+Ugump/utqrdqLvU+/3oAAAAAAAAAAAAAIAmgAwAAAAAAAAAAAAAAAAAAkATQAQAAAAAAAAAAAAAAAAAASALoAAAAAAAAAAAAAAAAAAAAJAF0AAAAAAAAAAAAAAAAAAAAkgA6AAAAAAAAAAAAAAAAAAAASQAdAAAAAAAAAAAAAAAAAACAJIAOAAAAAAAAAAAAAAAAAABAEkAHAAAAAAAAAAAAAAAAAAAgCaADAAAAAAAAAAAAAAAAAACQBNABAAAAAAAAAAAAAAAAAABIAugAAAAAAAAAAAAAAAAAAAAkAXQAAAAAAAAAAAAAAAAAAACSADoAAAAAAAAAAAAAAAAAAABJAB0AAAAAAAAAAAAAAAAAAIAkgA4AAAAAAAAAAAAAAAAAAEASQAcAAAAAAAAAAAAAAAAAACAJoAMAAAAAAAAAAAAAAAAAAJAE0AEAAAAAAAAAAAAAAAAAAEgC6AAAAAAAAAAAAAAAAAAAACQBdAAAAAAAAAAAAAAAAAAAAJIAOgAAAAAAAAAAAAAAAAAAAEkAHQAAAAAAAAAAAAAAAAAAgCSADgAAAAAAAAAAAAAAAAAAQBJABwAAAAAAAAAAAAAAAAAAIAmgAwAAAAAAAAAAAAAAAAAAkATQAQAAAAAAAAAAAAAAAAAASALoAAAAAAAAAAAAAAAAAAAAJAF0AAAAAAAAAAAAAAAAAAAAkgA6AAAAAAAAAAAAAAAAAAAASQAdAAAAAAAAAAAAAAAAAACAJIAOAAAAAAAAAAAAAAAAAABAEkAHAAAAAAAAAAAAAAAAAAAgCaADAAAAAAAAAAAAAAAAAACQBNABAAAAAAAAAAAAAAAAAABIAugAAAAAAAAAAAAAAAAAAAAkAXQAAAAAAAAAAAAAAAAAAACSADoAAAAAAAAAAAAAAAAAAABJAB0AAAAAAAAAAAAAAAAAAIAkgA4AAAAAAAAAAAAAAAAAAEASQAcAAAAAAAAAAAAAAAAAACAJoAMAAAAAAAAAAAAAAAAAAJAE0AEAAAAAAAAAAAAAAAAAAEgC6AAAAAAAAAAAAAAAAAAAACQBdAAAAAAAAAAAAAAAAAAAAJIAOgAAAAAAAAAAAAAAAAAAAEkAHQAAAAAAAAAAAAAAAAAAgCSADgAAAAAAAAAAAAAAAAAAQBJABwAAAAAAAAAAAAAAAAAAIAmgAwAAAAAAAAAAAAAAAAAAkATQAQAAAAAAAAAAAAAAAAAASALoAAAAAAAAAAAAAAAAAAAAJAF0AAAAAAAAAAAAAAAAAAAAkgA6AAAAAAAAAAAAAAAAAAAASQAdAAAAAAAAAAAAAAAAAACAJIAOAAAAAAAAAAAAAAAAAABAEkAHAAAAAAAAAAAAAAAAAAAgCaADAAAAAAAAAAAAAAAAAACQBNABAAAAAAAAAAAAAAAAAABIAugAAAAAAAAAAAAAAAAAAAAkAXQAAAAAAAAAAAAAAAAAAACSADoAAAAAAAAAAAAAAAAAAABJAB0AAAAAAAAAAAAAAAAAAIAkgA4AAAAAAAAAAAAAAAAAAEASQAcAAAAAAAAAAAAAAAAAACAJoAMAAAAAAAAAAAAAAAAAAJAE0AEAAAAAAAAAAAAAAAAAAEgC6AAAAAAAAAAAAAAAAAAAACQBdAAAAAAAAAAAAAAAAAAAAJIAOgAAAAAAAAAAAAAAAAAAAEkAHQAAAAAAAAAAAAAAAAAAgLTfNAAAAOO69KtfFd/+9gHzBgDArnPv3j0nFQAAAAAAAAAAgD1NAB0AABjbvf8VygEAAAAAAAAAAAAAANiN9jmrAAAAAAAAAAAAAAAAAAAAFALoAAAAAAAAAAAAAAAAAAAAlPabCQAAYFz/8tKLxZNPPmneAADYdf74hz8Uf/vmb04sAAAAAAAAAAAAe5YAOgAAMLYXX3qpOPL00yYOAIBd585/3hFABwAAgD3o3r17xcs/PunUAwCwa/397w+dXAAAoDEBdAAAAAAAAAAAAPa0vz98WHx19+5enwYAAAAAAEj7TAMAAAAAAAAAAAAAAAAAAACFADoAAAAAAAAAAAAAAAAAAACl/WYCAAAAAAAAAACAveyJJ54oXvzXl1wDAADsWt98803x73/4oxMMAAA0IoAOAAAAAAAAAADAnvbEk08W586f3+vTAADALnb3zh0BdAAAoLF9pgoAAAAAAAAAAAAAAAAAAIBCAB0AAAAAAAAAAAAAAAAAAICSADoAAAAAAAAAAAAAAAAAAABJAB0AAAAAAAAAAAAAAAAAAIAkgA4AAAAAAAAAAAAAAAAAAEASQAcAAAAAAAAAAAAAAAAAACAJoAMAAAAAAAAAAAAAAAAAAJAE0AEAAAAAAAAAAAAAAAAAAEgC6AAAAAAAAAAAAAAAAAAAACQBdAAAAAAAAAAAAAAAAAAAAJIAOgAAAAAAAAAAAAAAAAAAAEkAHQAAAAAAAAAAAAAAAAAAgCSADgAAAAAAAAAAAAAAAAAAQBJABwAAAAAAAAAAAAAAAAAAIAmgAwAAAAAAAAAAAAAAAAAAkATQAQAAAAAAAAAAAAAAAAAASALoAAAAAAAAAAAAAAAAAAAAJAF0AAAAAAAAAAAAAAAAAAAAkgA6AAAAAAAAAAAAAAAAAAAASQAdAAAAAAAAAAAAAAAAAACAJIAOAAAAAAAAAAAAAAAAAABAEkAHAAAAAAAAAAAAAAAAAAAg7TcNAADAdvvwg9WBPVhYWChOvnxq07168OBBceOj60PvLx4+XCwdWxp4rzp+U+V+3LrZK+7fv7/ldkap236MG+OPq+mxxP4tLBzIf5uadp42c/uL28WXt78oNtbXH3/qwMJCsbj4z3kcZz9LMVY5btXRpWNjjfv1/ftF72Zv4L2m57jp9TvLc1ennJ+NjfXi4YMHA58YZ35mdV3M4poAAAAAAICua+P+/SRra218t/T6ykrtvp957exY49StQUy6frF8Yrk4eOjQtmxj1LE0UTf/bZyjKusyAAAAAMC4vvW97zz1jz//9S8mbgt379wpfnJy8CaueQMAYK/4/lPfHTjS3924Xhx5+unWjr46fhQ5XFtb2/Q7UdhyqyYwfG3tt0PB7ur4TZX7EQUZr5w+PfCtKC750+efbTlS3XePn1gu3rtyZaJ9GvdYyoKUV8+e3TLwPu081Ykiljcv/nKgmKVOnLszZ8/m3GwlzvuHq6tbjlk8Ok+/uHBhy3HrztMbFy40KpRqev3O8tz1i2O5uvpB/ruVmJ+Y982Kltq+LmZxTQBAm17+8cniq7t3H4947vzPi3Pnz5tjAAAA2GXefeed4t13fvP4oH5w5Ejx0e9vzOwg27x/P8naWhvfLUasqRSP1jX+63/+u/E4xYg1iFgf+PjTT8b+bhxD3YOF57GNUdtpom7+pz1H/azLAAD9ZCIAANiLZp2F2K1i3vbt9UkAAAB2nnjqfzV8HkUt7115f6Ku4luJoo5qMUl0zK7rwF4VhURVEYiel+gUH/P1w2eeHZqzWYvtvXL6p42C4vGZeKhAvB5UOmb0e/PixfxMkzHL89Rk3C6a5Nz9+u23s+irSfFaOT/lnM5jfmZxTQAAAAAAQNd1/f79OG71btZ+OvazjbWoWB+YtJt4l7bRBdZlAAAAAIBpCKADAAA7ShRKRJFOvwidR+fz6AYxK6+efW1o5BvXNw+gRxFRtZAoOlXMcj9HiUKRuq7xs9xeFEaNW6BSFsLU+dHzLzQK/W827k4smGl67mK+Jy2Wmsf8zOKaAAAAAACAruv6/ftxxH5stlbTGxFOH9fV1dWZH/M8trGdrMsAAAAAANPabwYBAICdIp68H4USVW9cuFAsHj7c+Cjis2806EK+sHDg8f/LLuj9gfLYn/i52h29dOP6R0PvnTl7ttXZHnUssW8RkI8OGf1i/o4eW2rUKX6SeSpF8VG1oCXGi+M/8GjbsW8bG+tDhUonT50aGi8eOlDXnSHm/vjyiQz1x//jMxvrG9l9oxr+j9/FOJcuX97ymOahzXMXx1VX8BXzEvPZ//cR49/q9YbmM7f70fXizGubX6OTXhdtXxMAAAAAANB187x/Pw/VY4nj6F/PiPDy1xfuT/0w5lhPmPWazqy3Mc06WxusywAAAAAA0xJABwAAdoR/PqX/l0OFElG4EV3FxxGFHKNC45uJApTnnnl24BNXVz+oHSsKNqodq6MwqO3u56OOJd6L7VU7Z8f8xc9N5mzSeQpRINUvjju61A+Gp2PsU1no8vrKz7KAKua4um8RJK/rDFL32SiciVe8H8UyUTjUf83Ee0tLx4rjJ5YnOq42tXXuYt7q5if+NuqK0crxY6yy80Wcl1fPnm1UvDbpddHmNQEAAAAAAF037/v381C91x9B5Qgw969n9G72WtnfWNOJhxBPula13duYZp2tDdZlAAAAAIBp7TODAADATnBuZWWo40MUP8yz4Ca7UdSEo+s6c3+4OlhQVBYIzdsv6jpsbwzvb9uqc7J8Ynlk1/Wy4OW9K1dqC1oi5F/V5MED8fu6zhL/9vbbcz8Pk2h67n5dczyjitf6RQg/5j2Knz7+9JOZ/y21eU0AAAAAAEDX7ZT7903Fff66e/3x4N9+N64Pd3xvqromUDeH05rHNrrAugwAAAAAMC0BdAAAoPOi8COC3v2i6CaewD9vZ2pC5NVCmuh+Hh0T+kX4fFRRxyzVdVyP/Zv3dqvnryrmpq4reexr9bvR4bxpsVUUyVS7S8SYdQ8N6Jom565ufsoOKU3EXF5bW2u9M3+dtq4JAAAAAADoup10/76p6npYHE/58Ob+NbC6Y28qOqr3jzWqi/w05rGNLrAuAwAAAABMSwAdAADotAhyV4s+oujm3StXtmW367qgxz72B4Prup93qVvAgTkE4RcPLw78HMU7r6+sjB1+793sDb0XhUHjOL58YujTkxY+bbfquaufn5c7ue9tXRMAAAAAANB1O+n+fRMPHjwoblWOqX/9pRpcvtW7OeF2HuZDnftdXV3N7bd3LLPfRhdYlwEAAAAApiWADgAAdFYUQkT3834R5r50+a1t6SZequuCXobO6wpwtqv7efEoHF+1uHh45tutK6KKeXnumWeLHz3/Qj5UoEmBy9dfD3+m2tF8K3XdGr68/cVYY2yHJueubn662p2irWsCAAAAAAC6bt737yNUHQ/fbfKaRNzPrwa0+49naenYwO9ijWPSQHe1o3qMU10vnNY8trHdrMsAAAAAANPabwYBAIAuikKP11d+NlScEmHu6IA+jSiu+f5T3x05QgScr62tjfx92QW9PyAc/3/jwoWhgpr47JnXhgPr8xDHWVcss9ywwGmaeYrfVeeoFA8WKB8ukHN56tRQoU+prvAlvjOO7XxYwaSanrvq/Ez7t9HEpNdFW9cEAAAAAAB03bzv38c99ldOn57Z+NWO5hE+77+Hnz9fXBhYI4v1gEnWyGLcWHN78+LFgbFi7aCteZzHNqZdj5yWdRkAAAAAYFo6oAMAAJ10bmWlNnx8dXV14o4Jbarrgh77dvVRJ/RS3efatLG+kQVF1Vd0L4h/q3MVhT7jBrgndeny5Sze2Uyc4yhu+eEzz2anhVmZRzB7XLM4dwsLB7pzgDW6dE0AAAAAAMC8dP3+/Wbivn21c3q143lR0+H9Vq838TYjDB0B6n6z6II+621sN+syAAAAAMA0BNABAIDOiSKWaiFLKUK5/d0ItksEgasFG1GUUe1+HsUrsxTbK+er/1UX3o8Q9qszDsRXRWj6T59/tmXXhDiOKG6ZVXeOuvnYbl0/d7PSlWsCAAAAAADY2o3rgx20495+3frX8eUTAz+XXbYnVV2HizWUum7e05jHNrabdRkAAAAAYFL7zRwAANB1UQzRH+y+dbNX3FruDXVSaCqD4adGB8M3K77oF4Uam3Vkj64CXREFNFFgsh3zFOPEXMQrzt3GxnrRu9mrDVpHYU8Ut2zVjWFcXeiaP6lxzl10VZ+1Nq6LLlwTAAAAAAAwL7O+f7/Vvft+43b5rgayR63PRTfx2I/+e/0RXr90+PBY2yvFw3ljfaS/K3fse2w/1iJie6MeaN2FbbS1ztYG6zIAAAAAwCQE0AEAgE6Lwo9Ll98qXjn904EQcXRBP3psaaLijEOHDo4dxq4T246u1HWFOlGQEq/tFgUlH3/6ybbOU78o2IlXFK1EAcvV1Q+GCneiyCfmNfb56NKxod/Hz+PMbV13jZiXWWlr7CbnLv4++ucn/kbiNcuipbavi3GvCQAAAAAA6Lp5378f5979OAH0CJ9XH/IbxzWqS/bDymcj7Bz3/yc97lgb6N+H+DceDt1mOHpW25jFOlsbrMsAAAAAAE3tM1MAAEBXRQD32tpvs0gnihz6RfFHhNC3W3RBryu+ePXsa3PZswhi//mvf3n8qnadiM4F1c4UXRH7fm1trbZTRtkJ5FBNmPvL21+MdQR1nSkWFwe7bSwsHJhoVuo6Qxw82CyA3sa5qx5H8aiYa6dqck0AAAAAAEDX7Zb797dr1mRi/SLWXupe1bB6/DzNcccaXDUIHuHouvWZLm+jq6zLAAAAAACbEUAHAAA6KYo93rvy/uNwd3QIqHa9joKV7S7Wif2LEHrVdnU/v3T58lAgPjpZ1IWwZ63pNk+eennovbKoJwpeqsdT121jlLJLRVW1kCYeclDVJOhed4yTdoOY5NwdPbY09J0PV1cbz08xxnlqQxvXBAAAAAAAdN1Ou39fJ+5vHumkAAAgAElEQVTLt7EOd6t3c6rvxzpcdd3tw5q1n65vYztYlwEAAAAApiGADgAAdNK7V64MhYLrArrRBX2cYp1ZOHBgssDxLMT8xNxVnVtZmWuhyMb6evHK6dP52ur8PKz5ff95nqb7fd31MaprfTWUHkU5cRybqSuamvThA5Ocu/hOXef0CK43EWH+OEdN53MabV4TAAAAAADQZTvp/v0ovZrweayBbPWqru/Fesu0a1TVDuUxP/fvfz3VmNuxjXmyLgMAAAAATEsAHQAA6JyycKXq4KFDU4WR94qYu2qRTMzT6ys/m0tYv9xW8aio6IfPPFt8+MFqbXFRvFfXQeLgoYOP/18XGI+OG1EwM6pgKd6P31c7c8Q4ZyrXUGlp6djQe29e/GVtCL287qqdI6KYLK7TSU1y7uLzdV3if/T8CyM7W8T7/YVr8flZ/h21fU0AAAAAAEDX7YT795u5cf36wG9j/ePa2tqWr/euvD80anWscUWo/cxrg+s7bT94eR7bmBfrMgAAAABAG/abRQAAYCeJwo9bvd5AKDhCxreWe0OdJEbZWN/I4p0molBmJ4p5+vL2FwMFTDFn0VkjOsnPcp5iG/0FLFHkEu/FK4p3FhYOPP5dXYFVtTtG2Rm8ui/x3eeeeTY/u3h4sTh48FDx8OGDTTuXx7GPCohH0D0KoPq/G/+PQrD+bcS8xtzUBcJHhdvHMe65i/mJ919fWRl4v+xsEb+Pff//9+v3PYrYFhcP5zxsZpLrou1rAgAAAAAAum7e9+/bFGtv1bDycsN1uFiHiXv6/estcQzVB/COKx5S3avZrza1uY021yObjnV8+UReJ9ZlAAAAAIA2CKADAAA7zqXLb2UouF90fzh6bGmok0SdKLIY1VliN4nQdnQ06C9WigKfCFFXOzi0OU9RBLWw0KstkhoVDO9XV4AUhS5RpFXX5SPGbDJufH+rhxTEtfXK6Z8O7XuTbcT4bRXjjHvu4rguPaifn6bnMQqSmhSvTXJdzOKaAAAAAACArpvn/fs29Xo3h/fjVPN9OL68PHD/P441Qu1NHyZdJ9YAf3HhwlCgv01tbqPN9cimYx1dOpb/WpcBAAAAANqwzywCAAA7TYR8q4UPUUBRV7yzl5Wdw6uiu8EsA/hRBPXxp5+MXQwV+xsdHkaFuMtxR3UwHyU+H+M22Z/Y9rW1344VJC87mLRZ/DXJuYvtx3GOOz+xrfh7atoZfxKzuiYAAAAAAKDrunz/vk4ZFu8X9+nH2f+6bul1ofZxRYA9Hlo8S/PYxqxZlwEAAAAA2iCADgAA7EhRMFEtdIlimGpBzF4XBTJ1XQrOrawUX9+/P7PZiXMTBVF/+vyz7Ni9WaFKfDb28T8+/2zLgp4YJ8Zs0m08fl/uwziFQvG9KMqJ7272vdjvOLZJCniamOTcxXeazk//vDfpiD+tWV0TAAAAAADQdV2+f19146PrQ+9FR/NxxDFU7+/HGl4ba1PzCOTPO/Q/C9ZlAAAAAIBpfet733nqH3/+619M5Bbu3rlT/OTkYKDAvAEAsFd8/6nvDhzp725cL448/bTzz9iq3bsXDy9mN4VJRReOjfWNYmN9vW/Mw8WhQwfH7iSymbb3e17K+YmCrvh/7HPMS9vzM42dOrcA7F4v//hk8dXdu4+P79z5nxfnzp93xgEAAGCXefedd4p33/nN44P6wZEjxUe/vzGXg9wJ9+/ZnazLAMDeJhMBAMBeJAsxmZi3/TtxxwEAANiZ2u6aEAUxMeasuzHs1G4P5fwURXf3XycNAAAAAAD2mp1w/57dyboMAAAAANDUPjMFAAAAAAAAAAAAAAAAAABAIYAOAAAAAAAAAAAAAAAAAABASQAdAAAAAAAAAAAAAAAAAACAJIAOAAAAAAAAAAAAAAAAAABAEkAHAAAAAAAAAAAAAAAAAAAgCaADAAAAAAAAAAAAAAAAAACQBNABAAAAAAAAAAAAAAAAAABIAugAAAAAAAAAAAAAAAAAAAAkAXQAAAAAAAAAAAAAAAAAAACSADoAAAAAAAAAAAAAAAAAAABJAB0AAAAAAAAAAAAAAAAAAIAkgA4AAAAAAAAAAAAAAAAAAEASQAcAAAAAAAAAAAAAAAAAACAJoAMAAAAAAAAAAAAAAAAAAJAE0AEAAAAAAAAAAAAAAAAAAEgC6AAAAAAAAAAAAAAAAAAAACQBdAAAAAAAAAAAAAAAAAAAAJIAOgAAAAAAAAAAAAAAAAAAAEkAHQAAAAAAAAAAAAAAAAAAgCSADgAAAAAAAAAAAAAAAAAAQBJABwAAAAAAAAAAAAAAAAAAIAmgAwAAAAAAAAAAAAAAAAAAkATQAQAAAAAAAAAAAAAAAAAASALoAAAAAAAAAAAAAAAAAAAAJAF0AAAAAAAAAAAAAAAAAAAAkgA6AAAAAAAAAAAAAAAAAAAASQAdAAAAAAAAAAAAAAAAAACAJIAOAAAAAAAAAAAAAAAAAABAEkAHAAAAAAAAAAAAAAAAAAAgCaADAAAAAAAAAAAAAAAAAACQBNABAAAAAAAAAAAAAAAAAABIAugAAAAAAAAAAAAAAAAAAAAkAXQAAAAAAAAAAAAAAAAAAACSADoAAAAAAAAAAAAAAAAAAABJAB0AAAAAAAAAAAAAAAAAAIAkgA4AAAAAAAAAAAAAAAAAAEASQAcAAAAAAAAAAAAAAAAAACAJoAMAAAAAAAAAAAAAAAAAAJAE0AEAAAAAAAAAAAAAAAAAAEgC6AAAAAAAAAAAAAAAAAAAACQBdAAAAAAAAAAAAAAAAAAAAJIAOgAAAAAAAAAAAAAAAAAAAEkAHQAAAAAAAAAAAAAAAAAAgCSADgAAAAAAAAAAAAAAAAAAQBJABwAAAAAAAAAAAAAAAAAAIAmgAwAAAAAAAAAAAAAAAAAAkATQAQAAAAAAAAAAAAAAAAAASALoAAAAAAAAAAAAAAAAAAAAJAF0AAAAAAAAAAAAAAAAAAAAkgA6AAAAAAAAAAAAAAAAAAAASQAdAAAAAAAAAAAAAAAAAACAJIAOAAAAAAAAAAAAAAAAAABAEkAHAAAAAAAAAAAAAAAAAAAgCaADAAAAAAAAAAAAAAAAAACQBNABAAAAAAAAAAAAAAAAAABIAugAAAAAAAAAAAAAAAAAAAAkAXQAAAAAAAAAAAAAAAAAAACSADoAAAAAAAAAAAAAAAAAAABJAB0AAAAAAAAAAAAAAAAAAIAkgA4AAAAAAAAAAAAAAAAAAEASQAcAAAAAAAAAAAAAAAAAACAJoAMAAAAAAAAAAAAAAAAAAJAE0AEAAAAAAAAAAAAAAAAAAEgC6AAAAAAAAAAAAAAAAAAAACQBdAAAAAAAAAAAAAAAAAAAAJIAOgAAAAAAAAAAAAAAAAAAAEkAHQAAAAAAAAAAAAAAAAAAgCSADgAAAAAAAAAAAAAAAAAAQBJABwAAAAAAAAAAAAAAAAAAIAmgAwAAAAAAAAAAAAAAAAAAkATQAQAAAAAAAAAAAAAAAAAASALoAAAAAAAAAAAAAAAAAAAAJAF0AAAAAAAAAAAAAAAAAAAAkgA6AAAAAAAAAAAAAAAAAAAASQAdAAAAAAAAAAAAAAAAAACAJIAOAAAAAAAAAAAAAAAAAABAEkAHAAAAAAAAAAAAAAAAAAAgCaADAAAAAAAAAAAAAAAAAACQBNABAAAAAAAAAAAAAAAAAABIAugAAAAAAAAAAAAAAAAAAAAkAXQAAAAAAAAAAAAAAAAAAACSADoAAAAAAAAAAAAAAAAAAABJAB0AAAAAAAAAAAAAAAAAAIAkgA4AAAAAAAAAAAAAAAAAAEASQAcAAAAAAAAAAAAAAAAAACAJoAMAAAAAAAAAAAAAAAAAAJAE0AEAAAAAAAAAAAAAAAAAAEgC6AAAAAAAAAAAAAAAAAAAACQBdAAAAAAAAAAAAAAAAAAAAJIAOgAAAAAAAAAAAAAAAAAAAEkAHQAAAAAAAAAAAAAAAAAAgCSADgAAAAAAAAAAAAAAAAAAQBJABwAAAAAAAAAAAAAAAAAAIAmgAwAAAAAAAAAAAAAAAAAAkATQAQAAAAAAAAAAAAAAAAAASALoAAAAAAAAAAAAAAAAAAAAJAF0AAAAAAAAAAAAAAAAAAAAkgA6AAAAAAAAAAAAAAAAAAAASQAdAAAAAAAAAAAAAAAAAACAJIAOAAAAAAAAAAAAAAAAAABAEkAHAAAAAAAAAAAAAAAAAAAgCaADAAAAAPB/7NsBCQAAAICg/6+DdugPAQAAAAAAAAAAACagAwAAAAAAAAAAAAAAAAAAMAEdAAAAAAAAAAAAAAAAAACACegAAAAAAAAAAAAAAAAAAABMQAcAAAAAAAAAAAAAAAAAAGACOgAAAAAAAAAAAAAAAAAAABPQAQAAAAAAAAAAAAAAAAAAmIAOAAAAAAAAAAAAAAAAAADABHQAAAAAAAAAAAAAAAAAAAAmoAMAAAAAAAAAAAAAAAAAADABHQAAAAAAAAAAAAAAAAAAgAnoAAAAAAAAAAAAAAAAAAAATEAHAAAAAAAAAAAAAAAAAABgAjoAAAAAAAAAAAAAAAAAAAAT0AEAAAAAAAAAAAAAAAAAAJiADgAAAAAAAAAAAAAAAAAAwAR0AAAAAAAAAAAAAAAAAAAAJqADAAAAAAAAAAAAAAAAAAAwAR0AAAAAAAAAAAAAAAAAAIAJ6AAAAAAAAAAAAAAAAAAAAExABwAAAAAAAAAAAAAAAAAAYAI6AAAAAAAAAAAAAAAAAAAAE9ABAAAAAAAAAAAAAAAAAACYgA4AAAAAAAAAAAAAAAAAAMAEdAAAAAAAAAAAAAAAAAAAACagAwAAAAAAAAAAAAAAAAAAMAEdAAAAAAAAAAAAAAAAAACACegAAAAAAAAAAAAAAAAAAABMQAcAAAAAAAAAAAAAAAAAAGACOgAAAAAAAAAAAAAAAAAAABPQAQAAAAAAAAAAAAAAAAAAmIAOAAAAAAAAAAAAAAAAAADABHQAAAAAAAAAAAAAAAAAAAAmoAMAAAAAAAAAAAAAAAAAADABHQAAAAAAAAAAAAAAAAAAgAnoAAAAAAAAAAAAAAAAAAAATEAHAAAAAAAAAAAAAAAAAABgAjoAAAAAAAAAAAAAAAAAAAAT0AEAAAAAAAAAAAAAAAAAAJiADgAAAAAAAAAAAAAAAAAAwAR0AAAAAAAAAAAAAAAAAAAAJqADAAAAAAAAAAAAAAAAAAAwAR0AAAAAAAAAAAAAAAAAAIAJ6AAAAAAAAAAAAAAAAAAAAExABwAAAAAAAAAAAAAAAAAAYAI6AAAAAAAAAAAAAAAAAAAAE9ABAAAAAAAAAAAAAAAAAACYgA4AAAAAAAAAAAAAAAAAAMAEdAAAAAAAAAAAAAAAAAAAACagAwAAAAAAAAAAAAAAAAAAMAEdAAAAAAAAAAAAAAAAAACACegAAAAAAAAAAAAAAAAAAABMQAcAAAAAAAAAAAAAAAAAAGACOgAAAAAAAAAAAAAAAAAAABPQAQAAAAAAAAAAAAAAAAAAmIAOAAAAAAAAAAAAAAAAAADABHQAAAAAAAAAAAAAAAAAAAAmoAMAAAAAAAAAAAAAAAAAADABHQAAAAAAAAAAAAAAAAAAgAnoAAAAAAAAAAAAAAAAAAAATEAHAAAAAAAAAAAAAAAAAABgAjoAAAAAAAAAAAAAAAAAAAAT0AEAAAAAAAAAAAAAAAAAAJiADgAAAAAAAAAAAAAAAAAAwAR0AAAAAAAAAAAAAAAAAAAAJqADAAAAAAAAAAAAAAAAAAAwAR0AAAAAAAAAAAAAAAAAAIAJ6AAAAAAAAAAAAAAAAAAAAExABwAAAAAAAAAAAAAAAAAAYAI6AAAAAAAAAAAAAAAAAAAAE9ABAAAAAAAAAAAAAAAAAACYgA4AAAAAAAAAAAAAAAAAAMAEdAAAAAAAAAAAAAAAAAAAACagAwAAAAAAAAAAAAAAAAAAMAEdAAAAAAAAAAAAAAAAAACACegAAAAAAAAAAAAAAAAAAABMQAcAAAAAAAAAAAAAAAAAAGACOgAAAAAAAAAAAAAAAAAAABPQAQAAAAAAAAAAAAAAAAAAmIAOAAAAAAAAAAAAAAAAAADABHQAAAAAAAAAAAAAAAAAAAAmoAMAAAAAAAAAAAAAAAAAADABHQAAAAAAAAAAAAAAAAAAgAnoAAAAAAAAAAAAAAAAAAAATEAHAAAAAAAAAAAAAAAAAABgAjoAAAAAAAAAAAAAAAAAAAAT0AEAAAAAAAAAAAAAAAAAAJiADgAAAAAAAAAAAAAAAAAAwAR0AAAAAAAAAAAAAAAAAAAAJqADAAAAAAAAAAAAAAAAAAAwAR0AAAAAAAAAAAAAAAAAAIAJ6AAAAAAAAAAAAAAAAAAAAExABwAAAAAAAAAAAAAAAAAAYAI6AAAAAAAAAAAAAAAAAAAAE9ABAAAAAAAAAAAAAAAAAACYgA4AAAAAAAAAAAAAAAAAAMAEdAAAAAAAAAAAAAAAAAAAACagAwAAAAAAAAAAAAAAAAAAMAEdAAAAAAAAAAAAAAAAAACACegAAAAAAAAAAAAAAAAAAABMQAcAAAAAAAAAAAAAAAAAAGACOgAAAAAAAAAAAAAAAAAAABPQAQAAAAAAAAAAAAAAAAAAmIAOAAAAAAAAAAAAAAAAAADABHQAAAAAAAAAAAAAAAAAAAAmoAMAAAAAAAAAAAAAAAAAADABHQAAAAAAAAAAAAAAAAAAgAnoAAAAAAAAAAAAAAAAAAAATEAHAAAAAAAAAAAAAAAAAABgAjoAAAAAAAAAAAAAAAAAAAAT0AEAAAAAAAAAAAAAAAAAAJiADgAAAAAAAAAAAAAAAAAAwAR0AAAAAAAAAAAAAAAAAAAAJqADAAAAAAAAAAAAAAAAAAAwAR0AAAAAAAAAAAAAAAAAAIAJ6AAAAAAAAAAAAAAAAAAAAExABwAAAAAAAAAAAAAAAAAAYAI6AAAAAAAAAAAAAAAAAAAAE9ABAAAAAAAAAAAAAAAAAACYgA4AAAAAAAAAAAAAAAAAAMAEdAAAAAAAAAAAAAAAAAAAACagAwAAAAAAAAAAAAAAAAAAMAEdAAAAAAAAAAAAAAAAAACACegAAAAAAAAAAAAAAAAAAABMQAcAAAAAAAAAAAAAAAAAAGACOgAAAAAAAAAAAAAAAAAAABPQAQAAAAAAAAAAAAAAAAAAmIAOAAAAAAAAAAAAAAAAAADABHQAAAAAAAAAAAAAAAAAAAAmoAMAAAAAAAAAAAAAAAAAADABHQAAAAAAAAAAAAAAAAAAgAnoAAAAAAAAAAAAAAAAAAAATEAHAAAAAAAAAAAAAAAAAABgAjoAAAAAAAAAAAAAAAAAAAAT0AEAAAAAAAAAAAAAAAAAAJiADgAAAAAAAAAAAAAAAAAAwAR0AAAAAAAAAAAAAAAAAAAAJqADAAAAAAAAAAAAAAAAAAAwAR0AAAAAAAAAAAAAAAAAAIAJ6AAAAAAAAAAAAAAAAAAAAExABwAAAAAAAAAAAAAAAAAAYAI6AAAAAAAAAAAAAAAAAAAAE9ABAAAAAAAAAAAAAAAAAACYgA4AAAAAAAAAAAAAAAAAAMAEdAAAAAAAAAAAAAAAAAAAACagAwAAAAAAAAAAAAAAAAAAMAEdAAAAAAAAAAAAAAAAAACACegAAAAAAAAAAAAAAAAAAABMQAcAAAAAAAAAAAAAAAAAAGACOgAAAAAAAAAAAAAAAAAAABPQAQAAAAAAAAAAAAAAAAAAmIAOAAAAAAAAAAAAAAAAAADABHQAAAAAAAAAAAAAAAAAAAAmoAMAAAAAAAAAAAAAAAAAADABHQAAAAAAAAAAAAAAAAAAgAnoAAAAAAAAAAAAAAAAAAAATEAHAAAAAAAAAAAAAAAAAABgAjoAAAAAAAAAAAAAAAAAAAAT0AEAAAAAAAAAAAAAAAAAAJiADgAAAAAAAAAAAAAAAAAAwAR0AAAAAAAAAAAAAAAAAAAAJqADAAAAAAAAAAAAAAAAAAAwAR0AAAAAAAAAAAAAAAAAAIAJ6AAAAAAAAAAAAAAAAAAAAExABwAAAAAAAAAAAAAAAAAAYAI6AAAAAAAAAAAAAAAAAAAAE9ABAAAAAAAAAAAAAAAAAACYgA4AAAAAAAAAAAAAAAAAAMAEdAAAAAAAAAAAAAAAAAAAACagAwAAAAAAAAAAAAAAAAAAMAEdAAAAAAAAAAAAAAAAAACACegAAAAAAAAAAAAAAAAAAABMQAcAAAAAAAAAAAAAAAAAAGACOgAAAAAAAAAAAAAAAAAAABPQAQAAAAAAAAAAAAAAAAAAmIAOAAAAAAAAAAAAAAAAAADABHQAAAAAAAAAAAAAAAAAAAAmoAMAAAAAAAAAAAAAAAAAADABHQAAAAAAAAAAAAAAAAAAgAnoAAAAAAAAAAAAAAAAAAAATEAHAAAAAAAAAAAAAAAAAABgAjoAAAAAAAAAAAAAAAAAAAAT0AEAAAAAAAAAAAAAAAAAAJiADgAAAAAAAAAAAAAAAAAAwAR0AAAAAAAAAAAAAAAAAAAAJqADAAAAAAAAAAAAAAAAAAAwAR0AAAAAAAAAAAAAAAAAAIAJ6AAAAAAAAAAAAAAAAAAAAExABwAAAAAAAAAAAAAAAAAAYAI6AAAAAAAAAAAAAAAAAAAAE9ABAAAAAAAAAAAAAAAAAACYgA4AAAAAAAAAAAAAAAAAAMAEdAAAAAAAAAAAAAAAAAAAACagAwAAAAAAAAAAAAAAAAAAMAEdAAAAAAAAAAAAAAAAAACACegAAAAAAAAAAAAAAAAAAABMQAcAAAAAAAAAAAAAAAAAAGACOgAAAAAAAAAAAAAAAAAAABPQAQAAAAAAAAAAAAAAAAAAmIAOAAAAAAAAAAAAAAAAAADABHQAAAAAAAAAAAAAAAAAAAAmoAMAAAAAAAAAAAAAAAAAADABHQAAAAAAAAAAAAAAAAAAgAnoAAAAAAAAAAAAAAAAAAAATEAHAAAAAAAAAAAAAAAAAABgAjoAAAAAAAAAAAAAAAAAAAAT0AEAAAAAAAAAAAAAAAAAAJiADgAAAAAAAAAAAAAAAAAAwAR0AAAAAAAAAAAAAAAAAAAAJqADAAAAAAAAAAAAAAAAAAAwAR0AAAAAAAAAAAAAAAAAAIAJ6AAAAAAAAAAAAAAAAAAAAExABwAAAAAAAAAAAAAAAAAAYAI6AAAAAAAAAAAAAAAAAAAAE9ABAAAAAAAAAAAAAAAAAACYgA4AAAAAAAAAAAAAAAAAAMAEdAAAAAAAAAAAAAAAAAAAACagAwAAAAAAAAAAAAAAAAAAMAEdAAAAAAAAAAAAAAAAAACACegAAAAAAAAAAAAAAAAAAABMQAcAAAAAAAAAAAAAAAAAAGACOgAAAAAAAAAAAAAAAAAAABPQAQAAAAAAAAAAAAAAAAAAmIAOAAAAAAAAAAAAAAAAAADABHQAAAAAAAAAAAAAAAAAAAAmoAMAAAAAAAAAAAAAAAAAADABHQAAAAAAAAAAAAAAAAAAgAnoAAAAAAAAAAAAAAAAAAAATEAHAAAAAAAAAAAAAAAAAABgAjoAAAAAAAAAAAAAAAAAAAAT0AEAAAAAAAAAAAAAAAAAAJiADgAAAAAAAAAAAAAAAAAAwAR0AAAAAAAAAAAAAAAAAAAAJqADAAAAAAAAAAAAAAAAAAAwAR0AAAAAAAAAAAAAAAAAAIAJ6AAAAAAAAAAAAAAAAAAAAExABwAAAAAAAAAAAAAAAAAAYAI6AAAAAAAAAAAAAAAAAAAAE9ABAAAAAAAAAAAAAAAAAACYgA4AAAAAAAAAAAAAAAAAAMAEdAAAAAAAAAAAAAAAAAAAACagAwAAAAAAAAAAAAAAAAAAMAEdAAAAAAAAAAAAAAAAAACACegAAAAAAAAAAAAAAAAAAABMQAcAAAAAAAAAAAAAAAAAAGACOgAAAAAAAAAAAAAAAAAAABPQAQAAAAAAAAAAAAAAAAAAmIAOAAAAAAAAAAAAAAAAAADABHQAAAAAAAAAAAAAAAAAAAAmoAMAAAAAAAAAAAAAAAAAADABHQAAAAAAAAAAAAAAAAAAgAnoAAAAAAAAAAAAAAAAAAAATEAHAAAAAAAAAAAAAAAAAABgAjoAAAAAAAAAAAAAAAAAAAAT0AEAAAAAAAAAAAAAAAAAAJiADgAAAAAAAAAAAAAAAAAAwAR0AAAAAAAAAAAAAAAAAAAAJqADAAAAAAAAAAAAAAAAAAAwAR0AAAAAAAAAAAAAAAAAAIAJ6AAAAAAAAAAAAAAAAAAAAExABwAAAAAAIPbu4LWNLE/g+MPk7PoLLGZhjxIzMLcuMcPuzTLd9NE2Dr61FdI5GoHJsTeg8W3SIfbeTIylY9ON5dsM3Vj9D0jHhV1Kf0HlL1jeSzvE6UniJik/Jf35QCFbJV6V6un65QcAAAAAAAAAAJAI0AEAAAAAAAAAAAAAAAAAAEgE6AAAAAAAAAAAAAAAAAAAACQCdAAAAAAAAAAAAAAAAAAAABIBOgAAAAAAAAAAAAAAAAAAAIkAHQAAAAAAAAAAAAAAAAAAgESADgAAAAAAAAAAAAAAAAAAQCJABwAAAAAAAAAAAAAAAAAAIBGgAwAAAAAAAAAAAAAAAAAAkAjQAQAAAAAAAAAAAAAAAAAASAToAAAAAAAAAAAAAAAAAAAAJAJ0AAAAAAAAAAAAAAAAAAAAEgE6AAAAAAAAAAAAAAAAAAAAiQAdAAAAAAAAAAAAAAAAAACARIAOAAAAAAAAAAAAAAAAAABAIkAHAAAAAAAAAAAAAAAAAAAgEaADAAAAAAAAAAAAAAAAAACQCNABAAAAAAAAAAAAAAAAAABIBOgAAAAAAAAAAAAAAAAAAAAkAnQAAAAAAAAAAAAAAAAAAAASAToAAAAAAAAAAAAAAAAAAACJAB0AAAAAAAAAAAAAAAAAAIBEgA4AAAAAAAAAAAAAANHGxgUAACAASURBVAAAAEAiQAcAAAAAAAAAAAAAAAAAACARoAMAAAAAAAAAAAAAAAAAAJAI0AEAAAAAAAAAAAAAAAAAAEgE6AAAAAAAAAAAAAAAAAAAACQCdAAAAAAAAAAAAAAAAAAAABIBOgAAAAAAAAAAAAAAAAAAAIkAHQAAAAAAAAAAAAAAAAAAgESADgAAAAAAAAAAAAAAAAAAQCJABwAAAAAAAAAAAAAAAAAAIBGgAwAAAAAAAAAAAAAAAAAAkAjQAQAAAAAAAAAAAAAAAAAASAToAAAAAAAAAAAAAAAAAAAAJAJ0AAAAAAAAAAAAAAAAAAAAEgE6AAAAAAAAAAAAAAAAAAAAiQAdAAAAAAAAAAAAAAAAAACARIAOAAAAAAAAAAAAAAAAAABAIkAHAAAAAAAAAAAAAAAAAAAgEaADAAAAAAAAAAAAAAAAAACQCNABAAAAAAAAAAAAAAAAAABIBOgAAAAAAAAAAAAAAAAAAAAkAnQAAAAAAAAAAAAAAAAAAAASAToAAAAAAAAAAAAAAAAAAACJAB0AAAAAAAAAAAAAAAAAAIBEgA4AAAAAAAAAAAAAAAAAAEAiQAcAAAAAAAAAAAAAAAAAACARoAMAAAAAAAAAAAAAAAAAAJAI0AEAAAAAAAAAAAAAAAAAABpQ1/VH91gF6AAAAAAAAAAAAAAAAAAAAA0Yn43Cl59/kV4/lhhdgA4AAAAAAAAAAAAAAAAAANCQ+WwWHh4chD//8U/pdXo5XepHLUAHAAAAAAAAAAAAAAAAAABoQG+jF/YHg7DWaqXF4yT03Z2d8B9/+Ws4fnq0lFPRBegAAAAAAAAAAAAAAAAAAAANiOH53r1++OdPP4aT09OXIfqiqsLhcJimoj+4fz9cnE+W5vEL0AEAAAAAAAAAAAAAAAAAABpWdsvQaq2li8QoPf4fxfg8RuhXU9FjnJ6TAB0AAAAAAAAAAAAAAAAAAOAWfVZ200T0OBl9fzBIk9GvpqLHED0G6eOzUZYtEaADAAAAAAAAAAAAAAAAAABkEMPzOA09hujf/fB92NzeCkVRpKnoDw8Owp//+Kdbv6k7fggAAAAAAAAAAAAAAAAAAAB5tTud8E2nE9rtTpqEXtd1Om6bAB0AAAAAAAAAAAAAAAAAACCj+WwWxqNRmnx+FZ3H6eibW1u3flMCdAAAAAAAAAAAAAAAAAAAgFu2qKowOZ+k8Dz+fWV9oxd6vY30moMAHQAAAAAAAAAAAAAAAAAA4BYdDodp6vmVq2nnvY1e+jsnAToAAAAAAAAAAAAAAAAAAECDppfTcDE5D/PZPF3kKj7f3N4K672NUHbLpXn8AnQAAAAAAAAAAAAAAAAAAIAGXJxPwt+Gw7CoqpeLtzudNO18faMXiqJYuscuQAcAAAAAAAAAAAAAAAAAAGhAVVUpPo+heQzOY3geA/RlJkAHAAAAAAAAAAAAAAAAAABoQKvVCt88erS0087/FQE6AAAAAAAAAAAAAAAAAABAA2J4/rFZ8UMAAAAAAAAAAAAAAAAAAAAgmIAOAAAAAAAAAAAAAAAAAADQvOnlNIxHZ2E+m4dFVYWiKMJn3TKUZTdsbm8tzQ4I0AEAAAAAAAAAAAAAAAAAABpS13V4eHAQLs4n1y4Q34/vxWM8GoXHT74Na61W9m0QoAMAAAAAAAAAAAAAAAAAADTk1fg8TjpvtzspNH9e12E+n4Xx2SjMZ7Pw4P7X4eT0WZqMnpMAHQAAAAAAAAAAAAAAAAAAoAExLI/xeYzKY1ze7nSuXWR9oxe+6vfD7s7d9NkYo+/d62fdipWsVwcAAAAAAAAAAAAAAAAAAPhETS+n6YvFyPz1+PxKjNP3B4P038Vkkv1BCNABAAAAAAAAAAAAAAAAAAAa8PP0Mi36pvj8StktU4gep6DnJkAHAAAAAAAAAAAAAAAAAABowGpR3HjR3/LZJgnQAQAAAAAAAAAAAAAAAAAAGtBuv5h8vqiqty4ez8djfaOXfRsE6AAAAAAAAAAAAAAAAAAAAA3Y3N4KRVGE46OjUNf1Gy8Qz0e93kb2bRCgAwAAAAAAAAAAAAAAAAAANCDG5yenz8Lzug67O3fD9HJ67SIxSn94cBDGZ6MUqy/DBPQ72e8AAAAAAAAAAAAAAAAAAADgExSD8/lslsLyGJnv7uykKL3daYe6fp7OXVlUVTr/unanE/YHg1t7OAJ0AAAAAAAAAAAAAAAAAACABsTA/HA4vLZwnHr++iT08EusvgwE6AAAAAAAAAAAAAAAAAAAAA34ENPL48T02yRABwAAAAAAAAAAAAAAAAAAaEDZLdPxMVnxQwAAAAAAAAAAAAAAAAAAACCYgA4AAAAAAAAAAAAAAAAAANC86eU0jEdnYT6bh0VVhaIoQrvTDuu9jbC5vbU0OyBABwAAAAAAAAAAAAAAAAAAaEhd1+HhwUG4OJ9cu0B8P0bp8Tg+OgqPn3wb2p1O9m0QoAMAAAAAAAAAAAAAAAAAADTk1fg8TjpvtzthrdVK//88vQzjs1GaiL67czf846cf02T0nAToAAAAAAAAAAAAAAAAAAAADYjTzWN8HqPyk9Nnv5pwXnbL8FW/n+Lz+WwW/vvoKOwPBlm3YiXr1QEAAAAAAAAAAAAAAAAAAD5RccJ5FCPz1+PzKzFOf/zk2/Tf5JdJ6TkJ0AEAAAAAAAAAAAAAAAAAABoQp5pHb4rPr6y1WulYVFX2bRCgAwAAAAAAAAAAAAAAAAAANGC1KG68aPEbPtskAToAAAAAAAAAAAAAAAAAAEAD2u0Xk8/fNdm8rus0LX19o5d9GwToAAAAAAAAAAAAAAAAAAAADdjc3kqTzY+PjlJk/iaHw2E6s7m1nX0bBOgAAAAAAAAAAAAAAAAAAAANiPH5yemz8Lyuw5effxEuzifXLhInoz+4fz+Mz0YpVi+7ZfZtuJP9DgAAAAAAAAAAAAAAAAAAAD5BMTgfj87CalG8jM3D/V9/z+KX83ES+v5gkPVBCNABAAAAAAAAAAAAAAAAAAAaUFVVmF5O37lwXdc3+txtEKADAAAAAAAAAAAAAAAAAAA0oLfRC+1O58YLF8Vq9m0QoAMAAAAAAAAAAAAAAAAAADRgrdVKx8dkxQ8BAAAAAAAAAAAAAAAAAACAYAI6AAAAAAAAAAAAAAAAAADA+1tUVaiqxXutUxSrod3pZN0NAToAAAAAAAAAAAAAAAAAAMB7mpxPwuFw+F6LlN0ynJyeZt0KAToAAAAAAAAAAAAAAAAAAEBGa61WaLXWsk8/DwJ0AAAAAAAAAAAAAAAAAACA97d3r5+O181ns/Dg/tfheV2Hr/r9NOU8huaLqgrTy2k4PjpK59Z7/bC5vZV9JwToAAAAAAAAAAAAAAAAAAAADbmKz09On12bcB6nnm9ut8L6Ri/s7twNDw8OUpwe389pxQ8BAAAAAAAAAAAAAAAAAADgwxufjdKk8zj5/NX4/FVFUYT9wSC9E6eh5yZABwAAAAAAAAAAAAAAAAAAaMB8PkuLvik+vxInn8cQ/eJ8kn0bBOgAAAAAAAAAAAAAAAAAAAANiNPPb2q1KEJd19m3QYAOAAAAAAAAAAAAAAAAAADQgKvJ5+8K0eP5eMQp6LkJ0AEAAAAAAAAAAAAAAAAAABrQbr8I0I+Pjt463fxvw2F6Xd/oZd8GAToAAAAAAAAAAAAAAAAAAEADYlBedss03fw///LXMD4bvZyGHoP0i/NJ2N3ZSa9x+vlev599G+5kvwMAAAAAAAAAAAAAAAAAAIBP1N+fPAm7O3fDfDYLDw8O/uWXjPF5/Nxaq5X9IZiADgAAAAAAAAAAAAAAAAAA0JAYl5+cPgv7g0H6+3Wb21vhux++T5PSl4EJ6AAAAAAAAAAAAAAAAAAAAA2K4fnevX46FlUVqmoRimI1tDudpXvsAnQAAAAAAAAAAAAAAAAAAIBbstZqpeN108vpUkTpK1mvDgAAAAAAAAAAAAAAAAAAQNjd2QmHw2H2B2ECOgAAAAAAAAAAAAAAAAAAQMPihPN3qevnLz+Xaxq6AB0AAAAAAAAAAAAAAAAAAKAhcar58dOjGy0+n83SJPSo7Jbh5PT01rdl5davCAAAAAAAAAAAAAAAAAAA8DswPhvdOD5fFiagAwAAAAAAAAAAAAAAAAAANGA6vUyL7g8GYe9e/60X+Pc//Fu2qeevMgEdAAAAAAAAAAAAAAAAAACgAc/rOi36rvh8mQjQAQAAAAAAAAAAAAAAAAAAGtDudNKi08vpR/N47yzBPQAAAAAAAAAAAAAAAAAAAHxyPiu7YXW1CK3W2ju/2v5gEIqiyP4IBOgAAAAAAAAAAAAAAAAAAAANKLtlOm5i715/KbZAgA4AAAAAAAAAAAAAAAAAANCw6eU0XEzO0+uiqtK083anHdZ7G2Fze2tpHr8AHQAAAAAAAAAAAAAAAAAAoEGHw2E4fnp07QJ1XacYPR7j0Sg8fvJtWGu1sm/DSvY7AAAAAAAAAAAAAAAAAAAA+ETF8PwqPt+71w8np6fp73anE/YHgxSdz2ez8OD+1ylKz02ADgAAAAAAAAAAAAAAAAAA0IBFVaXp59F3P3yfgvOyW6b/i2I1Benx/Rijxwh9fDbKvg0CdAAAAAAAAAAAAAAAAAAAgAZMzidp0Riax8j8XymKIjx+8m06czGZZN8GAToAAAAAAAAAAAAAAAAAAEAD5vNZWvSzsvvWxddarXTEKei5CdABAAAAAAAAAAAAAAAAAAAa8LyuP7rHKkAHAAAAAAAAAAAAAAAAAABoQJxqHm4Qoi+qKh3tTif7NgjQAQAAAAAAAAAAAAAAAAAAGtBuvwjKp9PLNy5e13X423CY/l7v9bJvgwAdAAAAAAAAAAAAAAAAAACgAesbvVAURRifjcJ8Nrt2gapahMPhMHz5+Rfh4nySpp9vbm9l34Y72e8AAAAAAAAAAAAAAAAAAADgExTj8/3BIMznsxSYv2pRVeH46VF6p+yW4e9PnqTP5yZABwAAAAAAAAAAAAAAAAAAaMiLqebXJ5vHKP1KjM9fj9NzEqADAAAAAAAAAAAAAAAAAADcor17/aV93CtLcA8AAAAAAAAAAAAAAAAAAAAsARPQAQAAAAAAAAAAAAAAAAAAGja9nIbx6CzMZ/OwqKpQFEX4rFuGsuyGze2tpXn8AnQAAAAAAAAAAAAAAAAAAICG1HUdHh4chIvzybULxPfje/EYj0bh8ZNvw1qrlX0bBOgAAAAAAAAAAAAAAAAAAAANeTU+j5PO2+1OCs2f13WYz2dhfDYK89ksPLj/dTg5fZYmo+ckQAcAAAAAAAAAAAAAAAAAAGhADMtjfB6j8hiXtzudaxdZ3+iFr/r9sLtzN302xuh79/pZt2Il69UBAAAAAAAAAAAAAAAAAAA+UdPLafpiMTJ/PT6/EuP0/cEg/XcxmWR/EAJ0AAAAAAAAAAAAAAAAAACABvw8vUyLvik+v1J2yxSixynouQnQAQAAAAAAAAAAAAAAAAAAGrBaFDde9Ld8tkkCdAAAAAAAAAAAAAAAAAAAgAa02y8mny+q6q2Lx/PxWN/oZd8GAToAAAAAAAAAAAAAAAAAAEADNre3QlEU4fjoKNR1/cYLxPNRr7eRfRsE6AAAAAAAAAAAAAAAAAAAAA2I8fnJ6bPwvK7D7s7dML2cXrtIjNIfHhyE8dkoxerLMAH9TvY7AAAAAAAAAAAAAAAAAAAA+ATF4Hw+m6WwPEbmuzs7KUpvd9qhrp+nc1cWVZXOv67d6YT9weDWHo4AHQAAAAAAAAAAAAAAAAAAoAExMD8cDq8tHKeevz4JPfwSqy8DAToAAAAAAAAAAAAAAAAAAEADPsT08jgx/TYJ0AEAAAAAAAAAAAAAAAAAABpQdst0fExW/BAAAAAAAAAAAAAAAAAAAAAIAnQAAAAAAAAAAAAAAAAAAACuCNABAAAAAAAAAAAAAAAAAABIBOgAAAAAAAAAAAAAAAAAAAAkAnQAAAAAAAAAAAAAAAAAAAASAToAAAAAAAAAAAAAAAAAAACJAB0AAAAAAAAAAAAAAAAAAIBEgA4AAAAAAAAAAAAAAAAAAEAiQAcAAAAAAAAAAAAAAAAAACARoAMAAAAAAAAAAAAAAAAAAGQ2vZyG+WyW/T4E6AAAAAAAAAAAAAAAAAAAAJnt7uyEw+Ew+33cyX4HAAAAAAAAAAAAAAAAAAAAn6BFVYWqWtz4i9X18zQJvdVaC2utVpYHIkAHAAAAAAAAAAAAAAAAAABowOR88pumms9nszQJPSqKImxub4X9weBWt2blVq8GAAAAAAAAAAAAAAAAAADAO9V1HY6fHqXjNgnQAQAAAAAAAAAAAAAAAAAAGrB3rx/+5//+90ZHVHbLl5+9mnw+Ho1udWsE6AAAAAAAAAAAAAAAAAAAAEsmxuvtTicsqupWb0yADgAAAAAAAAAAAAAAAAAAsITquk4R+m2644cAAAAAAAAAAAAAAAAAAACQ1/5gEIqiuPbeP3/68dYnoAvQAQAAAAAAAAAAAAAAAAAAGhDj8apa3GjhOOm8KFZ/9f5aq3WrWyNABwAAAAAAAAAAAAAAAAAAaMDkfBIOh8MbL1x2y3Byepp1KwToAAAAAAAAAAAAAAAAAAAAGcUp563WWpqCnpsAHQAAAAAAAAAAAAAAAAAAoAF79/rpeJPp5TSMR2fh4nwSehu9sD8YZN8GAToAAAAAAAAAAAAAAAAAAEAGZbdMx8PiIBw/PQqrq8Vbg/XbsOKHAAAAAAAAAAAAAAAAAAAAkM9e/0V0Ph6Nsu+CAB0AAAAAAAAAAAAAAAAAACCjtVYrXXxRVdm34U72OwAAAAAAAAAAAAAAAAAAAPid29zeEqADAAAAAAAAAAAAAAAAAAAQwjePHi3FUxCgAwAAAAAAAAAAAAAAAAAANGx6OQ0Xk/P0GiedF0URPuuWoSy7afr5shCgAwAAAAAAAAAAAAAAAAAANOhwOAzHT4+uXaCu63BxPknHeDQKJ6fPUpSemwAdAAAAAAAAAAAAAAAAAACgITE8v4rP46TzOPF89ZfQ/OfpZRifjcJ8Ngu7O3fDdz98n30bBOgAAAAAAAAAAAAAAAAAAAANWFRVmn4enZyehrJbXrtI/P+rfj/F5zFCjzF6jNRzWvFDAAAAAAAAAAAAAAAAAAAA+PAm55P0uj8Y/Co+v1IURTofjUej7LsgQAcAAAAAAAAAAAAAAAAAAGjAfD5Li7Y7nbcuHuP0GKLHKei5CdABAAAAAAAAAAAAAAAAAAAa8Lyub7zoWqu1FFsgQAcAAAAAAAAAAAAAAAAAAGjA1eTzRVW9dfG6rtP082WI0AXoAAAAAAAAAAAAAAAAAAAADWi3XwTo49EoReZvMj4bpTNlt8y+DQJ0AAAAAAAAAAAAAAAAAACABqxv9NIU9DjdfHfnbnp9VYzSD4fDdER7/X72bbiT/Q4AAAAAAAAAAAAAAAAAAAA+Ud88+q+X8fmXn38R1lqt0Gqthbp+fi1I/+bRo3QuNxPQAQAAAAAAAAAAAAAAAAAAGhInoP/jpx/D5vZWusCiqsL0cvoyPo/nT05PX57PzQR0AAAAAAAAAAAAAAAAAACABhVFkSac7w8GYT6bp/g8hudFsZpel4kAHQAAAAAAAAAAAAAAAAAA4BbEEL3slulYVit+CAAAAAAAAAAAAAAAAAAAAAQT0AEAAAAAAAAAAAAAAAAAAJqxqKpQVYsbr10Uq6Hd6WTdDQE6AAAAAAAAAAAAAAAAAABAAybnk3A4HN544bJbhpPT06xbIUAHAAAAAAAAAAAAAAAAAADIqCiK0O60s08/DwJ0AAAAAAAAAAAAAAAAAACAZuzd66fjTeazWTg+OgoX55Ow1mqF/cEg+06sZL8DAAAAAAAAAAAAAAAAAACA36E48fzxkycpUh+fjdKRmwAdAAAAAAAAAAAAAAAAAAAgo6/6L6akj0cCdAAAAAAAAAAAAAAAAAAAgN+1oijS15/PZtkfgwAdAAAAAAAAAAAAAAAAAAAgo7qul+bxC9ABAAAAAAAAAAAAAAAAAAAyifH54XCYLt7udLJvw53sdwAAAAAAAAAAAAAAAAAAAPAJGp+NwsXk/K1fbD6bv5yAvtfvZ38IAnQAAAAAAAAAAAAAAAAAAIAGxLB8ejm90cLfPHoU1jd62bdBgA4AAAAAAAAAAAAAAAAAANCAdqcT9geDNy68WFTh4nyS/i6KYim2QIAOAAAAAAAAAAAAAAAAAADQgLJbpuNtYqC+u3M3PLh/P3zX+j5F6zmt+CEAAAAAAAAAAAAAAAAAAADkESefP37ybfr7+Ogo+y4I0AEAAAAAAAAAAAAAAAAAADJaa7XSxS/OJ9m3QYAOAAAAAAAAAAAAAAAAAABAIkAHAAAAAAAAAAAAAAAAAADI6PjpUbr41ST0nO74IQAAAAAAAAAAAAAAAAAAAHx4i6oKVbV46/n5fBbGZ6P0/+bWVvZdEKADAAAAAAAAAAAAAAAAAAA0YHI+CYfD4Y0Wbnc6YXNbgA4AAAAAAAAAAAAAAAAAAPBJKooilN3ynV9tvbexFPF5EKADAAAAAAAAAAAAAAAAAAA0I0blyxKW39TKx3GbAAAAAAAAAAAAAAAAAAAANE2ADgAAAAAAAAAAAAAAAAAAQCJABwAAAAAAAAAAAAAAAAAAIBGgAwAAAAAAAAAAAAAAAAAAkAjQAQAAAAAAAAAAAAAAAAAASAToAAAAAAAAAAAAAAAAAAAAJAJ0AAAAAAAAAAAAAAAAAAAAEgE6AAAAAAAAAAAAAAAAAAAAiQAdAAAAAAAAAAAAAAAAAACARIAOAAAAAAAAAAAAAAAAAABAcsdjAAAAAAAAAAAAAAAAAAAA+PAWVRWqavFeaxTFamh3Oh/snt5FgA4AAAAAAAAAAAAAAAAAANCAyfkkHA6H77Vw2S3DyenprW3Pyq1dCQAAAAAAgP9n73562zrTuwE/Nbz2+QRSM+gsSbRAFw1CIcF0ZxkzmKXlOs0ulqG4O1eAm2VqQOPdJIbl7IRoTC2DBKJ2LWYgGtNFgRYk+m4GmAHVL0D3A/TFfWyq5BElUX+OzhF9XQBBiaSe8++hMZP7/J4bAAAAAAAAAAB4j2RZlgfIr7KD+UXpgA4AAAAAAAAAAAAAAAAAAFCCu/dWUqPZSI/WvsjD6J+vrqblO8tpYXExDYfDtLfbSS83N9Ob4TA9Xl/PP181HdABAAAAAAAAAAAAAAAAAABKEuHzCJhvbX+XHjxczcPn6V139Aicf//jD/lrzzY2Ur/Xq/wyCKADAAAAAAAAAAAAAAAAAACUYOdVOx0MBnnn80azOXUDEUT/+vk3eUf0nXa78ssggA4AAAAAAAAAAAAAAAAAAFCCfv9tR/Pjwucj0QE9guh7u53KL4MAOgAAAAAAAAAAAAAAAAAAQAmi+/lZRBf0qgmgAwAAAAAAAAAAAAAAAAAAlGDU+fy0IHq8H+Hz6IJeNQF0AAAAAAAAAAAAAAAAAACAEjQabwPoLzc3T+xu/quNjfz59p3lyi+DADoAAAAAAAAAAAAAAAAAAEAJIlAeXdCjw/nffvxJ2nnVTv1eL99QBNL3djvps/v38+fofv5gdbXyy3Cz8j0AAAAAAAAAAAAAAAAAAACYU18//yb9/f1P8xD6l0+eTD3ICJ8/Xl9PC4uLlZ8EHdABAAAAAAAAAAAAAAAAAABKEqHy73/8IQ+YR9C86O69lfz9eK4DHdABAAAAAAAAAAAAAAAAAABKFMHzBw9X80d0Qh8MDlKW3UqNZrN2p10AHQAAAAAAAAAAAAAAAAAA4IpER/R41JUAOgAAAAAAAAAAAAAAAAAAQMmGw2Hq9/onbqQOXdEF0AEAAAAAAAAAAAAAAAAAAEoSwfN/WFtL3f3uqRtoLbXS1vZ2pZdCAB0AAAAAAAAAAAAAAAAAAKAEET7/7P6nqd/rXZvTK4AOAAAAAAAAAAAAAAAAAABQgp1X7Tx83mg209fPv0kLi4u1P803arAPAAAAAAAAAAAAAAAAAAAAc6fff9v5/MHq6rUInycBdAAAAAAAAAAAAAAAAAAAgHK8GQ7zcW9l2bU5wwLoAAAAAAAAAAAAAAAAAAAAJWg0m/mgoyD6dSCADgAAAAAAAAAAAAAAAAAAUIKPWkv5oJ3O7rU5vQLoAAAAAAAAAAAAAAAAAAAAJWgttdLj9fW0t9tJj9bW0sFgUPvTfLMG+wAAAAAAAAAAAAAAAAAAADB3uvvd9ObNMGVZlofQ43GSCKxvbW9XehoE0AEAAAAAAAAAAAAAAAAAAErQ7/XSyxeb1+rUCqADAAAAAAAAAAAAAAAAAACUYPnOcmo0mzMPnGW3Kr8MAugAAAAAAAAAAAAAAAAAAAAlWFhczB/XyQ0TAQAAAAAAAAAAAAAAAAAAgCSADgAAAAAAAAAAAAAAAAAAUJ5+r5devticOn68193v5s91cdNcAAAAAAAAAAAAAAAAAAAAKMezjY08ZB4ePFw9fP3LJ0/Szqv24e+tpVb69fPnKcuySq+EDugAAAAAAAAAAAAAAAAAAAAliOB5PBYWFyfC5xE8j0eEzSN4Hs/xufFAelUE0AEAAAAAAAAAAAAAAAAAAErQ7/XyQR+srk4MvtN+GzSPjudb29tpa/u7iderJIAOAAAAAAAAAAAAAAAAAABQgtfd/XzQ6IA+cjAY5MH0Uffz0Gg289/jvaoJoAMAAAAAAAAAAAAAAAAAAJSo0WwcDt7d7+bPt+8s1/KUC6ADAAAAAAAAAAAAAAAAAACUYNT5/PW70HnY6+zmz41G8/C16Hw+HA4nOqVX5aaJAAAAAAAAAAAAAAAAAAAAcPnehszb6eXmZv77YDDIO6BnWTbRAf1XGxv5892VlcqvggA6AAAAAAAAAAAAAAAAAABACe7eW0k77Xbq93rp0dra4QYer6/nIfSRg8FB/nt8vmoCq4xSywAAIABJREFU6AAAAAAAAAAAAAAAAAAAACXZ2v4u7bxqp9fd/XQry9Ly8p2J7ufp3WfeDIcTofSqCKADAAAAAAAAAAAAAAAAAACUJELlDx6u5o/jxGfqED4PN2qwDwAAAAAAAAAAAAAAAAAAANSAADoAAAAAAAAAAAAAAAAAAEANHQwGaTgcXumO3TQRAAAAAAAAAAAAAAAAAAAALt/Oq3ba6+zO/PlGs5ker6/nP+/tdtKjtbWUZVn6/scf0sLi4pVcIQF0AAAAAAAAAAAAAAAAAACAEkT38u5+91wDd94F12OMzm4nPXi4eiWXSAAdAAAAAAAAAAAAAAAAAACgBOMdzWcR3c5H7q7cS6/3u3nn87v3Vq7s8gigAwAAAAAAAAAAAAAAAAAAlKC11Mof5xF/9+//+R9XfllumAgAAAAAAAAAAAAAAAAAAAAkAXQAAAAAAAAAAAAAAAAAAABGbjoTAAAAAAAAAAAAAAAAAAAAl+9gMEiDwcHMn8+yW6nRbFZ6JQTQAQAAAAAAAAAAAAAAAAAAStDZ7aRnGxszD9xaaqWt7e1KL4UAOgAAAAAAAAAAAAAAAAAAQIWyLEuNZqPy7udJAB0AAAAAAAAAAAAAAAAAAKAcDx6u5o/jdPe7aaf9Ku3tdvLw+eP19cqvhAA6AAAAAAAAAAAAAAAAAABABVpLrfzxsrGZnm1spEajmW7fWa70UtwwEQAAAAAAAAAAAAAAAAAAAKpz995K/vxyc7PyqyCADgAAAAAAAAAAAAAAAAAAUKEsy/KN93u9yi+DADoAAAAAAAAAAAAAAAAAAECFDgaD2px+AXQAAAAAAAAAAAAAAAAAAICKDIfD9Gjti3zjt+8sV34Zbla+BwAAAAAAAAAAAAAAAAAAAHNo51U77XV2Tzyw7n738Oe7K/cqPwkC6AAAAAAAAAAAAAAAAAAAACWI7ubjAfPjZFmWHq+vp9ZSq/LLIIAOAAAAAAAAAAAAAAAAAABQgkazmQfLT7K4uJg+WmrlIfQ6EEAHAAAAAAAAAAAAAAAAAAAoQXQ0r0NX87O4cX12FQAAAAAAAAAAAAAAAAAAgDLpgA4AAAAAAAAAAAAAAAAAAFCy7n437XV28+eDwSBlWZYazUa6vXwn3b23UpvTL4AOAAAAAAAAAAAAAAAAAABQomcbG+nli82JDQyHwzyMHo+ddjt9/fybtLC4WPlluFH5HgAAAAAAAAAAAAAAAAAAAMypCJ6PwucPHq6mre3t/OdGs5ker6/nofN+r5cerX2Rh9KrJoAOAAAAAAAAAAAAAAAAAABQgoPBIO9+Hr7/8Yc8cN5aauW/Z9mtPJAer0cYPULoO6/alV8GAXQAAAAAAAAAAAAAAAAAAIASdHY7+aARNI+Q+TRZlqWvn3+Tv7PX6VR+GQTQAQAAAAAAAAAAAAAAAAAAStDv9/JBP2otnTj4wuJi/ogu6FUTQAcAAAAAAAAAAAAAAAAAACjBm+Hw2p1WAXQAAAAAAAAAAAAAAAAAAIASRFfzNEMQ/WAwyB+NZrPyyyCADgAAAAAAAAAAAAAAAAAAUIJG422gvNvdP3bw4XCYfrWxkf98e3m58ssggA4AAAAAAAAAAAAAAAAAAFCC23eWU5ZlaedVO/V7vYkNDAYH6dnGRvrlz3+R9nY7effzu/dWKr8MNyvfAwAAAAAAAAAAAAAAAAAAgDkU4fPH6+up3+/lAfNxB4NBevliM3+ltdRKv37+PP981QTQAQAAAAAAAAAAAAAAAAAASvK2q/lkZ/MIpY9E+LwYTq+SADoAAAAAAAAAAAAAAAAAAMAVevBwtban+0YN9gEAAAAAAAAAAAAAAAAAAGAu9Xu99PLF5tRDi/e6+938uS50QAcAAAAAAAAAAAAAAAAAACjJs42NPGSeCp3Pv3zyJO28ah/+3lpqpV8/f56yLKv0UuiADgAAAAAAAAAAAAAAAAAAUIIInsdjYXFxInwewfN4RNg8gufxHJ8bD6RXRQAdAAAAAAAAAAAAAAAAAACgBP1eLx/0werqxOA77bdB8+h4vrW9nba2v5t4vUoC6AAAAAAAAAAAAAAAAAAAACV43d3PB40O6CMHg0EeTB91Pw+NZjP/Pd6rmgA6AAAAAAAAAAAAAAAAAABAiRrNxuHg3f1u/nz7znItT7kAOgAAAAAAAAAAAAAAAAAAQAlGnc9fvwudh73Obv7caDQPX4vO58PhcKJTelVumggAAAAAAAAAAAAAAAAAAACX723IvJ1ebm7mvw8Gg7wDepZlEx3Qf7WxkT/fXVmp/CoIoAMAAAAAAAAAAAAAAAAAAJTg7r2VtNNup36vlx6trR1u4PH6eh5CHzkYHOS/x+erJoAOAAAAAAAAAAAAAAAAAABQkq3t79LOq3Z63d1Pt7IsLS/fmeh+nt595s1wOBFKr4oAOgAAAAAAAAAAAAAAAAAAQEkiVP7g4Wr+OE58pg7h83CjBvsAAAAAAAAAAAAAAAAAAABADQigAwAAAAAAAAAAAAAAAAAAlKTf66WXLzanDh7vdfe7+XNd3DQRAAAAAAAAAAAAAAAAAAAAyvFsYyMPmYcHD1cPX//yyZO086p9+HtrqZV+/fx5yrKs0iuhAzoAAAAAAAAAAAAAAAAAAEAJIngej4XFxYnweQTP4xFh8wiex3N8bjyQXhUBdAAAAAAAAAAAAAAAAAAAgBL0e7180AerqxOD77TfBs2j4/nW9nba2v5u4vUqCaADAAAAAAAAAAAAAAAAAACU4HV3Px80OqCPHAwGeTB91P08NJrN/Pd4r2oC6AAAAAAAAAAAAAAAAAAAACVqNBuHg3f3u/nz7TvLtTzlAugAAAAAAAAAAAAAAAAAAAAlGHU+f/0udB72Orv5c6PRPHwtOp8Ph8OJTulVuWkiAAAAAAAAAAAAAAAAAAAAXL63IfN2erm5mf8+GAzyDuhZlk10QP/Vxkb+fHdlpfKrIIAOAAAAAAAAAAAAAAAAAABQgrv3VtJOu536vV56tLZ2uIHH6+t5CH3kYHCQ/x6fr5oAOgAAAAAAAAAAAAAAAAAAQEm2tr9LO6/a6XV3P93KsrS8fGei+3l695k3w+FEKL0qAugAAAAAAAAAAAAAAAAAAAAliVD5g4er+eM48Zk6hM/DjRrsAwAAAAAAAAAAAAAAAAAAADWgAzoAAAAAAAAAAAAAAAAAAEAJDgaDNBgczDxwlt1KjWaz0kshgA4AAAAAAAAAAAAAAAAAAFCCzm4nPdvYmHng1lIrbW1vV3opBNABAAAAAAAAAAAAAAAAAAAqlGVZajQblXc/TwLoAAAAAAAAAAAAAAAAAAAA5XjwcDV/HKff66WXm5tpb7eTFhYX0+P19cqvxI3K9wAAAAAAAAAAAAAAAAAAAOA9FB3Pv37+PA+p77xq54+qCaADAAAAAAAAAAAAAAAAAABU6PPVt13Sd9oC6AAAAAAAAAAAAAAAAAAAAO+1LMvyw+/3epWfBgF0AAAAAAAAAAAAAAAAAACACg2Hw9qcfgF0AAAAAAAAAAAAAAAAAACAikT4/NnGRr7xRrNZ+WW4WfkeAAAAAAAAAAAAAAAAAAAAzKGdV+2019k98cD6vf5hB/QHq6uVnwQBdAAAAAAAAAAAAAAAAAAAgBJEsLy7351p4K+ePk237yxXfhkE0AEAAAAAAAAAAAAAAAAAAErQaDbT4/X1Ywc+OBikvd1O/nOWZbW4BALoF/Bvv//9td13AAC4iP/3X//l/AEAMJf+53/eTBzWf//3f/tvwQAAADCH4v/zj4v/JuC/AQAAMM+m3fPlfwMDAMDVaC218sdJIqD+2f1P06O1tfT94g95aL1Kf/YXf/7B//7hT380RU4R/8fq7+6u1HofAQAAAAAAAAAAAAAAAACAo36z005/8+GHtT0zB4NB+tnHn6Tbd5bT18+fV7YfP/3gJ+lGZVsHAAAAAAAAAAAAAAAAAAAgLSwu5idhb7dT+ckQQAcAAAAAAAAAAAAAAAAAACAngA4AAAAAAAAAAAAAAAAAAFChly82842POqFX6aaJcH5/+NMfr+uuAwAAAAAAAFDw0w9+MvHCb3ba6W8+/NBpAgAAAAAAALiGijXgqhwMBmkwODh26/F+v99LO6/a+e93V1Yq32cBdAAAAAAAAAAAAAAAAAAAgBJ0djvp2cbGTAM3ms10954AOgAAAAAAAAAAAAAAAAAAwFzKsiy1llqnHtrt5Tu1CJ8nAXQAAAAAAAAAAAAAAAAAAIByRKi8LsHyWd24HrsJAAAAAAAAAAAAAAAAAABA2QTQAQAAAAAAAAAAAAAAAAAAyN10GgAAAAAAAAAAAAAAAAAAAMrV3e+mvc5u/nwwGKQsy9JHS63Uai2lu/dWanP2BdABAAAAAAAAAAAAAAAAAABK9GxjI718sTmxgeFwmPZ2O/ljp91OW9vf5aH0qgmgAwAAAAAAAAAAAAAAAAAAlCSC56PweXQ6j47nt94FzV9399POq3bq93rps/ufpu9//KHyyyCADgAAAAAAAAAAAAAAAAAAUIKDwSDvfh62trdTa6k1sZH4/fPV1Tx8HiH0CKNHSL1KN0wEAAAAAAAAAAAAAAAAAACAy9fZ7eTPj9fXj4TPR7Isy98PO+125VdBAB0AAAAAAAAAAAAAAAAAAKAE/X4vH7TRbJ44eITTI4geXdCrJoAOAAAAAAAAAAAAAAAAAABQgjfD4cyDLiwu1uISCKADAAAAAAAAAAAAAAAAAACUYNT5/GAwOHHw4XCYdz+vQwhdAB0AAAAAAAAAAAAAAAAAAKAEjcbbAPpOu52HzI+z86qdv9NaalV+GQTQAQAAAAAAAAAAAAAAAAAASnD7znLeBT26m392/9P8eVyE0p9tbOSP8GB1tfLLcLPyPQAAAAAAAAAAAAAAAAAAAJhTXz3958Pw+S9//ou0sLiYFhcX0nD4ZiKQ/tXTp/l7VdMBHQAAAAAAAAAAAAAAAAAAoCTRAf1ffvfbdPfeSr6Bg8Egdfe7h+HzeH9re/vw/arpgA4AAAAAAAAAAAAAAAAAAFCiLMvyDueP19dTv9fPw+cRPM+yW/lznQigAwAAAAAAAAAAAAAAAAAAXIEIoreWWvmjrgTQAQAAAAAAAAAAAAAAAAAAStbd76ad9qu8A/rBYJCH0T+KMHprKd29t1Kb0y+ADgAAAAAAAAAAAAAAAAAAUJLhcJi+fPIk7e12JjYQr8dr8dhpt9PXz79JC4uLlV8GAXQAAAAAAAAAAAAAAAAAAICSjIfPo9N5o9HMg+ZvhsPU7/fSzqt26vd66dHaF2lr+7u8M3qVBNBrKCZItNCPCRMTZ9xHraXUWmqlRrN55h0fjfu6u3/kvYuMm961/I9xYxsjt7Is/wKcNO7LF5vn2l5RfJHiC3cZznMsZR7HrGPHfmXZrZmv4cFgkDqFlTLib+MYT1Pcp7Oc/4vO7zLO9VWdi7Ku5VnGLrrM7w4AAAAAAADnU+c60rS/X76zfKYV96fV4xYXF9PtO8uXtp/jpo01az28+LfTjrVu9cWiquvn6ZrW0K/qfD9aW5taK3/wcHXmMU7a17OMc1ljnXeeAAAAAAAAvC+ijhLh86gtRbi8WD+J2unnq6vps/uf5p+NMPpZ6z6X7c/+4s8/+N8//OmPJukp/u33v09/d3eyYHjZ5y0Kct9uvsifTxMF7gerqzMVMWNSvtzcnCj0HSfG/cf19YlC/0lizC+f/NOpY8eXIfa3OO5PP/jJrKfnRFGw3NrevtAYFzmWMo/jrGOPitvxj81JK1zEPPvs/v2J1x6vr8/0j1Jxn2Y5/5c1v8s411d1Lsq6lucZe+QyvjsAAAAAAADzolhz+c1OO/3Nhx+WfnR1riM929g4ElCdtZY2Mm2Mr58/v5Sa66w11qjzfv/jD6eOV/zbGLsYLK9rfXGWMWdV53sByvq+XMX5njZ3Rvv47//5HzNv86R9/dff/XbmBSJiMYWfffzJse+fdl/MRecJAAAAAABA2aqqARdFvTTqpqfVFUf1pFnrm2WJ83ajsq0zISZOTIpZwrnpXREw2u3HytjDwsrY40afmSV8Pho3Pn/auOldsH20msJp3rb9n23cKszTscQ+xT9Gf/vxJ/lx1UFZ83ve1fFaAgAAAAAAUL2rrCPdXTm6aPRe52zbLHYLXyh0P78KUee9rK7c826e6uepZnXXvc7u1NdjHy9r34rft8v6bNG8zRMAAAAAAIAyve7u56MXO58XxeLHsXjxrJngMgmg10AEbc9b6B4V9KYV6H7581/kbfYve9z0rvgZ+33WwuBo3DqZp2MZF8cTxduqC+hlze/3SV2uJQAAAAAAAPVyFXWkCIsXb4KImx1iUelZxCLVxc8uV9QF+dvNzfe+9niaea2fpxrUXWP7J93D0TkmnH5WO+3Z7xM562ISI/M8TwAAAAAAAMpwK8tmHvUsny3TTTOhWtEZelqBMYr4sZL8eCE/ivhR/CuuXBC/xxjjbfdj3GkrHMTqB7eX7+Tjx8/xmX6vn6+yXexOHe/FOF89fXpknNhesZAY+/pgdfVwcsdNBP1+78jxja+Qv7W9fez5j47ZxfEfr69P/WyW3Tp2nNNcxrFc5XEc9/f5PGi3j9y8EUXfj96tenHVypjfdZgzl6XMa3nSsY+rw3kAAAAAAABgUt3qSFHb+7JQx4v9mGWcaR2fp3VVv4z9PE3UhY+rgV8HV1EDvI73ApT1fbns8108X1E3H9+3CGcfrA/y1y8ivz693qndM0afO4/LmicAAAAAAADvi0aj+bYelNeHWscedbwfj9sVLeo9TgC9QlHIm9YZOgqY42HykQiMx+sxyUYrSUdB9PPV1YnPR5B82rhRRL97b7KQFwXAeMTrUfSLYvt4kTBea7WWjkzW4irYUQDd2v6uUKCNL8FKXmB8tPZFfrzFfYhjmlUUbc/y+VldxrFc5XEc9/ej+VFcsT2uZ/xevPZlK2t+12HOXJYyr2Xdjx0AAAAAAIDj1a2OFPXiYi25s9uZLYBe6DYd254lYFtWvStq4LFo+3WspV1FDfA63gtQ1vflss938dxGEDsC2uP7Ft+rafX004zu+RiJ4P1XpwTQi53S43s+a3f4y5onAAAAAAAA74uokXy7uZlebm7mdZnjFkuO98Py8p3Kz8yNyvfgPRYF+qLjwrnjYnJF4S4Knd//+MORz3+7+WLquKcV8eL9aTcI/GrKfhZXwV4+YcKPCo1fP39ey0LiPB1L+MdpK7v3z7dq+UWUNb/fJ3W5lgAAAAAAANTLVdeRon5aXLR8lu7JEWYtdkm+XcGNEsXa7rRaJm/NW/081aTuGud12rmNhgDjiqHwWUXHjHGzBMk7hc+c5SameZwnAAAAAAAAZYpaStRM3gyH6bP7n+aNqMdFXTUa+8aiw1FTqUMHdAH0ikQxvjhBRqtvzyK6lm9tbx9ZGX7auPHZWceNiVlcwXvajQPF7Ra3WTTthoS6mKdjSVOOJ727hleprPn9vqnDtQQAAAAAAKB+qqgjRbfmomIX5KJOZ3filai1VhFAjX0fD8dG/fvli80r34/rYN7q56kmdddisDzq57Ff8X0Yn5vTau2ziLHGj3PU5f048R0YPwexD41m40zbGzcP8wQAAAAAAKBMUU+JR9RMolbz2f376a//8q/y51/+/Bf5zxE+T+9qRvF68XHVC20LoFekuJJ0yove9y68M9PHPVsBf9qK80dD7ZOFx5jwj9bWrmU4dp6O5Ti3jllpvCxlzW+u/loCAAAAAABwPZRdR4pFpOMxbnQDxDTTArBVdT8eDt+kz1cnF8v+dnPzSHd23o/6ebriuuu078L4fRnFYPZeYeGGWRXvDSkuADG5jaPfzcHgYOZtvS/zBAAAAAAA4LJEPSUC5OM11qgjRXa32EB6FFYvPoqfK9tNV78aBwdHi26XsdrztHGLHc1PE/sRrfrHve7uT3SvjjBxsUAav8cjbjq4vbyclu8sX4sO1vN0LOmYmzwajebUz5alrPn9vqnDtQQAAAAAAKB+qqojRcD1y7GbGkbB2mm1wGndl6P2WpUI2I6HzuM5bvD46unTyvapjuatfp5qUHeNc1dc7GD8O9NqLU3sY/z8eH19ojP6LOK6jHe9yLf7dDh1nOI5iesaCzXMah7nCQAAAAAAQJmihhI1oIs4a/3oogTQK1Jc9bm4Uvx5TVtN+qwFvVkmYYTao0A/rVAbqyiMVmOIbcdNCPHZq57cs5qnY4lVLMYLyiPLVxz+Lmt+v08uei3j73/6wU+OfT/m/db29vt+mgEAAAAAAK6dKutIt98FXMfDtN3u/tQA+k57sv46rYN6Wfs5TdR444aO8cXYo0YcNeDrUs+8ihrgPNXP0wW/L5d1vosdzeP7Mn7O8t+fZBPfqzj/400CZhHXJPYp9vtw27ud/BpN7E8hED/6bo7/3WnmbZ4AAAAAAACULeorZ202XTUB9JrIslu12p8oLp7Wjj9Wgl9YWJxarB2JIHK8HyvJf766euYC6VW5TsfS7/XTZ/fvH3l9MDiYugBB7GfVq4rXbX7XxXW8lgAAAAAAAJSvrnWkCJBGWHY8dBph1mIX8djHYr05QqhVixBshIHHg7ZRA7Zw86Trdi9Aneuusf1isDs6nhcd+V51Ouc6p7eX70xsLxaCKAbQY9GIcef9bs7TPSMAAAAAAAAcdcM5YZppRdhpojj4r7/77amrVcfq2VFUnFb0rYvrciyx/SgYFx/TrlksJBBFXOrJtQQAAAAAAGCaOteRIuA6LvY1QujjOoXfR8H1Oogu6OPivE7r4vy+u073AtT5+xIB8HFxLouB8DTlezXqIn5WxesVY4yfh2nf14t8N+fpnhEAAAAAAICrErWsL588ST/7+JP00w9+kv76L/8qr6PUrW6pA3pNxIrcdRLFv1nFyuCxsnU8olDZ7/fyGwqmFXPjixFFxWJRvy7m6Vhiv+qyenjd5vd1c55rGXP5pJXqTyr+AwAAAAAAcD1UUUdqLbXyMcZrqJ3O7kSItRi6jffOWp8qq94VAeQ4Zy9fbB6+FnXf0T7G8RU7VtfFVdcA56l+ns7xfbmM8128Sei4sPe071V8j75qNmfe3/FtjG83xhldl7iO4/eDnBYcn8W8zRMAAAAAAIAyRa1kvFaZCgsuR23n6+ff5DWYqgmgVySK2uNF65gg8bhoYe+j1tKRYnj8HsXKWU1bRXvWyRqFzHhEsTC2++3miyP7E1+OWFG87gHY63osca2+//GHK92n4vwoa35fB5f5D/tFruXi4kJtFiAAAAAAAADgclVdR4pQbtwYMZKHWp++rQcWOy6PPl/Ffh4narwR0B0FceP5283NSkKxZ6kvVlkDvM73Apz3+3LR8z0+x0binB3XBfxN4bPxvYrzfdb9ju/beAC9826c0O3uT3y21Vo609inmad7RgAAAAAAAC5b1ElG4fOoQ0UeOGpHkce8vbych8+j3vpo7Yu0tf1d5fWUG5Vu/T3WaBxdpTqKhxe1OKU4/bpQQDzNtNXcp+3vaSL0vrW9PXUF7+vWEbtOxxL78oc//fHwUdynuJmjuIr6NFl261zbn7ZK+cJCIYBe0vwuS5nn4iSXdS0BAAAAAACYL3WvI0XX5KJRPbDY/TzCv41zdHEuU9yoUQybx40e0+p/01RVX6yLut0LUNfvSzHsPdqXUfeK4qMYVo/fz1Nnj+/b+MIGo20Wx4vPHNeR/TLM0z0jAAAAAAAAFxU1m9Ei37F4ctQrR42no/4YgfR4PWo9EUKvQ65QAL0iHy21jqw+8HJz80hB8STTguJRuCuOO21V7eOMVnafNm7RtO1Pc3fl3pFXZy3cX5XrfCxfPX165JrHP0SnHdO0mzxmWaxg2rjF7Zc1v8tS5rk4i/NeSwAAAAAAAOZb3epIsS/FEPoobFsMzJ6n+/lViP0f3dAx8nJKrXyautQXy3Ld7wWow/clzsNlLNK+19k9198Vv3cxTnF/li8YPp+ne0YAAAAAAADK1nlXq4mg+XELeEeN6+vn3+Q/73WqbwgsgF6RmAjTVt0erWBwmgiVR2v9L588OfLJz1dXJ36P0O+0z00TnyuGhKPwXizOxgoKsf14nBYqfjPl/ToV0a/7scT2f/38+ZHX/2Ft7dSibXEORoE4zsdJphW4izdmlDm/y1LWuTiLi1xLAAAAAAAA5lcd60i3l+9M/B7h1ugiPq3eXFfFLuhRpxwMDmY7/hrUF8swD/cC1OH70pkSPo9rfdqjeLNRzKvz7HPxexffz532ZJeMiywOMU/3jAAAAAAAAFyFfv9tLfGj1tKJW1tYXMwfp9Uer4IAeoWimD2tW/kvf/6LY1eKjtfHg7nx+WJId1pgPIqJ8XfHFSbj9Xi/uOJ1jPNgSqD90doXh/vztx9/kt9IMG3seG3aKvELiws1uALzcyxRiC7eHDE6tpOKva0p/1h9+eSfpv7jNFrIoDg348aK+AetqKz5XZYyz8VZnPdaAgAAAAAAMN/qVkeK/SnWxr4t1FOn1a7rJMK+0WFg3Kxh37rUFy/TPN0LUPX3pRj2juu8tb196mPU0eKksWZRXDQ+jnl8bsbcP+/cm6d5AgAAAAAAcFWmLdpbdzfNjupEwe+rp0/To7W1iX0YrRQd7zeajbHX+1MLoRHSbTSahytYj1bzjjHGReHvZx9/khcSY9yFhcX05s3wxJXYY/+KRcfoYj1eOIx9itfiEWNn2a3D96YFjaet2l2VeTqWuDHidXd/Yj/jusaxxHWcJuZMFKvHr3/8HCHx8XkS4x43/4oLFIyUNb/LUua5OKvzXMui2MfivwHHiRsZAAAAAAAAqL+61ZGig3Jse6RYQyt2ST+Lq6p3fb66mnerPmuX6Srqi2Wfk3mqn6dL+L6c93zvTZlPy4WO+ceJ+zPiHI7Pq6iZF8P0s1hevnOkCcHIRbqfz9s8AQAAAAA4IilXAAAgAElEQVQAuApvc7rdU4PoUYeJRx3qKQLoFYsVp78aPp3a5TmKdMd1ih4Xhe1iODcKdlEwnTZuFCpnab8ff397ShE0wsBZ1plaIJ9l3PMURssyT8cSYuGBWF18/HiiGB03NhRX7h/56uk/p8/uf3rkHMwyT2KOnPQPWVnzuyxlnouzOs+1HDfr+QUAAAAAAOB6qVMdKUK14wH0cXEDRdStz+uq6l2xcPY/rq8fWVh7FlddXyz7nMxb/Txd8Pty3vPd6eweee0sge/by8sT5zv2I4Lk0+7fOHGc6LC/sTh1cYWzjjVuHucJAAAAAABA2aLGklI7dbv7x9Zqov7yq3f116gZVe2GWVG9CNfGatjFTuOniUJ4FOZO6m79/Y8/nHnc+Hzsz3Gh39G4Zw0Fx/7GuHVayXqejiWNdb8vips+jiuMxzFsbX93pmMZdTef5byVNb/LUPa5OIvzXEsAAAAAAADmX53qSFEDPO7miIt0WL5qcQznCcvXqb54Geatfp4q+L6MwuLj4rycpV4+rVv6tFD7eceK6xvn5bzmcZ4AAAAAAACULWqSUS+JxZKLi/oOBgd5/eqXP/9FXmuKekod6okC6DURxex//d1vZ1rlPAqTEcz9l9/99tQVuWOsWceN9+Nz8fnTiuuxD6PPxj6cNPb4/l5khfuyzNOxpHdzadqK4f+wtjZ1ZfP07tpHgTjOw0nHFccf5+isxeSy5ncZyj4XZ3GeawkAAAAAAMD8q1MdaXn5zvTXL9BhuQrnXRi7TvXFyzBv9fN0xd+XuGGo6KzdKeK8Fs9n3Gh0nn2dthDE7WO+s2cxj/MEAAAAAACgTKOGvVErLNZWog708sVm/hz1lFgE+yILCl+WP/uLP//gf//wpz+aGKf4t9//Pv3d3cnCXJnnLVbF7vf6+YSJn2OyRFFucXHhzJ2kp407vkJCTNaLjjtSXCG80WzUYqKfxzwdy3mUefxlze+yvO9zAQAAAAAA4H3x0w9+MnGkv9lpp7/58EPX/xTFelqW3XqvuxzPY31RzZRZmCcAAAAAAEDd1L0GHMHzkQif16XOGudNAH1GVx1ABwAAAAAAAOBqCaADAAAAAAAAzA814POJ83bjOu44AAAAAAAAAAAAAAAAAAAAl08AHQAAAAAAAAAAAAAAAAAAgNxNpwEAAAAAAAAAAAAAAAAAAODy7bxqp73O7oXH2drevpT9mYUAOgAAAAAAAAAAAAAAAAAAQAmGw2Hq7nev1akVQAcAAAAAAAAAAAAAAAAAAChBo9lMj9fXr9WpFUAHAAAAAAAAAAAAAAAAAAAoQWuplT+ukxsmAgAAAAAAAAAAAAAAAAAAAEkAHQAAAAAAAAAAAAAAAAAAgJGbzgQAAAAAAAAAAAAAAAAAAEC5DgaD9HJzM/V7/dTv9VKWZanRbKSPWkvp7r2V/Pc60AEdAAAAAAAAAAAAAAAAAADgEgyHw/RobS0PmI/bedVOP/v4k/x59F58trvfTc82NtIvf/6LI39TFR3QAQAAAAAAAAAAAAAAAAAALkEEzPd2O+lgcJC+//GHfMAImX/55En+c2uplXc8bzSb+e+vu/v530R39M/uf5r+5Xe/rbwTugA6AAAAAAAAAAAAAAAAAADABUVH8283N/NBvnr6z4eDRYfz8ODhanq8vj6xkQikf766mofPowN6/H3xM1fthokAAAAAAAAAAAAAAAAAAABwMa/3u3kI/fad5cMO5/F7BMsXFhePDZZHx/Ovn3+T/9zZ7VR+FQTQAQAAAAAAAAAAAAAAAAAALmgwGOQDNBrNw4H6vX7+vLi4cOLgEVAPB+/GqJIAOgAAAAAAAAAAAAAAAAAAADkBdAAAAAAAAAAAAAAAAAAAgAvKsiwf4ODg/7qYt5Za+euDwcGJg3f3u/nz7TvLlV8GAXQAAAAAAAAAAAAAAAAAAIALirB52NvtpIPB/4XQP19dzX9/+WJz6gaGw2F6trGR/3x35V7ll+Fm5XsAAAAAAAAAAAAAAAAAAABwzS0sLqa791bSzqt2+vv7n6YHq6t5R/N4rd/v5SHzeF5evpNujbqlRzB9czN//urp08MQe5UE0AEAAAAAAAAAAAAAAAAAAC7B4/X11O/1U7/XS18+eZI/xkV39HgUZVmW9jq76eBgkI9RpRsmAgAAAAAAAAAAAAAAAAAAwMVFkPz7H3/IQ+SNZnPmvxsOh6m7382D61XTAR0AAAAAAAAAAAAAAAAAAOASPXi4mj+uIx3QAQAAAAAAAAAAAAAAAAAAyAmgAwAAAAAAAAAAAAAAAAAAkLvpNAAAAAAAAAAAAAAAAAAAAJSru99Ne53d/PlgMEhZlqVGs5FuL99Jd++t1ObsC6ADAAAAAAAAAAAAAAAAAACU6NnGRnr5YnNiA8PhMA+jx2On3U5fP/8mLSwuVn4ZblS+BwAAAAAAAAAAAAAAAAAAAHMqguej8PmDh6tpa3s7/7nRbKbH6+t56Lzf66VHa1/kofSqCaADAAAAAAAAAAAAAAAAAACU4GAwyLufh+9//CEPnLeWWvnvWXYrD6TH6xFGjxD6zqt25ZdBAB0AAAAAAAAAAAAA/j97d9ga2XXmCfys6LfR/QC2ahM2byZUMQMDY+MqEnYYe5GEjYnzQtK215ME3Go6ziZMNAWNN/vG01BWwjhuN5ZmiRNhraqWiQdjUyXWHhIcVMZZCCRUbfJmYDK32h/gdj7ALud0t9Jtu2XZXVe3Wvn94FKSrvTcc84jSzbdfz8AAAAAUIJBf5CKxqB5DJl/lCzLwuUrL6U7+4NB5W0QQAcAAAAAAAAAAAAAAAAAACjBeDxKRR9qto4svlCrpStOQa+aADoAAAAAAAAAAAAAAAAAAEAJrhXFPXesAugAAAAAAAAAAAAAAAAAAAAliFPNwzGC6JM8T1e90ai8DQLoAAAAAAAAAAAAAAAAAAAAJajXrwfKh8ODOxYviiI83+mktxeXlipvgwA6AAAAAAAAAAAAAAAAAABACRaXl0KWZaG31w3j0ei2B+T5JGx2OuHxRx8L+/1Bmn6+srZaeRvOVL4CAAAAAAAAAAAAAAAAAACAUyiGzzfa7TAej1LA/FaTPA/bL2+ljzRbzfDilSvp86smgA4AAAAAAAAAAAAAAAAAAFCS61PNb59sHkPpN8Xw+QfD6VUSQAcAAAAAAAAAAAAAAAAAADhB586vz+xxC6ADAAAAAAAAAAAAAAAAAACUYJLnIc8nxy6cZfOVT0MXQAcAAAAAAAAAAAAAAAAAACjBoD8Im53OsQs3W82ws7tbaSsE0AEAAAAAAAAAAAAAAAAAACqUZVmoN+qVTz8PAugAAAAAAAAAAAAAAAAAAADlOHd+PV13MjwYhl53L+z3Byl8vtFuV94JAXQAAAAAAAAAAAAAAAAAAIAKNFvNdG3Xt8JmpxPq9UZYXF6qtBVzvhEAAAAAAAAAAAAAAAAAAACqs7K2ml63t7Yq74IAOgAAAAAAAAAAAAAAAAAAQIWyLEsPH49GlbdBAB0AAAAAAAAAAAAAAAAAAKBCkzyfmeMXQAcAAAAAAAAAAAAAAAAAAKhIURThmQvfSA9fXF6qvA1nKl8BAAAAAAAAAAAAAAAAAADAKdTb64b9Qf/IjQ0Phodvr6yuVX4IAugAAAAAAAAAAAAAAAAAAAAliNPNbw2Y30mWZWGj3Q7NVrPyNgigAwAAAAAAAAAAAAAAAAAAlKDeaKRg+VFqtVp4qNVMIfRZIIAOAAAAAAAAAAAAAAAAAABQgjjRfBammn8Sc/fOUgEAAAAAAAAAAAAAAAAAACiTCegAAAAAAAAAAAAAAAAAAAAlGx4Mw/6gn14neR6yLAv1Rj0sLi2HlbXVmTl+AXQAAAAAAAAAAAAAAAAAAIASbXY6YfvlrdseUBRFCqPHq9fthstXXgoLtVrlbZirfAUAAAAAAAAAAAAAAAAAAACnVAye3wyfnzu/HnZ2d9Pb9UYjbLTbKXQ+Ho3CMxe+kULpVRNABwAAAAAAAAAAAAAAAAAAKMEkz9P08+j1N99IgfNmq5nez7L5FEiPH49h9BhC7+11K2+DADoAAAAAAAAAAAAAAAAAAEAJBv1BKhqD5jFk/lGyLAuXr7yU7uwPBpW3QQAdAAAAAAAAAAAAAAAAAACgBOPxKBV9qNk6svhCrZauOAW9agLoAAAAAAAAAAAAAAAAAAAAJbhWFPfcsQqgAwAAAAAAAAAAAAAAAAAAlCBONQ/HCKJP8jxd9Uaj8jYIoAMAAAAAAAAAAAAAAAAAAJSgXr8eKB8OD+5YvCiK8Hynk95eXFqqvA0C6AAAAAAAAAAAAAAAAAAAACVYXF4KWZaF3l43jEej2x6Q55Ow2emExx99LOz3B2n6+craauVtOFP5CgAAAAAAAAAAAAAAAAAAAE6hGD7faLfDeDxKAfNbTfI8bL+8lT7SbDXDi1eupM+vmgA6AAAAAAAAAAAAAAAAAABASa5PNb99snkMpd8Uw+cfDKdXSQAdAAAAAAAAAAAAAAAAAADgBJ07vz6zxz03A2sAAAAAAAAAAAAAAAAAAABgBpiADgAAAAAAAAAAAAAAAAAAUIJJnoc8nxy7cJbNh3qjUWkrBNABAAAAAAAAAAAAAAAAAABKMOgPwmanc+zCzVYz7OzuVtoKAXQAAAAAAAAAAAAAAAAAAIAKLdRqoVZbqHz6eRBABwAAAAAAAAAAAAAAAAAAKMe58+vpupPhwTD0unthvz8IS8tLYaPdrrwTAugAAAAAAAAAAAAAAAAAAAAVaLaa6Xo2uxi2X94K8/PZkYH1kzDnGwEAAAAAAAAAAAAAAAAAAKA659avh8573W7lXRBABwAAAAAAAAAAAAAAAAAAqNBCrZYePsnzyttwpvIVAAAAAAAAAAAAAAAAAAAA/JFbWVsVQAcAAAAAAAAAAAAAAAAAACCE5y5dmolTEEAHAAAAAAAAAAAAAAAAAAAo2fBgGHrdvTAejdOk8yzLQr1RD4tLy2n6+awQQAcAAAAAAAAAAAAAAAAAAChJURTh2YsXw35/cNsD4sdjKD1e21tb4fKVl0K90ai8DQLoAAAAAAAAAAAAAAAAAAAAJbk1fB4nndfrjbBQq6X33x0ehN5eN01Ef+rsk+GnP38nTUavkgA6AAAAAAAAAAAAAAAAAABACeJ08xg+j6Hynd1XPzThvNlqhqfX11P4fDwahX/Y2gob7XalrZir9OkAAAAAAAAAAAAAAAAAAACnVJxwHsWQ+QfD5zfFcPrlKy+l9wY3JqVXSQAdAAAAAAAAAAAAAAAAAACgBHGqeXSn8PlNC7VauiZ5XnkbBNABAAAAAAAAAAAAAAAAAABKMJ9lxy6afYLPLZMAOgAAAAAAAAAAAAAAAAAAQAnq9euTzz9usnlRFGla+uLyUuVtEEAHAAAAAAAAAAAAAAAAAAAowcraappsvr21lULmd7LZ6aQ7K6trlbdBAB0AAAAAAAAAAAAAAAAAAKAEMXy+s/tquFYU4fFHHwv7/cFtD4mT0Z+5cCH09roprN5sNStvw5nKVwAAAAAAAAAAAAAAAAAAAHAKxcB5r7sX5rPsMGweLnx4n9mN+3ES+ka7XelBCKADAAAAAAAAAAAAAAAAAACUIM/zMDwYfmzhoiiO9XknQQAdAAAAAAAAAAAAAAAAAACgBEvLS6HeaBy7cJbNV94GAXQAAAAAAAAAAAAAAAAAAIASLNRq6bqXzPlGAAAAAAAAAAAAAAAAAAAAqNbwYBjGo1Hl6xBABwAAAAAAAAAAAAAAAAAAqNhTZ8+GzU6n8nWcqXwFAAAAAAAAAAAAAAAAAAAAp1yccP5xiuLa4edl2XyoNxonfigC6AAAAAAAAAAAAAAAAAAAACWJU823X946VvHxaJQmoUfNVjPs7O6eeFvmTvyJAAAAAAAAAAAAAAAAAAAAfwR6e91jh89nhQnoAAAAAAAAAAAAAAAAAAAAJRgOD1LRjXY7nDu/fuQDPv/Zz1U29fxWJqADAAAAAAAAAAAAAAAAAACU4FpRpKIfFz6fJQLoAAAAAAAAAAAAAAAAAAAAJag3Gqno8GB4zxzvmRlYAwAAAAAAAAAAAAAAAAAAwKnzULMV5uezUKstfOzWNtrtkGVZ5UcggA4AAAAAAAAAAAAAAAAAAFCCZquZruM4d359JlowNwNrAAAAAAAAAAAAAAAAAAAA4AMmeR6KojjRYzEBHQAAAAAAAAAAAAAAAAAAoAS9vW7YH/SPXbjeaISNdju9vd8fhGcuXAhZloXX33wjLNRqJ9IiAXQAAAAAAAAAAAAAAAAAAIASxOnlw4Phpyo8uBFcjzUG/UE4d379RFokgA4AAAAAAAAAAAAAAAAAAFCCWyeaH0ecdn7TyupaePdgmCafr6ytnlh7BNABAAAAAAAAAAAAAAAAAABK0Gw10/VpxK/75a9/deJtmfONAAAAAAAAAAAAAAAAAAAAQBBABwAAAAAAAAAAAAAAAAAA4KYzTgIAAAAAAAAAAAAAAAAAAKBcw4Nh2B/00+skz0OWZeGhVjM0m62wsrY6M6cvgA4AAAAAAAAAAAAAAAAAAFCizU4nbL+8ddsDiqII+/1BunrdbtjZfTWF0qsmgA4AAAAAAAAAAAAAAAAAAFCSGDy/GT6Pk87jxPP5G0Hzd4cHobfXDePRKDx19snw+ptvVN4GAXQAAAAAAAAAAAAAAAAAAIASTPI8TT+PdnZ3Q7PVvO0h8f2n19dT+DyG0GMYPYbUqzTnGwEAAAAAAAAAAAAAAAAAAGD6Bv1Bet1otz8UPr8py7J0P+p1u5V3QQAdAAAAAAAAAAAAAAAAAACgBOPxKBWtNxpHFo/h9BhEj1PQqyaADgAAAAAAAAAAAAAAAAAAUIJrRXHsogu12ky0QAAdAAAAAAAAAAAAAAAAAACgBDcnn0/y/MjiRVGk6eezEEIXQAcAAAAAAAAAAAAAAAAAAChBvX49gN7rdlPI/E56e910p9lqVt4GAXQAAAAAAAAAAAAAAAAAAIASLC4vpSnocbr5U2efTK+3iqH0zU4nXdG59fXK23Cm8hUAAAAAAAAAAAAAAAAAAACcUs9d+rvD8Pnjjz4WFmq1UKsthKK4dlsg/blLl9K9qpmADgAAAAAAAAAAAAAAAAAAUJI4Af2nP38nrKytpgdM8jwMD4aH4fN4f2d39/B+1UxABwAAAAAAAAAAAAAAAAAAKFGWZWnC+Ua7HcajcQqfx+B5ls2n11kigA4AAAAAAAAAAAAAAAAAAHACYhC92Wqma1bN+UYAAAAAAAAAAAAAAAAAAAAgmIAOAAAAAAAAAAAAAAAAAABQjkmehzyfHLt2ls2HeqNRaTcE0AEAAAAAAAAAAAAAAAAAAEow6A/CZqdz7MLNVjPs7O5W2goBdAAAAAAAAAAAAAAAAAAAgAplWRbqjXrl08+DADoAAAAAAAAAAAAAAAAAAEA5zp1fT9edDA+GodfdC/v9QQqfb7TblXdCAB0AAAAAAAAAAAAAAAAAAKACzVYzXdv1rbDZ6YR6vREWl5cqbcWcbwQAAAAAAAAAAAAAAAAAAIDqrKytptftra3KuyCADgAAAAAAAAAAAAAAAAAAUKEsy9LDx6NR5W0QQAcAAAAAAAAAAAAAAAAAAKjQJM9n5vgF0AEAAAAAAAAAAAAAAAAAACpSFEV45sI30sMXl5cqb8OZylcAAAAAAAAAAAAAAAAAAABwCvX2umF/0D9yY8OD4eHbK6trlR+CADoAAAAAAAAAAAAAAAAAAEAJ4nTzWwPmd5JlWdhot0Oz1ay8DQLoAAAAAAAAAAAAAAAAAAAAJag3GilYfpRarRYeajVTCH0WCKADAAAAAAAAAAAAAAAAAACUIE40n4Wp5p/E3L2zVAAAAAAAAAAAAAAAAAAAAMokgA4AAAAAAAAAAAAAAAAAAEAigA4AAAAAAAAAAAAAAAAAAFCC/f4gfP6znwt//qd/Fsaj0T1xxALoAAAAAAAAAAAAAAAAAAAAJeh191LRoijC8GB4TxyxADoAAAAAAAAAAAAAAAAAAEAJVlbXDovWG4174ojPzMAaAAAAAAAAAAAAAAAAAAAATp3F5aXws8Y7YT7LQpZl98T2BNABAAAAAAAAAAAAAAAAAABKslCr3VNHK4AOAAAAAAAAAAAAAAAAAABQsuHBMOwP+ul1kudpIvpDrWZoNlthZW11Zo5fAB0AAAAAAAAAAAAAAAAAAKBEz168GHp73dseUBRF2O8P0tXrdsPO7qsplF41AXQAAAAAAAAAAAAAAAAAAICSbHY6h+HzxeWlUK83Qr3RSFPQx+NRujcejcJTZ5+ciRC6ADoAAAAAAAAAAAAAAAAAAEAJYsh8++WtVHhndzc0W81bHhLfXg0rq6vhmQvfSCH0GEY/d3690lbMVfp0AAAAAAAAAAAAAAAAAACAU2rQH6SNxVD57eHzP4jT0J+7dCm9vz8YVH4QAugAAAAAAAAAAAAAAAAAAAAleHd4kIo+1GwdWTyG07MsS1PQqyaADgAAAAAAAAAAAAAAAAAAULH5LJuJFgigAwAAAAAAAAAAAAAAAAAAlKDeaKSikzw/snhRFOlzFmq1ytsggA4AAAAAAAAAAAAAAAAAAFCCev16AH17a+vI4pudTnpttpqVt0EAHQAAAAAAAAAAAAAAAAAAoASLy0tpCnqcbv7sxYsf+YDeXjddWZaFc+vrlbdBAB0AAAAAAAAAAAAAAAAAAKAkl6+8lMLlzWbrIx8QQ+px8vlzly6FhVqt8jacqXwFAAAAAAAAAAAAAAAAAAAAp1QMlf/y17+64+ZiOH1nd3dmNm8COgAAAAAAAAAAAAAAAAAAAIkJ6AAAAAAAAAAAAAAAAAAAACUbHgzD/qCfXid5niafP9RqhmazFVbWVmfm+AXQAQAAAAAAAAAAAAAAAAAASrTZ6YTtl7due0BRFGG/P0hXr9sNO7uvplB61QTQAQAAAAAAAAAAAAAAAAAAShKD5zfD53HSeZx4Pn8jaP7u8CD09rphPBqFp84+GV5/843K2yCADgAAAAAAAAAAAAAAAAAAUIJJnqfp59HO7m5otpq3PSS+//T6egqfxxB6DKPHkHqV5nwjAAAAAAAAAAAAAAAAAAAATN+gP0ivG+32h8LnN2VZlu5HvW638i4IoAMAAAAAAAAAAAAAAAAAAJRgPB6lovVG48jiMZweg+hxCnrVBNABAAAAAAAAAAAAAAAAAABKcK0ojl10oVabiRYIoAMAAAAAAAAAAAAAAAAAAJTg5uTzSZ4fWbwoijT9fBZC6ALoAAAAAAAAAAAAAAAAAAAAJajXrwfQe91uCpnfSW+vm+40W83K2yCADgAAAAAAAAAAAAAAAAAAUILF5aU0BT1ON3/q7JPp9VYxlL7Z6aQrOre+XnkbzlS+AgAAAAAAAAAAAAAAAAAAgFPquUt/dxg+f/zRx8JCrRZqtYVQFNduC6Q/d+lSulc1E9ABAAAAAAAAAAAAAAAAAABKEieg//Tn74SVtdX0gEmeh+HB8DB8Hu/v7O4e3q+aCegAAAAAAAAAAAAAAAAAAAAlyrIsTTjfaLfDeDRO4fMYPM+y+fQ6SwTQAQAAAAAAAAAAAAAAAAAATkAMojdbzXTNKgF0AAAAAAAAAAAAAAAAAACAEkzyPOT55NiFZ2EiugA6AAAAAAAAAAAAAAAAAABACQb9QdjsdI5dOE5G39ndrbQVAugAAAAAAAAAAAAAAAAAAAAVyrIs1Bv1yqefBwF0AAAAAAAAAAAAAAAAAACAcpw7v56uOxmPRmF7ayvs9wdhoVYLG+125Z2Yq3wFAAAAAAAAAAAAAAAAAAAAf4TixPPLV66kkHpvr5uuqgmgAwAAAAAAAAAAAAAAAAAAVOjp9etT0ntdAXQAAAAAAAAAAAAAAAAAAIA/almWpe2PR6PKj0EAHQAAAAAAAAAAAAAAAAAAoEJFUczM8QugAwAAAAAAAAAAAAAAAAAAVCSGzzc7nfTweqNReRvOVL4CAAAAAAAAAAAAAAAAAACAU6i31w37g/6RGxuPxocT0M+tr1d+CALoAAAAAAAAAAAAAAAAAAAAJYjB8uHB8FiFn7t0KSwuL1XeBgF0AAAAAAAAAAAAAAAAAACAEtQbjbDRbt+x8GSSh/3+IL2dZdlMtEAAHQAAAAAAAAAAAAAAAAAAoATNVjNdR4kB9afOPhmeuXAhvF57I4XWqzTnGwEAAAAAAAAAAAAAAAAAAKAacfL55Ssvpbe3t7Yq74IAOgAAAAAAAAAAAAAAAAAAQIUWarX08P3+oPI2CKADAAAAAAAAAAAAAAAAAACQCKADAAAAAAAAAAAAAAAAAABUaPvlrfTwm5PQq3TGNwIAAAAAAAAAAAAAAAAAAMD0TfI85PnkyPvj8Sj09rrp/ZXV1cq7IIAOAAAAAAAAAAAAAAAAAABQgkF/EDY7nWMVrjcaYWVNAB0AAAAAAAAAAAAAAAAAAOBUyrIsNFvNj93a4tLyTITPgwA6AAAAAAAAAAAAAAAAAABAOWKofFaC5cc1d28sEwAAAAAAAAAAAAAAAAAAgLIJoAMAAAAAAAAAAAAAAAAAAJAIoAMAAAAAAAAAAAAAAAAAAJAIoAMAAAAAAAAAAAAAAAAAAJAIoAMAAAAAAAAAAAAAAAAAAJAIoAMAAAAAAAAAAAAAAAAAAJAIoAMAAAAAAAAAAAAAAAAAAJAIoAMAAAAAAAAAAAAAAAAAAJAIoAMAAAAAAAAAAAAAAAAAAJAIoAMAAAAAAAAAAAAAAAAAAJAIoAMAAAAAAAAAAAAAAAAAAJCccQwAAAAAAAAAAAAAAAAAAADTN8nzkOeTu6qRZfOh3mhMbU0fRwAdAAAAAAAAAAAAAAAAAACgBIP+IGx2OndVuNlqhp3d3RNrz9yJPQkAAAAAAAAAAAAAAAAAAOCPSJZlKUB+khPM75YJ6AAAAIfYQlkAACAASURBVAAAAAAAAAAAAAAAACVYWVsN9UY9PHPhGymM/vT6elhaXgoLtVooiiLs9wdhe2srXCuKsNFup8+vmgnoAAAAAAAAAAAAAAAAAAAAJYnh8xgw39l9NZw7v57C5+HGdPQYOH/9zTfSxzY7nTAejSpvgwA6AAAAAAAAAAAAAAAAAABACXp73TDJ8zT5vN5ofOQDYhD98pWX0kT0XrdbeRsE0AEAAAAAAAAAAAAAAAAAAEowHl+faH6n8PlNcQJ6DKLv9weVt0EAHQAAAAAAAAAAAAAAAAAAoARx+vknEaegV00AHQAAAAAAAAAAAAAAAAAAoAQ3J59/XBA93o/h8zgFvWoC6AAAAAAAAAAAAAAAAAAAACWo168H0Le3to6cbv58p5NeF5eXKm+DADoAAAAAAAAAAAAAAAAAAEAJYqA8TkGPE87/8otfCr29bhiPRulBMZC+3x+Ep86eTa9x+vm59fXK23Cm8hUAAAAAAAAAAAAAAAAAAACcUpevvBT+y9knUwj92YsXP3KTMXy+0W6HhVqt8kMwAR0AAAAAAAAAAAAAAAAAAKAkMVT++ptvpIB5DJp/0MraarofX2eBCejH9G+/+7cPfeLnP/u50PneZnjiK1/5yCJ/+zffCf/02mtHPuDLTzwRnv/+9+54/25rHOfrp1HDPqa3hmnUmJV9/Mvv/rW0NUyjhn1Mbw3TqDEr+4g/2z/OrP8zah/TXYN9HP/rp1HDPqa3huBn/7HWMI0a9jG9NUyjhp/9061hH9Nbg30c/+unUcM+preG4HfxsdYwjRr2Mb01BD/7p7oG+/gDv4uns4Zp1PC7eHprmEYN+5jeGqZRw3/fT7dG9J9Xjv6Dfb/DjrcG+/gD/04xnTVMo4Z/p5jeGqZRwz6mt4Zp1PDf99OtYR/TW4N9HP/rp1HDPqa3huBn/7HWMI0a9jG9NUyjhp/9061hH9Nbg30c/+unUcM+preG4HfxsdYwjRr2Mb01BD/7p7oG+/gDv4uns4Zp1PC7eHprmEYN+/jkNaoQg+fnzq+nK05Cz/NJyLL5UG80bltNvFf1FHQT0AEAAAAAAAAAAAAAAAAAAO5SDI8//uhjYfvlrSMLxYB5s9U8DJ8XRZG+5j9+8Uvh2YsXK2/Dv/sP//6z/++opD/X/eK99z70f7d3bgAAAAAAAACnxwcnZvzPXjc88OCDOgwAAAAAAABwD6riz4CHB8Pw1NmzKVy+s7t7rM/fH/RDb697+LHjfm1Z4rmdqezpAAAAAAAAAAAAAAAAAAAAp0xRXLvjhuK08xg473W7aWL6TXEa+uLSUlhaXqr8MATQAQAAAAAAAAAAAACAQy++8EK4du1aePa733UoAAAAn0CcXp5lWRiPRilkvrK2evjFHzXtfKFWS4HzGDyPAfRZIYAOAADAPetHr7wSfvzDV8Lz3/9eeODBBzUSAAAAAAAAAOAu/fY3vwkvvvCDVEQAHQAA4JPbaLfDsxcvpitOOY/h8lunnceA+uLyUmg2W+l1FgmgAwAAcM/67f/9TXj//ffDD/7+hbD3v3oaCQAAAAAAAABwl370w1dSgS8/8YSjBAAA+BTi1PMYMo8B9DgJPV7hRvD86fX1w/uzbE7jAQAAuFd989vfSiv/P7/4RfjFe+/pIwAAAAAAAADAXbh69Wr4p9deSwW++vWvOUoAAIBPKU42/+WvfxWeu3QpNFvNVKQoirDZ6VyfjL7XTe/PKgF0AAAA7ln333//4f9t+7V//IlGAgAAAAAAAADchbffeit98V888ED4ky98wVECAADcpTjtfGd3N/zs5++Ec+fX0+Tz/f4ghdD/8otfSq/x/VkjgA4AAMA97eYUdBPQAQAAAAAAAADuzoMPPhj+6uGHw3/77991kgAAAFO0UKuFjXY7TUW/fOVKmpAeJ6DHSejPXLgQ/vxP/yyF0cej0Uwc+5kZWAMAAAB8anEK+puDfrh69apDBAAAAAAAAAC4C3Hq+db/+AdHCAAAUKIYPo/XpJ2HQX8Qet1umOR5CqPHK96LIfUqmYAOAADAPS/+4efDjzyikQAAAAAAAAAAAAAA3BPiVPRz59fDz37+Tgqcr6ytpmVfK4rKl28COgAAAAAAAAAAAAAAAAAAQEVuTkXfaLfDuwfDyttgAjoAAAAAAAAAAAAAAAAAAEDFsixLQfSqCaADAAAAAAAAAAAAAAAAAACQCKADAAAAAAAAAAAAAAAAAACQCKADAABw6nyp2Qqv/eQnGgsAAAAAAAAAcIT49ys+/9nPhb/9m+84JgAAAA4JoAMAAHDqvP/++6H9nQ0hdAAAAAAAAACAI7z9v99KN99+6y3HBAAAwCEBdAAAAE6d++67L23pxb9/QXMBAAAAAAAAAD7C1atXwz+//Xa68fAjjzgiAAAADgmgAwAAcOp889vfSluKk9B/8d57GgwAAAAAAAAA8AG3Tj3/6te/5ngAAAA4JIAOAADAqfPEV74S/uKBB9K2fvTDVzQYAAAAAAAAAOADfnzj71Tcd9994U++8AXHAwAAwCEBdAAAAE6l/3pjCvo/v/12uHr1qiYDAAAAAAAAANzw29/8Jrz//vvpnb82/RwAAIAPEEAHAADgVHrgwQfDl594Im3tx6+Ygg4AAAAAAAAAcNOPfviHv0vx8COPOBcAAABuI4AOAADAqfXNb38rfOYznwmv/eNPwrVr1zQaAAAAAAAAACCE8PZbb6XXv3r44XD//fc7EgAAAG5zxnEAAABwWsU/IP3q178WXnzhB2F+fl6fAQAAAAAAAABCCL///e/T68P/yfRzAACAsk3yPOT55FM/JcvmQ73RONE+CaADAABwqv31174Wrk6uajIAAAAAAAAAwA3/8rt/dRQAAAAnZNAfhM1O51M/rNlqhp3d3RNt19yJPg0AAABOWJx8/vz3v+fYAQAAAAAAAAAAAADgGATQAQAAAAAAgP/P3v22xnXliaJeJ/itVR9Atk7CyZsEiW5oOPZEvsnJ0HJjmYQQe8DOcZPE4bYd3MkkdByBTzjQPbkB5Q/JdbeJ3RAnJjqWL2M3IY1l2grTpLFy7IGBGSTSbwIJsvUBSv4A5/Lbdrml7ZJUkmpX7ap6HihKqirtWnuttfdeWmv/1gIAAAAAAAAAoEDHx8bSdz98v+xRW9k8Vjlf6b12EIAOAAAAAAAAAAAAAAAAAABARgA6AAAAAAAAAAAAAAAAAAAAmS2yob3OfHx6Q99fqVTSgecOLnut3rZiyf3BoaE1t5f/29G9o2n7wMCq285/Zi035+fT1OWpZZ8aGBhIe/aOZj9fOD+ZqtXqqvu4WnrqiX2vVPoayoPVzM3OpplrM+mbmWv3feqx4V0N5/Nq6W9WWa32HTVHXj7acFo3uq1m1u2Vtldk/d6I1epszSvHjqXFJfU83a1Dmy2TRr67CLVjY25utu5+rffYWKrZx11NbZux/Zq+SiUNDg6tus1W1JONpg0AAAAAilJEn1VRfX8rfc9m+i+LGLvIy2+zVX3W3dZfnQrssy6yzuqzplV579y7nHPvxjSaT3EfwPaB7Q3XqU65b6KI9G5me/n0NXLsuH4AAAAAlEsn9I21Ip4oiSkSU3SXmKK1GSO4o11jBCt9TyOa2W9vjIBW+U//5T8/+H++++F7Gb6GG9evp/9+YPmB0Yx8e/jBhzb0d3HAnZuYWHNbcVB+8ccv152O2HZ8R8174+P3nWSOj42t6wJXbxu/PXXqXoPx+UOHspNMTb19XCm9a6md2H5x9Gj2c6OuXJ5KZ06fXnbSW0mctN8cG1vWAF5JkWXVSB79+S9fN9zYj4b+k48/seL7Kx0HzazbK22vWXm20bTmrVZn092LaNTzvKiT//Yf/76u78qnea3vbrbYl9+f/njZMbuSqGtHjh5tuEFb1HEX23vrxP9Yc7tRryK9+W0WWU82mzYAAAAAaLYi+qyK6vvLa2b/ZZFjFyttsxV91t3UX50K7LMuss7qsy6vfN7+rwuTacfOnS1Jr3PvHc69a2vXuXcj4/S/uFvWq43Td8p9E0WkdzPby6evkWPH9QMAAHrbpYsX09gbx5tyDzwAzdEJfWOtiCdKYorEFN0lpmhtxgjuaNcYwUrf04hm9tsbI1ifdo4BLxXXwrgm1ruO1s4R9epsTDDw1okT2fH09jvvtCy9kW8PtOzbaIs4aJsxO8WBg/cP/l+Zmqr72ZXkZyvanputqEgxg0fkw98//kTWAGxEHJQxs0wjDcV0t1EVn49HNTcbTSOaVVaNyJfFatbz2VZrZZ41w5Wpy3W3EvWl0XpZBnGhyzdMVhPHRu14WuvYKOq4i/x9/tDPG9pufGYzx/J6lTltANCt3vzVG9k/xDGwCgAA3K+IPqtW9bkX2X/ZTbqlvzoVWOZF1ll91rQq7517y6Wbzr2Nin2L+hHj9I3WwyJ02rhyJ3L9AACAznDyw4/S1q1blRZAD2lG31inxxMlMUX3EVPUHr02TmCMoHcYI2hcbQX4WCU+r5Z/8Zwfd70wOZk9b9/e2OQhzSQAvQf8/vTpTR+Q0birVfCaqMzRQGpEVPr8Z0fbMJt15EOcoNa6MD/z1NPZzBAbUTtpbiTPm1FWjaiddBqx3n8MWq1VebZZkcbV6tTUCg3Jsol/ojba8Frr2CjquIvXIt3rrSe1bRapzGkDgG524/r1bO9iYBUAAFiuiD6rVvW5F9l/2U26pb86FVjmRdZZfda0Ku+de8ulm869GxH73+6y7pRx5U7k+gEAAJ0hJulfWFhII7t3KzGAHrPZvrFuiSdKYoruEVPUer08TmCMoLsZI1ifwaHBVKlUsmtjjLHW8i3OD1FPY3KWeD8m/66Nwz55dxKHeD1WQG+1LR2Stz0jGmWxhP5aKpW+hrOkNmPIZpfXj1mL3srNRBGNjkbSW2+WlnqzIG3USvkWB1ekMd9YjQPwsV3D2YGXF3lVb8aN4V3Dac/o3qzxHD/HZ+Zm57J9y88qEe9tJM+bVVZrifyINOb/Ccirfa4ZiqjbqUl5dm5iYsX34oS91Gr7sVra8w3FqEdL62VcOG+OzWevl1Xkc70Gb6Q5juel9SnqTfyjka8/2TF5fjIdefnosteLPO7i+/INmUjrkaNHU9/dc0BW1+dm79u/peepIupJs9IGAKzPq6+/lsbeOJ4NrMYA6779++UgAADc1ew+q1b1uRfZf7lRG+0XL7rPuhv6q1OBZV50ndVnTT3Ovc69nXLuzYubXKJO5cW+nTl9etk+1m6ua6Ssy3zfRD3NTm+j24ublNbL9QMAAHpXbZL+F186rBYAlFhZ+8bKHE+UxBStm5ii5cQUbYwxgr9pZpqNEXS3uO784ujRrD7WHkuNju7NHjFZSj6/ojzqXbeKJgC9ZOIAjIZIs0WFi5P6ZrYdMyhEpV56Upi6PNVYgzE3O1Cko5kXxZXyLV6Li1N+hqLYh/g9P+tDbfaIvLjA5D8bJ8N4xOuRv/m8ideGh3dl+bYezSiremrpvJe+ycn09hqNxfysRrEva830tJKi6nZqQp6t5+82uh/5WZ/iIhkXz6X5GcdTs26uabb4p6HesRHHf70014692L/aTDa1i2T+80Ufd/m8j3PPuYnPcxfdKNODWQPnlWO/zPY3//1F1JNmpQ0AWJ8IOL/0zxfTv964kQ2wCkAHAIC/aWafVav63Ivsv9yMjfYnF91n3en91anAMm9FndVnTdF579zr3NtK27cPrJAXw9nrsSLDUt/MXGtoH8t830Q9zU5vkWPrrh8AANCbaquf9/f3p0cefVQtACixsvaNlTmeKIkpaoiYopWJKdoYYwR/08w0GyPofnEcLC5W77vexDW1ds34YuDLexOo1Jv8u5Ue6MlS6hH5gzA/I8J6xYGfb/g0MptNXAzzM1nUm+GkSG/Wm8lo7v50//70x/e9FgfvWie0eL9ew/ndBvO82WVVz+Dg8pNMI42+qdxnRltcbqtpRZ41y52ZrZbXt9G9o9k/E0vlG+dlUi9/V7qBaKk4Z0TDIRodX/zxy7qfL/q4q5f3K834Umvo/PbUqZY0ZMqcNgDodv/4+mvZHtZWQQcAAO5oZp9Vq/rci+y/7Dbd0F+dCizzVtRZfdYUnffOveXTLefe9aqtAtRunTSu3KlcPwAAoPxqq5+/YPVzgJ7SzL6xTo4nSmKKMmKK2qcXxwmMEfQOYwQbE9eMP//l62xV+njEz0vHTSPYPIL04714blfweRKA3t1iZoOlB+xKs9CvR2wzLz9TRd7U1OVlr0SaWn2SqDc7UjR287/HbEVLxcHZ6E0PsU/5i2MjDepUUFnlRR4szYfajE0riTQszaNI3+DQYFPTtBmtyLNmyTcCazN2RZ1Zug/16mAZ1EtXbSawRsRxFBe8lY7Doo+7/Peulcf1/jkuSpnTBgDdbsfOnenZffuyvawNtAIAAM3rs2pVn3uR/ZfdqNP7q1OBZd6qOqvPmiLz3rm3nLrh3NvJOmlcuVO5fgAAQLnVVj8PI7t3Ky2AHtLsvrFOjSdKYooyYoraxzhB+xgjKJ4xgo2rTdRQOyeUlQD0LlatLqZfHM2v3HD6vtmD1iMaT/kZEy6cX3mGlXoNkrLMUNGXm00jPzNPWqGBvJp6MzE1cvEvoqzqye9PvjG/VP4fgSi3+fmbTU3PZrQqzzafzvuPgaX1JH/RvLJKmbRL/WPjuaakphXHXf6fnGgwvnLs2H3/MLZDmdMGAL3g1ddfS1u3brUKOgAALNGsPqtW9bkX2X/ZbbqhvzoVWOatqrP6rCky7517y6dbzr0bEfU4X3cey63m0gqdMq7cyVw/AACg3GqT8v90ZCRt27ZNaQH0kGb3jXVTPFESU5QRU1S8Xh0nMEbQO4wRbFzUwzhOVns0MolJ0QSgd7n8bChRMd8bH9/UTucbHKvNelPv9T2jrZ+lol6jdnBwecP35s37T2z52YfWUm8Gjm9mrjX0t0WUVd5ovmFyeWrFi2Y+z9pRbmtpRZ5tVr08XlpPhnMNqMj3sjVk6h0bzZptphXHXb0bnqJcnnz8ifTMU09nsxe1q2FT5rQBQC+IgdUXXzqc7alV0AEA4I5m9Vm1qs+9yP7LbtMN/dWpwDJvVZ3VZ02Ree/cWz7dcu5dSdSFejfFRJ19/tDPl/3VelYKarZOGFfuZK4fAABQbjt27szSN/Izq58D9KJm9411YjxRElN0j5ii1uvmcQJjBCRjBBsSdfD5Q4fST3704+x5tUcZ6qoA9JKJE+3DDz604iMqznrECfL42Niyv4iL0WZmP4gLXSU308/MCg2iC5PLGxz1ZjwqWuRpvYMt33CqdzLbPjCwrtTl82W9f9vsssqL/ck3gOs16vMNnGaUW7PrdmpRnm1Wfvah/PFT73habRawdsgfG808hltx3EWdX2mmtKgrcX6Ihk08omHTysZ6mdMGAL3ihcOH07P79t0bcAUAgF7XrD6rVvW5F9l/uVlF9ItvRjf0V6cCy7xVdVafNUXmvXOvc2+rRVrr3RQTdXZpPY06fm7i84ZT1wn3TRSZ3rnZuVVvNipbHXH9AACAcnv3g/fTdz98n/bt36+kADpA2fvGOi2eKIkpWkZMUet18ziBMYJi0myMoLvdCT7/eVZnOoUA9B4QB3G+gbCZ2Q/ixJufladegyMaX/mTcX62o2ZZ6eQaJ6d4zp+cYtaU9TYEG7WZRlWzy6qePaN7l72ab9SnOv8AFFVuzdCKPNuoOAbyF4T87ESpzixXV6bqzwBWFpVKX+nStNZx9/Y779zXYMyL8oq68/d3GzWtUua0AUAv6OvrywZb4wEAANxRpj6r9fa5l7H/sgy6tb86lbDMG6mz+qwpe9479zZHN597GxX3FsR4btTvzdx42QxlHlfOi/sb6q0aU3uU8eYs1w8AAACA8mpm31gZ44mSmKJ1EVPUOr0+TmCMYGOMEXS32uQHca3481++ziYLW+1xbmKi7fkhAL1H5A/iOOFsZsaLfIMjTl75RuNU7vd6Dc1mWenkWm8GojhAf3H0aGEFX+8716PZZZUXF82lF+44aS1Nc72yLKrcmqXoPNuofEO81njKyx9PUSZlmnGpEzRy3MU/iXFxzh8DeXEMRKOmlStglDltAAAAAPSmsvRZbbbPnTv0V7dOo3VWnzVlznvn3uZw7r1TV2PcNm7yLMONXGUdV+4Wrh8AAAAA5dXMvrGyxRMlMUXrIqaodXp9nMAYQW8xRtCYubk7x/aRo8VNhNJsWzoilT0kKs5qM8NsdMaPaCDFgbx0hog4WKMRENuMWTzWs3R/fD7SurSRMTV1eVmjIn+hrH1XO8XFIvKhSJudSaTZZVVPbGvpRTLKqnYhjYbi0n1Y68TfqKLqdmpRnm1EviGyUqO73vEUZfL2Jma+KlLMDlY2jR53kc8xs048oq7HhTv+ua33T17UmahHa83C0yxlThsAAAAAvakMfVbr7XMvU/9lkf3i69Wt/dWphH3W66mz+qwpa9479zZHN597a2IsOX9j3GK1mubn57MVWpbeIBdjuVG3om6vpVPum6gpU71rN9cPAAAAgM3phL6xTo0nSmKK7hFT1BrdPk5gjKD4NHcaYwRrW7x7fu3roDohAL1kBga2F9aYiRl64uJVawjE8+9Pn97wgRonxqUzkGSNjHeq2UkxPwNO7fPtEiewL/745aon7MeGd913oYjf4wLSqHozzGxkNopml1VelMXShkyczGvbnpm5tuzTw8O7mvKdRdbt1II8W6+laamJ+rTSDC2Luc9euVsmZWhkRCNr6bER+xWPZqStncddNBLjEfkc3/n70x/fl5ZoWEbdanU5lDltAAAAAPSm9fZZtarvr8j+y80qul+8Ud3UX50KLPN2jxPps6YZee/c69zbatu3D6xYv6Ic3jpxYvlNjOcns5vR1qqTnXTfRCogvZE/5yYmmra9dnH9AAAAAFi/Tukb66R4oiSm6D5iiorXC+MExgj+pplpNkbQ3WrjrPljvswe6JnSITsY8yfEOFDrzSLRiJipJC8ucKnObEXRYBoscOaVOLl+98P39x75WWFiH/Mzx+QN1GnUfZNrOK2l3kwng4Pr3+9ml9V9aRoaWtaIje1G2uPCWSvDdLfcVpphp2yKzrP1yje6l+ZzvUe+YZkvi3aqV4eblbayHHe1Blq9+t7uVTvKnDYAAAAAelMjfVat6vsrsv+yW3RTf3UqsMzLNE6kz5qN5r1zb3l027l3o44cvf9mq3o3YLZS2caVe4XrBwAAAED7NbNvrEzxRElM0bqJKSqecQJjBPyNMYK/eezupB5TU5fLkaAGCEDvMdHIy88Ucub06Q1lQpx0843G2gUyf5Fr9WxFb7/zzn2zX8TsSvUaczVxEsv/Tb0ZZ1ZSm/Wk3nY3opllVU++TK5MXb6v3EY7pKFYU3SeNSoaHs1o6F0pycXksV3D9x0bka+NHhtphX+kUguPu9WO/aUOHHzuvteKbkiWOW0AAAAA9KZm9Fm1qu+vyP7LbtBt/dWpwDJv5TiRPmuKynvn3nLoxnPvRtVb2We9N2wWoSzjyt3E9QMAAMrlzV+9kT0AIK9ZfWNljidKYooa276YosIYJ7jDGEHvMEbQuKh7MQlCnCNeOXasI/ZfAHoPys/UEQ2i+fmbG8qIPaN7l/0elT9m/sg3sOrNblSkaPSdPHXqvm94dY0D8xe52VViP946caKhlMbn6u13vgG6Hs0sq7x8mUTZ5WeaakdDf7OKzLNGTdVpKMYFYq1HflavuACX4UISdbjeDGDxD1gjogyeP3RoxWOp6OMuZkiK74/HWv/8LdZ5fzPH8FrKnDYA6GUPP/hQunTxojoAAEBPamafVSv63Ivuv+x03dZfnQou81bUWX3WFJ33zr3t143n3o2qt5JJX0nOFWUYV+4Wrh8AAFAucb/DHy5dSjeuX1cyANTVrL6xssYTJTFFDRFTVBzjBHcYI+gNxgjWJ47rxcVqtt9x3n3y8Sey+9ZXekS+tpsA9B4UF6QjLy9vFG30ghQXuPyMJPkZezbbYNqo2owQS8WJ7JVjv1zxhFYvrXEwx8G6Uh7F6/F+fnaa2M6RXONzvZpZVnn5G0MiT5Ze3OO76802U3ZF5lmj8o3uyMdzExNrPn576nf3fUN+W+0Sx1K92byeeerpFWeqideX3jwUn6/3z1eRx13tmK+l5+8ffyL7p7beduO1erMWbR/YXkiulzltANDrtm7dmk5++FGvZwMAAD2o2X1WrepzL7L/stN1Y391KrDMi66z+qxpRd4797Zft5571+vOjZn/476/Ghwc2uymm6IM48rdwPUDAADKp3a/w6uvv6Z0AKirWX1jZY4nSmKK1iSmqDjGCYwR9ApjBOsX59l6k7WU2ZaOSWmPmJuda3hmgri4bFTMyhMzqjTj5Bgz2iydzT5/AORnNWqluBh8M3Nt2U0OcaBGet9+5537UlKb5ShfBvH3MaNEXGAGhwbT9u0D2WwT8Xq9GVlCbL8Zja1mllXe6Oje+xq5Nc2eqahVdTsVnGdruVLne0dzK0CsJOpL1LGldSpuvMn/01NPo/kbx+NGZhCLYyPq9CvHji17vTZTTbwfx8bfXp+rezGM/YkG49I0FHncxbG+tDwiTfFaPGK7lUrfsu/LqzeLVLOUOW0A0OtGdu/OZgOPWcH37d/f69kBAEAPaXafVav63Ivsv9yMVvaL19Ot/dWpwDIvus7qs6YVee/c69y7ms2ce+uJsfiVXl+pzBvJj067b6Ld9a6dXD8AAKBcYtXzhYWF1N/f734HgA7VaX1jZY4nSmKK1iSmqPnaMU5gjGBjmllPenWcwBjB+sUxsJ59XpqH7SIAvWTiQFtpRvhmikbRm2Nj990QsBFR8Zc2GJeKi1+cDNopGn8xg8bSC1dcgKPBl5+tJN09eUVDr95s+3ERX6lxuFT8/Z4GGwhraWZZ5UUat48P3zZJUQAAIABJREFU1L1YNiv9Na2q26ngPFvL1NTl+z6xnob3ntHRZXUs8i0aoGuVR6P5+9jwrvXszvK07R1Nb1frHxuNfn80Vus1WIs67uKGpUplqm7DtZFtNnJDz0aVOW0A0OtefOlwFoAes4IbkAUAoJcU0WfVqj73IvsvN6qV/eL1dHN/dSqwzIuss/qsaVXeO/c6965ks+fevPjO9eR31NdGbrjstPsm2l3v2sn1AwAAyuXTT85m6bH6OUDn6rS+sbLHEyUxRasSU9R87RgnMEawMc2sJ706TmCMYP3iGGjG5CSt9EBHpZamiotPMxpzUelXupA1e8abjajNQJQXjdyVTu5xk8MXf/xy3Qd0fD5mImnmTRKpiWVVT73ZYyL9kW+drMg8W0mtYbdUzEqynnpUrzzqNUDbJepG1PH1HhtRn6JhUG+WsJoijrvaNtd7TEZ6Y5tFzqRT5rQBQK975NFHs9nAY1bwWAUdAAB6RVF9Vq3qcy+y/7LT9EJ/dSqwzIuqs/qsaWXeO/e2Xq+cezeitmJ+vZs5260d48rdxPUDAADK49atW+mr6WmrnwPQsGb0jZU9niiJKVqTmKLmMU5QnzGC7mWMoDcIQO9xzRrQHx3dW//1Js94s1FxMag3K8arx47Vnakn3b3I//kvX2d5tNYJLd6Pz8Xni7rwFHXzRb1G/Z4VyrPTtPqGlZgFKy9mH1qPerN8RQN0pXraDpG+Ro+N2J849v7lL1831Fgs4riLNNQ+F2lYbbtL09uKRmSZ0wYAve6Flw5nORCroAMAQC8pqs+qVX3uRfZfdpJe6a9OBZZ5UXVWnzWtzHvn3tbqpXNvI2o3ntbKu9k3XDZTN02E0A6uHwAAUA6fnbX6OQDr14y+sbLHEyUxRasSU9Q8xgn+xhhB7zBGsH6xOvyZj0/X/bt4LyZHaWQF+Vb5T//lPz/4f7774fvSJKisbly/nv77geUnO/m2XH7mn0qlr6tmooiZaOZm55YdwLF/AwPb1z2rEXST2rERDdr4OWaiiWOiGcdGkcdd/pw1ODRYmlm6ypw2AOgVMTP4f9v1f2V7O/7+e2YHBwCg5zW7z6pVfe5F9l9STkWVedF1Vp91eTz84EPL0vK/LkymHTt3tiV9zr1AJzPmCQAArbO4uJieGN6V+vr60tcz1+Q8AC3X7fFESUwRwLqUbYygTGPAzx86lOVPBOMvnbD7rRMnlk1kEUH6J0+danu+CUBvkAB0AACA3nL0//5F+mp6OvX39xugBQAAgB5RppsPAAAAABoVfRom2AcAALhfWcaAI/A8AtBj4pJYNb4mAs8jAD2CzSNYPyY8iYlP8kHqrRb59kDbvh0AAABKbORnu7PELSwsKCYAAAAAAAAAoLRiYTXB5wAAAOU1Nzubpe3I0eVB5Rcm76x8Hiuen5uYSOcmPl/2ejsJQAcAAIA6YmA2BmjjAQAAAAAAAAAAAAAAG/HNzLXsr2IF9Jqb8/NZYHqsfj68azh7dXBoKPs93ms3AegAAAAAAAAAAAAAAAAAAAAFGhwavLfxmWsz2fOevaOlzHIB6AAAAAAAAAAAAAAAAAAAAAWorXz+zd2g83Bl6nL2PDg4dO+1WPm8Wq0uWym9XbaoCAAAAAAAAAAAAAAAAAAAAM13J8h8Mp05fTr7fX5+PlsBvVKpLFsB/d3x8ez5wMGDbS8FAegAAAAAAAAAAAAAAAAAAAAFOPDcwXRhcjLNzc6mV44du/cFx8fGsiD0mpvzN7Pf4/PtJgAdAAAAAAAAAAAAAAA6xJu/eiPt+Ludad/+/YoMAACgQ5yb+DxdOD+Zvpm5lvoqlTQ6unfZ6ufp7mcWq9VlQentIgAdAAAAGhQDuOHdD96XZQAAAAAAAABAy126eDH94dKldOP6dQHoAAAAHSSCyo+8fDR7rCQ+U4bg8/BACdIAAAAAHSEGb2MQNwZzAQAAAAAAAABabfpPV+U5AAAAhROADgAAAA169fXXsg+e/PAjWQYAAAAAAAAAtNStW7fSV9PT2VfW7mEAAACg+92cn0/VarWl+7lFvQIAAIDG7Nu/Pws+X1hYyFZD37Fzp5wDAAAAAAAAAFpi+uqd1c//644d2T0MAAAAdIYL5yfTlanLDad1cGgoHR8by36+cnkqvXLsWKpUKumLP36Ztg8MtGSfBaADAADAOsQM4mNvHE+ffnJWADoAAAAAAAAA0DKffXI2+6p/tPo5AABAR4nVy2euzWwoyVN3A9djG1OXp9KRl4+2ZNcFoAMAAMA61FZB/2p6Ot26dStt27ZN9gEAAAAAAAAAhfrrt9+mhYWF9Oy+fSbMBwAA6DBLVzRvRKx2XnPg4HPpm2sz2crnB5472LIdF4AOAAAA61RbBf2zs2fTW//zf8o+AAAAAAAAAKBQn35yNm3dujW7ZwEAAIDOMrxrOHtsRPzdv/3Hv7d8fx9QxwAAAGB9YhX0/v7+dOmfL6bFxUW5BwAAAAAAAAAUavrq1fTiS4fTtm3bZDQAAACFE4AOAAAAGxAzit++fTv19fXJPgAAAAAAAACgUCO7d6cXDh+WyQAAALTEFtkMAAAA6xeroMcDAAAAAAAAAKBo737wvjwGAADoUDfn59P8/M2GE1+p9KXBoaG27qwAdAAAAAAAAAAAAAAAAAAAgAJMXZ5K742PN7zh4V3D6dzERFuLQgA6AAAAAAAAAAAAAAAAAABAG1UqlTQ4NNj21c+TAHQAAAAAAAAAAAAAAAAAAIBiHHn5aPZYycy1mXRh8ny6cnkqCz4/PjbW9pIQgA4AAAAAAAAAAAAAAAAAANAGw7uGs8eZwdPpvfHxNDg4lPbsHW1rUTygIgAAAAAAAAAAAAAAAAAAALTPgecOZs9nTp9ueykIQAcAAIAmefNXb8hKAAAAAAAAAGDTLl28mB5+8CEZCQAA0EMqlUq2s3Ozs23faQHoAAAA0CR/uHQpnfzoI9kJAAAAAAAAAGzKyQ8/Slu3bpWJAAAAPeTm/HxpdlYAOgAAADRJDPx++snZtLi4KEsBAAAAAAAAgA2J1c8XFhbSyO7dMhAAAKBHVKvV9MqxX2Y7u2fvaNt3ekvbUwAAAABd4sWXDqeTH/2/6e1f/ya9+8H7ihUAAAAAAAAAWLdY/TzdvQ8BAACAznfh/GS6MnV51f2YuTZz7+cDB59r+z4LQAcAAIAmeXb//iwA/Q+XLmWDwI88+qisBQAAAAAAAAAaVlv9vL+/330HAAAAXSJWN18aYL6SSqWSjo+NpeFdw23fcQHoAAAA0CTbtm1Lz+7blwWg/9Ovf5PO/38XZC0AAAAAAAAA0LDa6ucvWP0cAACgawwODWWB5asZGBhIj+0azoLQy0AAOgAAADTRvn/YnwWg/+uNG2n66tU0snu37AUAAAAAAAAA1lRb/Ty43wAAAKB7xIrmZVjVfD0e6JykAgAAQPnt2LkzPfLII1k63/71b5QYAAAAAAAAANCQ2urnPx0ZSdu2bZNpAAAAtI0AdAAAAGiyF146LEsBAAAAAAAAgHWJSe/DyM+sfg4AANCtZq7NpLdOnEhPPv5EevjBh9JPfvTj9PyhQ+nC+clS7fGWEqQBAAAAusq+/fvTjf99Pe34u50KFgAAAAAAAABoyLsfvJ89AAAA6E7vjY+nMx+fXrZv1Wo1C0qPx4XJyfTbU79L2wcG2r7/VkAHAACAAsSAcASiAwAAAAAAAAAAAADQ2yLwvBZ8fuTlo+ncxET28+DQUDo+NpYFnc/NzqZXjv0yC0pvNwHoAAAAAAAAAAAAAAAAAAAABbg5P5+tfh6++OOXWcD58K7h7PdKpS8LSI/XIxg9gtAvnJ9sezEIQAcAAAAAAAAAAAAAAAAAACjA1OWpbKMRaB5B5vVUKpX021O/y965MjXV9mIQgA4AAAAAAAAAAAAAAAAAAFCAubnZbKOPDe9adePbBwayR6yC3m4C0AEAAAAAAAAAAAAAAAAAAAqwWK12XLYKQAcAAAAAAAAAAAAAgBa7dPFievjBh2Q7AABAl4tVzVMDgeg35+ezx+DQUNszRAA6AAAAtEAMGMcjBo8BAAAAAAAAAE5++FHaunVrz+cDAABAtxscvBNQPjNzbcU9rVar6d3x8eznPaOjbc8RAegAAADQAv39/dmXTP/pquwGAAAAAAAAgB4XE9gvLCykkd27ez0rAAAAut6evaOpUqmkC+cn09zs7LLdnZ+/md4bH0/PPPV0unJ5Klv9/MBzB9ueJQLQAQAAoAVeff217Eu+mp5Ot27dkuUAAAAAAAAA0MNi9fPw4kuHVQMAAIAuF8Hnx8fGssDyCDBf6ub8fDrz8enseXjXcDo38Xn2+XbbolICAABA8fbt358NHsfs5dNXr6YXDxtABgAAAAAAAIBeVFv9vL+/Pz3y6KPqAAAAQA+4s6r58pXNIyi9JoLP88Hp7SQAHQAAAFokVkEfe+N4+uyTswLQAQAAAAAAAKBH1VY/f8Hq5wAAAD3tyMtHS7v7D5QgDQAAANATYhX0mL08ZjH/67ffKnQAAAAAAAAA6DG11c/DyO7dih8AAIBSEoAOAAAALRSroIdPPzkr2wEAAAAAAACgx9RWP//pyEjatm2b4gcAAOgRc7Oz6czHp+vubLw3c20mey4LAegAAADQQrVV0KevXpXtAAAAAAAAANBjduzcme3wyM+sfg4AANBL3hsfzx75IPS3TpxIzzz1dHr+0KF7z9Vqte05IwAdAAAAWixWQb99+7ZsBwAAAAAAAIAe8+4H76fvfvg+m8AeAACA3hCrm8dj+8BAOvLy0Xv7fOH8ZPaoVCppeNdw9hyfi9faTQA6AAAAtFgMIsdgMgAAAAAAAAAAAAAA3W1udjbbvyNHjy7bzwuTdwLNT546lc5NTKRzE58ve72dBKADAAAAAAAAAAAAAAAAAAAU4JuZa9lGYwX0mpvz81lgem318zA4NJT9Hu+1mwB0AAAAAAAAAAAAAAAAAACAAg0ODd7b+My1mex5z97RUma5AHQAAAAAAAAAAAAAAAAAAIAC1FY+/+Zu0Hm4MnU5ex4cHLr3Wqx8Xq1Wl62U3i5bVAQAAAAAAAAAAAAAAAAAAIDmuxNkPpnOnD6d/T4/P5+tgF6pVJatgP7u+Hj2fODgwbaXggB0AAAAAAAAAAAAAAAoyJu/eiPb8LsfvC+LAQAAetCB5w6mC5OTaW52Nr1y7Ni9DDg+NpYFodfcnL+Z/R6fbzcB6AAAANBmMdD8h0uX0vj776V9+/crDgAAAAAAAADoEpcuXszuCejv71ekAAAAPezcxOfpwvnJ9M3MtdRXqaTR0b3LVj9Pdz+zWK0uC0pvFwHoAAAA0GY3rl/PEnDyw48EoAMAAAAAAABAF4l7AcKrr7+mWAEAAHpYBJUfeflo9lhJfKYMwefhgRKkAQAAAHpabZB5YWEhm/kcAAAAAAAAAOh8MSF93AsQq5+bkB4AAIBOIgAdAAAA2iwGmWOwOS2Z+RwAAAAAAAAA6GyffnI2S7/VzwEAAJibnU1nPj5dNx/ivZlrM9lzWQhABwAAgBKwCjoAAAAAAAAAdI9bt26lr6anrX4OAABA5r3x8eyRD0J/68SJ9MxTT6fnDx2691ytVtueaQLQAQAAoASsgg4AAAAAAAAA3eOzs1Y/BwAA4I5Y3Twe2wcG0pGXj957/cL5yexRqVTS8K7h7Dk+F6+1mwB0AAAAKAmroAMAAAAAAABA51tcXEyX/vmi1c8BAADIzM3OZs9Hjh5dliEXJu8Emp88dSqdm5hI5yY+X/Z6OwlABwAAgJKwCjoAAAAAAAAAdL6+vr50+/Ztq58DAACQ+WbmWvYcK6DX3JyfzwLTa6ufh8Ghoez3eK/dBKADAABAidQGn3fs3KlYAAAAAAAAAKBDfffD91Y/BwAAYJnBocF7v85cm8me9+wdLWUmCUAHAACAEonB5xiEfveD9xULAAAAAAAAAAAAAECHq618/s3doPNwZepy9jw4OHTvtVj5vFqtLlspvV22qHQAAAAAAAAAAAAAAAAAAADNdyfIfDKdOX06+31+fj5bAb1SqSxbAf3d8fHs+cDBg20vBQHoAAAAAAAAAAAAAAAAAAAABTjw3MF0YXIyzc3OpleOHbv3BcfHxrIg9Jqb8zez3+Pz7SYAHQAAAAAAAAAAAAAAAAAAoCDnJj5PF85Ppm9mrqW+SiWNju5dtvp5uvuZxWp1WVB6uwhABwAAAAAAAAAAAAAAAAAAKEgElR95+Wj2WEl8pgzB5+GBEqQBAAAAAAAAAAAAAAA61qWLF9MTw7sUIAAAAF1BADoAAACU3Ju/ekMRAQAAAAAAAEBJRfD52BvH08LCgiICAACgKwhABwAAgJKbvno1nfzoI8UEAAAAAAAAACU0/aerWaK2bt2qeAAAAOgKAtABAACg5EZ2706ffnI2LS4uKioAAAAAAAAAKJFbt26lr6answS9+NJhRQMAAEBXEIAOAAAAJRcD1Ldv305v//o3igoAAAAAAAAASmT66tV7iXl2/35FAwAAQFcQgA4AAAAl98ijj6b+/v70h0uX0l+//VZxAQAAAAAAAEBJfPbJ2Swhz+7bl7Zt26ZYAAAA6AoC0AEAAKADvPDS4SyR/2QVdAAAAAAAAAAohZhEfmFhIUvKvn+w+jkAAADdQwA6AAAAdICR3buzRP7rjRtp+upVRQYAAAAAAAAAbfbp3dXPH3nkkbRj507FAQAAQNcQgA4AAAAdYNu2bemnIyNZQt+2CjoAAAAAAAAAtF1tAvkXXjqsMAAAAOgqWxQnAAAAdIaRn+1OX01Pp4WFBSUGAAAAAAAAAG02snt3loB9+/crCgAAALqKAHQAAADoEDFgbdAaAAAAAAAAAMrh3Q/eVxIAAACs6eb8fJqfv7nhjKpU+tLg0FBLM1oAOgAAAAAAAAAAAAAAAAAAQAGmLk+l98bHN7zh4V3D6dzEREuLRgA6AAAAAAAAAAAAAAAAAABAASqVShZEvl5zs3OpWq22pUgEoAMAAAAAAAAAAAAAAAAAABTgwHMHs0cjIuD8yuWpdGFysm3B50kAOgAAAAAAAAAAAAAAAAAAQPvMzc5mQecRfF4LPI+V0/fsHU0HDjYWvN5MAtABAAAAAAAAAAAAAAAAAABaKALNL5yfTFemprIA9JrhXcNpz+jeLPg8gtDbQQA6AAAAdLBLFy+mG//7enr3g/cVIwAAAAAAAAAUKMbox944nr774XvZDAAAwIbNXJtJV6YuZ8HnNdsHBtLo3dXO4+d2E4AOAAAAHezkhx+lhYWFtOPvdqZ9+/crSgAAAAAAAAAoSIzRb926VfYCAACwbrXVzi9MTqab8/P3/vzAcwfT8PCubLXzMhGADgAAAF1g+k9XBaADAAAAAAAAQEFi9fOYIP7ZfftkMQAAAOsSgedvnThx708Gh4bSntHRLPi8UqmUMjMfKEEaAAAAgA169fXXsj/8ano63bp1SzYCAAAAAAAAQAFi9fPw4kuHZS8AAADrEquf18RK57899bt05OWjpQ0+TwLQAQAAoLPFquf/dceObB+mr15VmgAAAAAAAADQZLXVz/v7+9Mjjz4qewEAAFiXWPF8eNdw9idXLk+lJx9/Ij1/6FC2MnpZCUAHAACADvePd1dB/+yTs4oSAAAAAAAAAJqstvr5C1Y/BwAAYAMi+PzcxET681++TsfHxtL2gYE0c20mvXXiRPrJj36cPc/NzpYqawWgAwAAQIfbsXNnenbfvmy29b9++63iBAAAAAAAAIAmqa1+HkZ275atAAAAbFgEnh95+WgWiP7bU6fSnr2jqVqtZiuhP/PU09njzMens9faTQA6AAAAdIFXX38tbd26NX1qFXQAAAAAAAAAaJra6uc/HRlJ27Ztk7EAAAA0RQSfRxD60lXRYxX098bH762KfuXyVNsyWwA6AAAAdIEY5H7xpcNp+upVxQkAAAAAAAAATbJj585sQyM/s/o5AAAAzbd0VfRzExPpwHMHs++IVdFfOXYsPfn4E9mq6K0mAB0AAAC6xAuHD6eR3Qa8AQAAAAAAAKBZ3v3g/fTdD9+nffv3y1MAAAAKNbxrOL39zjvp3/7j3++tin5zfj59M3Ot5Rm/RVEDAABAd+jr68sGvgEAAAAAAAAAAAAAKIdYwfy98fGOKg0roAMAAAAAAAAAAAAAAAAAAJCxAjoAAAAAAAAAAAAAAAAAAEABjrx8NHt0EiugAwAAAAAAAAAAAAAAAAAAkBGADgAAAAAAAAAAAAAAAAAAQEYAOgAAAAAAAAAAAAAApJQuXbyYHn7wofTmr96QHQAAADTdzLWZ9NaJE+nJx5/I/v/8yY9+nF45dixdOD9ZqswWgA4AAABdLDolYnAcAAAAAAAAAFjb9J+uZp+5cf263AIAAKCp3hsfT88fOpQFm9+cn882Xa1W05XLU1lQ+jNPPZ39XgZbFD0AAAB0r61bt6aTH36U9u3fr5QBAAAAAAAAYBW3bt1KX01PZx949fXXZBUAAABNc+bj09kjHHjuYBoe3pX6KpXs929mrmVB6XOzs+n5Qz9PX/zxy7ZnvBXQAQAAoIuN7N6dFhYWrIIOAAAAAAAAAGuYvnpn9fP+/n4TvQMAANA0sdp5rH4ezk1MpLffeSft2TuahncNZ4/jY2PpX/7ydRocGsqC0CMYvd0EoAMAAEAXe/Glw9nOxSroAAAAAAAAAMDKPvvkbPae1c8BAABopqnLU9nWItA8As7rqVQq2fvhwqQAdAAAAKBAjzz6aDYzu1XQAQAAAAAAAGBlf/3222xs3ernAAAANNvc3Gy2xVjhfDURnB6B6LEKersJQAcAAIAu94JV0AEAAAAAAABgVZ9a/RwAAICCLFarDW94+8BAKYpBADoAAAB0uZHdu7MdtAo6AAAAAAAAANQ3ffWq1c8BAAAoRG3l85vz86tuvlqtZquflyEIXQA6AAAAdLlt27aln46MZDtpFXQAAAAAAAAAuN/t27etfg4AAEAhBgfvBKBfmJzMgsxXcuH8ZPbO8K7htheEAHQAAADoASM/u7MK+o6dOxU3AAAAAAAAAOR898P3Vj8HAACgEHv2jmaroMfq5s8f+nn2vFQEpb83Pp49wpGjR9teEFvangIAAACgcDFIbqAcAAAAAAAAAAAAAKD13n7n/7kXfP7MU0+n7QMDaWBge6pWF5cFpL/9zjvZe+1mBXQAAAAAAAAAAAAAAAAAAICCxAro//KXr9OB5w5mX3Bzfj7NXJu5F3we75+bmLj3frtZAR0AAAAAAAAAAAAAAAAAAKBAlUolW+H8+NhYmpudy4LPI/C8UunLnstEADoAAAAAAAAAAAAAAAAAAEALRCD68K7h7FFWD6gIAAAAAAAAAAAAAAAAAAAAJAHoAAAAAAAAAAAAAAD0mksXL6YnhncpdwAAAFpq5tpMeuXYsfTk40+khx98KP3kRz/Ofr9wfrJUBSEAHQAAAHpUdFjEIwbVAQAAAAAAAKBXxDj52BvH0+LiojIHAACgJarVahZo/vyhQ+nK5al0c34++9p4PX5/68SJ9MxTT997vd22qBYAAADQm/r7+9PCwkKa/tPVtG//frUAAAAAAAAAgJ5w8sOPst0c2b1bgQMAANASEWAegebhwHMH0+DgUNo+MJAWq9U0NzebrYA+NzubXjn2y3Ru4vNUqVTaWjBWQAcAAIAe9errr2U7/tX0dLp165ZqAAAAAAAAAEDXu3H9ejZZe3jxpcMKHAAAgMJFYHkEn0dQ+Rd//DK9/c47WRD68K7htGfvaDo+Npb+5S9fp8GhoeyzEYzebgLQAQAAoEfFquexCnqYvnpVNQAAAAAAAACg6336ydlsF2O8/JFHH1XgAAAAFG7m2kz2Fb84ejQLMq8ngtMjED1cmZpqe6EIQAcAAIAeVlsF/bO7A+wAAAAAAAAA0K1u3bqVvpqezvbuBaufAwAA0CLfzFzLvmil4POaWBE9AtFjFfR2E4AOAAAAPay2CvrCwkL667ffqgoAAAAAAAAAdK3Pzv5tcvaR3bsVNAAAAC3RV6k0/DXr+WyRBKADAABAj6utgv6pVdABAAAAAAAA6FKLi4vp0j9fzHbupyMjadu2bYoaAACAlhgcvLPy+c35+VW/Lt6Px569o20vGAHoAAAA0ONqq6BPX73a61kBAAAAAAAAQJfq6+tLt2/fznZu5GdWPwcAAKB1Djx3MFUqlXTm9OlUrVZX/N54P4yO7m176QhABwAAALJV0GsD7QAAAAAAAADQjb774fvsERO1AwAAQKtE8Pm5ic/TYrWanj/08zRzbWbZN0dQ+lsnTqQL5yezYPUyrIC+pe0pAAAAANouBtcNsAMAAAAAAAAAAAAANFcEnM/NzmaB5RFk/vyhQ1lQ+uDQYKpWF7P3am7Oz2fv5w0ODaXjY2MtKxkB6AAAAAAAAAAAAAAAAAAAAAWIAPP3xseXbThWPc+vhJ7uBquXgQB0AAAAAAAAAAAAAAAAAACAAjRj9fJYMb2VBKADAAAAAAAAAAAAAAAAAAAUYHjXcPboJA+oCAAAAAAAAAAAAAAAAAAAACQB6AAAAAAAAAAAAAAAdKs3f/WGsgUAAKA0Zq7NpLdOnEhPPv5EevjBh9JPfvTj9PyhQ+nC+clSFZIAdAAAAOA+MQBvEB4AAAAAAACATnbp4sX0h0uXlCEAAACl8N74+L1g85vz81mSqtXqvaD0Z556+t7r7SYAHQAAALjPjevXs0H4kx99JHMAAAAAAAAA6EgnP/wobd26VeEBAADQdmc+Pp09wpGXj6ZzExPZz4NDQ+n42FjaPjCQ5mZn0yvHfpkFpbebAHQAAADgPq++/lr20qefnE2Li4syCAAAAAAAAICOEqufLywspBdfOqzgAAAAaKtY1TxWPw9f/PHLLOB8eNdw9nul0pcFpMfrEYweQeixQnq7CUAHAAAA7rNv//7U39+fbt/y8l6vAAAUzklEQVS+nd7+9W9kEAAAAAAAAAAdJVY/D8/u36/gAAAAaKupy1PZ10egeQSZ11OpVNJvT/0ue+fK1FTbC0wAOgAAAFBXbRX0P1y6lP767bcyCQAAAAAAAICOUFv9/Nl9+9K2bdsUGgAAAG01Nzebff1jw7tWTcb2gYHsEaugt5sAdAAAAKCu2iro4Z+sgg4AAAAAAABAh6itfr7vH6x+DgAAQPstVqsdVwoC0AEAAIAV1VZB/9cbN9L01asyCgAAAAAAAIBSq61+/sgjj6QdO3cqLAAAANouVjVPDQSi35yfzx6DQ0NtT7MAdAAAAGBFS1dBf9sq6AAAAAAAAACUXG318xdeOqyoAAAAKIXBwTsB5TMz11ZMTrVaTe+Oj2c/7xkdbXuyBaADAAAAq6qtgm5meAAAAAAAAADKLsa2n923L5twHQAAAMpgz97RVKlU0oXzk2ludnZZiubnb6b3xsfTM089na5cnspWPz/w3MG2p3pL21MAAAAAlFoMyhuYBwAAAAAAAKATvPvB+8oJAACAUong8+NjY2lubjYLMF/q5vx8OvPx6eyV4V3D6eSpU9nn200AOgAAAAAAAAAAAAAA/3979/8a9Z3nAfy94q/J/AEZs3r1l5bM7XEHq7cTuF8aF5UuPZNjE1m4VqFGumst1QakLNR6QtRS8a7ULhiVDSZwSTnuMNIZ4VhIiu4ve5AQ74dCyyT5rb+M+bns8X7rZKvbY01MPvPt8YDpp0lmPvOZ13t+aef9nCcAAACwRR61mj/ZbB5D6TUxfP50OL2eBNABAAAAAAAAAAAAAAAAAAAydOz4cMOOe1sDXAMAAAAAAAAAAAAAAAAAAAANQAAdAAAAAAAAAAAAAAAAAACAZLsxAAAAAAAAAAAAAAAAAAAAbL7JWxPhzszt5z7PzfHxTbmeZyGADgAAAAAAAAAAAABAU5qemgojp06HQ/394cKHlywiAAAADadarYa52bmmWhgBdAAAAGDddu/cFUYvXQz9AwOGBwAAAAAAAEDdlD8vpae+f++eRQAAAKAh9RQK4fTISFMtjgA6AAAAsG4dHR3hykeXBdABAAAAAAAAqJvl5eVwt1xOT3/i7ZMWAgAAgIZU7C2mWzPZ5q0EAAAArNfrR4+ElZWVMD01ZXYAAAAAAAAA1EW59Kj9vKuryxeoAwAAwCYSQAcAAADW7dDjD+5jCzoAAAAAAAAA1MONa2PpWbWfAwAAwOYSQAcAAADWLZ/Ph0P9/VrQAQAAAAAAAKiLB4uL6TNr7ecAAAA0g4X5+fDpJ1e/90rj3+Zm59KxUQigAwAAABvS/09a0AEAAAAAAACoj+vazwEAAGgiF0dH0+3pEPp7Z86EV1/5WfjnX/xi7VitVuv+wgTQAQAAgA3Zs3dvePHFF7WgAwAAAAAAAJC5cqmk/RwAAICmENvN421Hd3c4dnx47ZInb02kWy6XC8XeYjrG+8Xf1ZsAOgAAALBhrx09kh6qBR0AAAAAAACALK2urmo/BwAAoCkszM+nyzw2PPzE5U5OPAqaX/n443BzfDzcHP/tE7+vp+3eWgAAAMBG1b5JXgAdAAAAAAAAgCx9+fVX5g0AAEBT+GJuNl1mbECvWapUUjC91n4e9RQK6ef4t3rTgA4AAAA8lxhC/93j/ykCAAAAAAAAAAAAAMCf6yn0rP1ubnYuHfcfPNCQkxJABwAAAAAAAAAAAAAAAAAA2AK15vMvHofOozszt9Oxp6ew9rvYfF6tVp9oSq+X7d4IAAAAAAAAAAAAAAAAAAAAm+9RyHwifHr1avq5UqmkBvRcLvdEA/qF0dF0HBwaqvsqCKADAAAAAAAAAAAAAAAAAABsgcHDQ2FyYiIszM+HX7355toTnB4ZSSH0mqXKUvo53r/eBNABAAAAAAAAAAAAAAAAAAC2yM3x34bJWxPhi7nZ0JnLhQMHDj7Rfh4e3+dhtfpEKL1eBNABAAAAAAAAAAAAAGhY01NTYeTU6XCovz9c+PCShQIAAKDpxFD5sePD6fb/ifdphPB5tK0BrgEAAABoIe++cyrs3rkrbQAAAAAAAAAAgOdV/ryUzlAulcwSAAAAMiCADgAAAGyq+/fupdPVNgAAAAAAAAAAwEYtLy+Hu+VyenTfvn3mCAAAABkQQAcAAAA21Ym3T6bTxQ0AcSMAAAAAAAAAAGzUd1vPXz96xBwBAAAgAwLoAAAAwKbqHxgIXV1d6ZTf3QgAAAAAAAAAAOt149pYekT8HPrFl14yPwAAAMiAADoAAACw6Wot6LWNAAAAAAAAAACwXg8WF8PKykp61GvazwEAACAzAugAAADApqu1oMeNAHFDAAAAAAAAAACs1/XvfOl537595gcAAAAZEUAHAAAAtkStBf26FnQAAAAAAAAANqBcKqUHvdzXF/L5vBECAABARgTQAQAAgC1Ra0GvbQgAAAAAAAAAgPVYXV1N9+77qfZzAAAAyNJ20wYAAAC2SmxBHzl12nwBAAAAAAAAWLcvv/7K0AAAAKAONKADAAAAWya2oNsQAAAAAAAAAAAAAADQPDSgAwAAAAAAAAAAAAAAAAAAbIGlSiVUKksbPnEu1xl6CoVMl0YAHQAAAAAAAAAAAAAAAAAAYAvM3J4JF0dHN3ziYm8x3Bwfz3RptmX6bAAAAAAAAAAAAAAAAAAAADQsDegAAAAAAAAAAAAAAAAAAABb4Njx4XRrJhrQAQAAAAAAAAAAAABoCO++c8pCAAAAQJ0JoAMAAACZ2r1zV5iemjJ0AAAAAAAAAJ5w5fLlUC6VDAUAAADqTAAdAAAAyFRHR0e48tFlQwcAAAAAAABgzcOHD8P1a2Ohb98+QwEAAIA6E0AHAAAAMhU3C6ysrGhBBwAAAAAAAGDNuffPhtXV1fD60SOGAgAAAHW23QIAAAAAWYqbBT6bnk4t6P0DA2YPAAAAAAAA0OYeLC6mz5G7urrCiy+91O7jAAAAoMUsVSqhUlna8IvK5TpDT6GQ6VAE0AEAAIBMxc0CcdNArQVdCB0AAAAAAACgvX3w/tn0+l/Tfg4AAEALmrk9Ey6Ojm74hRV7i+Hm+HimgxFABwAAADIXNw38y9kPtKADAAAAAAAAtLlyqRR+f/9+GkLfvn3tPg4AAABaUC6XSyHy9ahWH4aF+fm6DUMAHQAAAMhc3DQQA+ha0AEAAAAAAADa27nH7ecv9/WFfD7f7uMAAACgBQ0eHkq3ZzV5a2KtMT2G1/cfOJj5ULZ5IwIAAABZi5sG4uaBKLagAwAAAAAAANCe9uzdm15330+1nwMAANDe5mbnwquv/Cy8d+ZMqFarYf/BA+E//us/1xVe3ywa0AEAAIC6iJsH7pbLa5sJAAAAAAAAAGg/Fz68lG4AAADQrmLY/DdXr4ZPP7maJrCjuzucO38+FHuLdZuIADoAAABQF/0DA+kGAAAAAAAAAAAAANCOJm9NhIujoymEHp0eGUmN57lcrq7TEEAHAAAAAAAAAAAAAAAAAADIyFKlEt47cybMzc6lJ4xt5zF83lMoNMQSCKADAAAAAAAAAAAAAAAAAABk4NNPrqbW8yg2nddazxuJADoAAAAAAAAAAAAAAAAAAMAWim3nsfU8tp9HMXQew+cxhN5oBNABAAAAAAAAAAAAAAAAAAC2QLVaTcHzO7dn0smLvcXwxvDxdGxUAugAAAAAAAAAAAAAAGTm3XdOhT1/vzf0DwwYOgAAAC1v8tbEWvh8R3d3+EmxNyzMz6fbs4gN6bEtPUsC6AAAAEDD+Idibzjx9kmbDAAAAAAAAABa1PTUVPhsejrcv3fPZ8MAAAC0naVKJVwcHV3Xy45N6QLoAAAAQFsbOXU6vXwbDQAAAAAAAABaT/nzklUFAACgrcQG8xgi36ieQiHzcQmgAwAAAA0jtp/HAPqVjy4LoAMAAAAAAAC0mOXl5XC3XE4vKn4+DAAAAO0gtpdn3WD+vLZ5ZwIAAACNIobOu7q6wsrKSrh/7551AQAAAAAAAGgh5dKj9vMf79njS8kBAACggQmgAwAAAA2l9i3316+NWRgAAAAAAACAFnLj8efAb2k/BwAAgIa23fIAAAAAjSR+y/2Vjy6Hu+VyWF5eDvl83voAAAAAAAAANLkHi4thZWUlHOrvD3v27rWcAAAAtK1qtRru3J4JCwvzYalSWRtDZy4XenoKYfDwUMjlcnUdjwA6AAAA0HBiC/rIqdPhxthYeO/Xv7ZAAAAAAAAAAE3u+rWx0NHRkT4PBgAAgHb16SdXw2+uXk0h9O8Tg+nx728MD4djx4frNiUBdAAAAKDh1FrQp/99Kpw4eTJ0dnZaJAAAAAAAAIAmVi6VwutHj4R8Pm8ZAQAAaEvvnTkTJm9NpJceG85/0ltMjec1S0uVFECP4fSLo6Phi7nZcHN8vC6jEkAHAAAAGlKtBV34HAAAAAAAAKD59e3bF147csRKAgAA0JZi83ktfH56ZCQMHh5KIfSnnTt/fq0lfW52LgXR4/2zts3bFAAAAGhEsQX9y6+/sjYAAAAAAAAALeDCh5d8ATkAAABtKTaax0B5eBw+P3Z8+HvD5zXx71c+/jj9FMPoC/PzmY9NAB0AAAAAAAAAAAAAAAAAAGAL3Lk9k0LoO7q7U7j8WRR7i6klPZqcmMh8WQTQAQAAAAAAAAAAAAAAAAAAtsDSUiWddHBoaF0n33/gYDouzC9kviwC6AAAAAAAAAAAAAAAAAAAAFtgYX4+nbSnUFjXyXsKPelYe3yWBNABAAAAAAAAAAAAAAAAAABIBNABAAAAAAAAAAAAAAAAAAC2QK35fL1N5gvzC+lY7C1mviwC6AAAAAAAAAAAAAAAbJrpqamwe+eu8O47pwwVAACAtrdjR3cawRdzs+saxZ2Z2+lYC7BnSQAdAAAAaApxY0LcoBA3KgAAAAAAAADQuMqfl9K13b93zyoBAADQ9vYfPBByuVyYm50Ld27PPNM4Ylv65K2J9O+DQ0OZj1AAHQAAAGgKtY0JVz66bMEAAAAAAAAAGtTy8nK4Wy6nizvx9knLBAAAQNuL4fM3hofTGC6Mjj7TOH715i/T8djx4bCjuzvzEQqgAwAAAE2htjFhZWVFCzoAAAAAAABAgyqXHrWfd3V1hf6BAcsEAAAAj4Pkxd5iOPY4iP6X/OvH/xYGDw+F0yMjdRmfADoAAADQFOLGhB/v2ZMuVQs6AAAAAAAAQGO6cW0sXZf2cwAAAHjSzfHxFCp/Fj2FQjh3/nzdJiiADgAAADSNt7SgAwAAAAAAADSsB4uL6fNc7ecAAADQ3ATQAQAAgKaxZ+/ecKi/P12uFnQAAAAAAACAxnJd+zkAAAC0BAF0AAAAoKnEjQodHR1a0AEAAAAAAAAaTLlU0n4OAAAAT7lzeybs3rkr/N2P/iYszM83xXgE0AEAAICmks/nw+tHj6RL1oIOAAAAAAAA0DhWV1e1nwMAAMBTJidupV9Uq9UwNzvXFOPZ3gDXAAAAALAurx05EpaXlg0NAAAAAAAAoIF8+fVXlgMAAACeMjh0eC143lMoNMV4BNABAACAptPZ2RkufHjJwgEAAAAAAAAAAAAADW3/wQPhvwu/C525XMjlck2xWALoAAAAAAAAAAAAAAAAAAAAW2RHd3dTjXZbA1wDAAAAAAAAAAAAAAAAAAAADUAAHQAAAAAAAAAAAAAAAAAAgEQAHQAAAAAAAAAAAACADXn48KHBAQAAQIsRQAcAAABawoPFRQsJAAAAAAAAkKFzZ8+Gv/3rHwmhAwAAQIsRQAcAAACaXrlUCq8cOBjefeeUxQQAAAAAAADIwPLycrgxdj09kQA6AAAAtBYBdAAAAKDpdXZ2ppfw2fR02uQAAAAAAAAAwNa6MTaWzv9yX1/I5/OmDQAAAC1ku8XcuMM/H2zWSwcAAICW09HZGVYfPgwDr/5j+KsXXrDAAAAAPLcP3j+79qVnAAAAwJ98++234X/+8If0c/yScPuqAQAAoLUIoD+H39+/37TXDgAAAK3qm2++STcAAAB4Xv/74IEZAgAAwF/gv58BAACg9WyzpgAAAAAAAAAAAAAAAAAAAAQBdAAAAAAAAAAAAAAAAAAAAGq2m8Sz6crnw4mTbzXDpQIAAAAAAAAAAAAAAAAAAN8Rs8I8mx+88MOdf/zy66+MCwAAAAAAAAAAAAAAAAAAoI3t3rkrbPMGAAAAAAAAAAAAAAAAAAAAIBJABwAAAAAAAAAAAAAAAAAAIBFABwAAAAAAAAAAAAAAAAAAIBFABwAAAAAAAAAAAAAAAAAAIBFABwAAAAAAAAAAAAAAAAAAIBFABwAAAAAAAAAAAAAAAAAAIBFABwAAAAAAAAAAAAAAAAAAIBFABwAAAAAAAAAAAAAAAAAAIBFABwAAAAAAAAAAAAAAAAAAIBFABwAAAAAAAAAAAAAAAAAAIBFABwAAAAAAAAAAAAAAAAAAIBFABwAAAAAAAAAAAAAAAAAAIBFABwAAAAAAAAAAAAAAAAAAIBFABwAAAAAAAAAAAAAAAAAAIBFABwAAAAAAAAAAAAAAAAAAIBFABwAAAAAAAAAAAAAAAAAAIBFABwAAAAAAAAAAAAAAAAAAIBFABwAAAAAAAAAAAAAAAAAAIBFABwAAAAAAAAAAAAAAAAAAIBFABwAAAAAAAAAAAAAAAAAAIBFABwAAAAAAAAAAAAAAAAAAIBFABwAAAAAAAAAAAAAAAAAAIBFABwAAAAAAAAAAAAAAAAAAIBFABwAAAAAAAAAAAAAAAAAAIBFABwAAAAAAAAAAAAAAAAAAIBFABwAAAAAAAAAAAAAAAAAAIBFABwAAAAAAAAAAAAAAAAAAIBFABwAAAAAAAAAAAAAAAAAAIBFABwAAAAAAAAAAAAAAAAAAIBFABwAAAAAAAAAAAAAAAAAAIBFABwAAAAAAAAAAAAAAAAAAIBFABwAAAAAAAAAAAAAAAAAAIBFABwAAAAAAAAAAAAAAAAAAIBFABwAAAAAAAAAAAAAAAAAAIBFABwAAAAAAAAAAAAAAAAAAIBFABwAAAAAAAAAAAAAAAAAAINke/3H454OmAQAAAAAAAAAAAAAAAAAA0OZ+8MIPd/6x3YcAAAAAAAAAAAAAAAAAAADQ9kII/wetSqWY+m+++gAAAABJRU5ErkJggg==;clipPath=inset(0.3% 0% 14.5% 0.33%);" vertex="1" parent="1">
          <mxGeometry x="160" y="50" width="1386.05" height="667.5290969899665" as="geometry" />
        </mxCell>
        <mxCell id="bIWq4vjU1cbC7Kvbh_jD-2" value="&lt;div style=&quot;text-align: left;&quot;&gt;&lt;span style=&quot;background-color: initial; color: rgb(5, 5, 5); font-family: roboto; font-size: 26px;&quot;&gt;Programmers either&lt;/span&gt;&lt;/div&gt;&lt;div style=&quot;text-align: left;&quot;&gt;&lt;span style=&quot;background-color: initial; color: rgb(5, 5, 5); font-family: roboto; font-size: 26px;&quot;&gt;of&amp;nbsp;&lt;/span&gt;&lt;span style=&quot;background-color: initial; color: rgb(5, 5, 5); font-family: roboto; font-size: 26px;&quot;&gt;big Tech&amp;nbsp;&lt;/span&gt;&lt;/div&gt;&lt;div style=&quot;text-align: left;&quot;&gt;&lt;span style=&quot;background-color: initial; color: rgb(5, 5, 5); font-family: roboto; font-size: 26px;&quot;&gt;companies or&lt;/span&gt;&lt;/div&gt;&lt;div style=&quot;text-align: left;&quot;&gt;&lt;span style=&quot;background-color: initial; color: rgb(5, 5, 5); font-family: roboto; font-size: 26px;&quot;&gt;Tech freelancers&lt;/span&gt;&lt;/div&gt;&lt;div style=&quot;text-align: left;&quot;&gt;&lt;span style=&quot;background-color: initial; color: rgb(5, 5, 5); font-family: roboto; font-size: 26px;&quot;&gt;&lt;br&gt;&lt;/span&gt;&lt;/div&gt;&lt;span style=&quot;background-color: initial; color: rgb(5, 5, 5); font-family: roboto; font-size: 26px;&quot;&gt;&lt;div style=&quot;text-align: left;&quot;&gt;&lt;span style=&quot;background-color: initial;&quot;&gt;Developers&lt;/span&gt;&lt;/div&gt;&lt;div style=&quot;text-align: left;&quot;&gt;&lt;br&gt;&lt;/div&gt;&lt;div style=&quot;text-align: left;&quot;&gt;Software Engineers&lt;/div&gt;&lt;div style=&quot;text-align: left;&quot;&gt;&lt;br&gt;&lt;/div&gt;&lt;div style=&quot;text-align: left;&quot;&gt;Hardware Engineers&lt;/div&gt;&lt;/span&gt;" style="text;html=1;align=center;verticalAlign=middle;resizable=0;points=[];autosize=1;strokeColor=none;fillColor=none;" vertex="1" parent="1">
          <mxGeometry x="1275" y="140" width="240" height="330" as="geometry" />
        </mxCell>
        <mxCell id="bIWq4vjU1cbC7Kvbh_jD-7" value="&lt;div style=&quot;&quot;&gt;&lt;font face=&quot;roboto&quot; color=&quot;#050505&quot;&gt;&lt;span style=&quot;font-size: 26px;&quot;&gt;Junior/Senior&lt;/span&gt;&lt;/font&gt;&lt;/div&gt;&lt;div style=&quot;&quot;&gt;&lt;font face=&quot;roboto&quot; color=&quot;#050505&quot;&gt;&lt;span style=&quot;font-size: 26px;&quot;&gt;Programmers and&lt;/span&gt;&lt;/font&gt;&lt;/div&gt;&lt;div style=&quot;&quot;&gt;&lt;font face=&quot;roboto&quot; color=&quot;#050505&quot;&gt;&lt;span style=&quot;font-size: 26px;&quot;&gt;Developers&lt;/span&gt;&lt;/font&gt;&lt;/div&gt;&lt;div style=&quot;&quot;&gt;&lt;font face=&quot;roboto&quot; color=&quot;#050505&quot;&gt;&lt;span style=&quot;font-size: 26px;&quot;&gt;&lt;br&gt;&lt;/span&gt;&lt;/font&gt;&lt;/div&gt;&lt;div style=&quot;&quot;&gt;&lt;font face=&quot;roboto&quot; color=&quot;#050505&quot;&gt;&lt;span style=&quot;font-size: 26px;&quot;&gt;Data analysts&lt;/span&gt;&lt;/font&gt;&lt;/div&gt;&lt;div style=&quot;&quot;&gt;&lt;font face=&quot;roboto&quot; color=&quot;#050505&quot;&gt;&lt;span style=&quot;font-size: 26px;&quot;&gt;&lt;br&gt;&lt;/span&gt;&lt;/font&gt;&lt;/div&gt;&lt;div style=&quot;&quot;&gt;&lt;font face=&quot;roboto&quot; color=&quot;#050505&quot;&gt;&lt;span style=&quot;font-size: 26px;&quot;&gt;Machine Learning&amp;nbsp;&lt;/span&gt;&lt;/font&gt;&lt;/div&gt;&lt;div style=&quot;&quot;&gt;&lt;font face=&quot;roboto&quot; color=&quot;#050505&quot;&gt;&lt;span style=&quot;font-size: 26px;&quot;&gt;Engineers&lt;/span&gt;&lt;/font&gt;&lt;/div&gt;&lt;div style=&quot;&quot;&gt;&lt;font face=&quot;roboto&quot; color=&quot;#050505&quot;&gt;&lt;span style=&quot;font-size: 26px;&quot;&gt;&lt;br&gt;&lt;/span&gt;&lt;/font&gt;&lt;/div&gt;&lt;div style=&quot;&quot;&gt;&lt;font face=&quot;roboto&quot; color=&quot;#050505&quot;&gt;&lt;span style=&quot;font-size: 26px;&quot;&gt;Software Engineers&lt;/span&gt;&lt;/font&gt;&lt;/div&gt;&lt;div style=&quot;&quot;&gt;&lt;font face=&quot;roboto&quot; color=&quot;#050505&quot;&gt;&lt;span style=&quot;font-size: 26px;&quot;&gt;&lt;br&gt;&lt;/span&gt;&lt;/font&gt;&lt;/div&gt;&lt;div style=&quot;&quot;&gt;&lt;font face=&quot;roboto&quot; color=&quot;#050505&quot;&gt;&lt;span style=&quot;font-size: 26px;&quot;&gt;Hardware company&lt;/span&gt;&lt;/font&gt;&lt;/div&gt;&lt;div style=&quot;&quot;&gt;&lt;font face=&quot;roboto&quot; color=&quot;#050505&quot;&gt;&lt;span style=&quot;font-size: 26px;&quot;&gt;to cover the required&lt;/span&gt;&lt;/font&gt;&lt;/div&gt;&lt;div style=&quot;&quot;&gt;&lt;font face=&quot;roboto&quot; color=&quot;#050505&quot;&gt;&lt;span style=&quot;font-size: 26px;&quot;&gt;technological&lt;/span&gt;&lt;/font&gt;&lt;/div&gt;&lt;div style=&quot;&quot;&gt;&lt;font face=&quot;roboto&quot; color=&quot;#050505&quot;&gt;&lt;span style=&quot;font-size: 26px;&quot;&gt;equipment&lt;/span&gt;&lt;/font&gt;&lt;/div&gt;" style="text;html=1;align=left;verticalAlign=middle;resizable=0;points=[];autosize=1;strokeColor=none;fillColor=none;" vertex="1" parent="1">
          <mxGeometry x="200" y="130" width="240" height="480" as="geometry" />
        </mxCell>
        <mxCell id="bIWq4vjU1cbC7Kvbh_jD-8" value="&lt;div style=&quot;&quot;&gt;&lt;font face=&quot;roboto&quot; color=&quot;#050505&quot;&gt;&lt;span style=&quot;font-size: 26px;&quot;&gt;Code correction&lt;/span&gt;&lt;/font&gt;&lt;/div&gt;&lt;div style=&quot;&quot;&gt;&lt;font face=&quot;roboto&quot; color=&quot;#050505&quot;&gt;&lt;span style=&quot;font-size: 26px;&quot;&gt;&lt;br&gt;&lt;/span&gt;&lt;/font&gt;&lt;/div&gt;&lt;div style=&quot;&quot;&gt;&lt;font face=&quot;roboto&quot; color=&quot;#050505&quot;&gt;&lt;span style=&quot;font-size: 26px;&quot;&gt;Code completion&lt;/span&gt;&lt;/font&gt;&lt;/div&gt;&lt;div style=&quot;&quot;&gt;&lt;font face=&quot;roboto&quot; color=&quot;#050505&quot;&gt;&lt;span style=&quot;font-size: 26px;&quot;&gt;&lt;br&gt;&lt;/span&gt;&lt;/font&gt;&lt;/div&gt;&lt;div style=&quot;&quot;&gt;&lt;font face=&quot;roboto&quot; color=&quot;#050505&quot;&gt;&lt;span style=&quot;font-size: 26px;&quot;&gt;Code suggestion&lt;/span&gt;&lt;/font&gt;&lt;/div&gt;&lt;div style=&quot;&quot;&gt;&lt;br&gt;&lt;/div&gt;&lt;div style=&quot;&quot;&gt;&lt;br&gt;&lt;/div&gt;" style="text;html=1;align=left;verticalAlign=middle;resizable=0;points=[];autosize=1;strokeColor=none;fillColor=none;" vertex="1" parent="1">
          <mxGeometry x="440" y="140" width="200" height="200" as="geometry" />
        </mxCell>
        <mxCell id="bIWq4vjU1cbC7Kvbh_jD-9" value="&lt;div style=&quot;&quot;&gt;&lt;font face=&quot;roboto&quot; color=&quot;#050505&quot;&gt;&lt;span style=&quot;font-size: 26px;&quot;&gt;User friendly interface&lt;/span&gt;&lt;/font&gt;&lt;/div&gt;&lt;div style=&quot;&quot;&gt;&lt;font face=&quot;roboto&quot; color=&quot;#050505&quot;&gt;&lt;span style=&quot;font-size: 26px;&quot;&gt;&lt;br&gt;&lt;/span&gt;&lt;/font&gt;&lt;/div&gt;&lt;div style=&quot;&quot;&gt;&lt;font face=&quot;roboto&quot; color=&quot;#050505&quot;&gt;&lt;span style=&quot;font-size: 26px;&quot;&gt;Advanced algorithm&lt;/span&gt;&lt;/font&gt;&lt;/div&gt;&lt;div style=&quot;&quot;&gt;&lt;font face=&quot;roboto&quot; color=&quot;#050505&quot;&gt;&lt;span style=&quot;font-size: 26px;&quot;&gt;&lt;br&gt;&lt;/span&gt;&lt;/font&gt;&lt;/div&gt;&lt;div style=&quot;&quot;&gt;&lt;font face=&quot;roboto&quot; color=&quot;#050505&quot;&gt;&lt;span style=&quot;font-size: 26px;&quot;&gt;Wide coverage of IDE&#39;s&lt;/span&gt;&lt;/font&gt;&lt;/div&gt;&lt;div style=&quot;&quot;&gt;&lt;font face=&quot;roboto&quot; color=&quot;#050505&quot;&gt;&lt;span style=&quot;font-size: 26px;&quot;&gt;&lt;br&gt;&lt;/span&gt;&lt;/font&gt;&lt;/div&gt;&lt;div style=&quot;&quot;&gt;&lt;font face=&quot;roboto&quot; color=&quot;#050505&quot;&gt;&lt;span style=&quot;font-size: 26px;&quot;&gt;Wide coverage of programming&amp;nbsp;&lt;/span&gt;&lt;/font&gt;&lt;/div&gt;&lt;div style=&quot;&quot;&gt;&lt;font face=&quot;roboto&quot; color=&quot;#050505&quot;&gt;&lt;span style=&quot;font-size: 26px;&quot;&gt;languages&lt;/span&gt;&lt;/font&gt;&lt;/div&gt;&lt;div style=&quot;&quot;&gt;&lt;font face=&quot;roboto&quot; color=&quot;#050505&quot;&gt;&lt;span style=&quot;font-size: 26px;&quot;&gt;&lt;br&gt;&lt;/span&gt;&lt;/font&gt;&lt;/div&gt;&lt;div style=&quot;&quot;&gt;&lt;font face=&quot;roboto&quot; color=&quot;#050505&quot;&gt;&lt;span style=&quot;font-size: 26px;&quot;&gt;Active customer support&lt;/span&gt;&lt;/font&gt;&lt;/div&gt;&lt;div style=&quot;&quot;&gt;&lt;font face=&quot;roboto&quot; color=&quot;#050505&quot;&gt;&lt;span style=&quot;font-size: 26px;&quot;&gt;&lt;br&gt;&lt;/span&gt;&lt;/font&gt;&lt;/div&gt;&lt;div style=&quot;&quot;&gt;&lt;font face=&quot;roboto&quot; color=&quot;#050505&quot;&gt;&lt;span style=&quot;font-size: 26px;&quot;&gt;Active programming community&lt;/span&gt;&lt;/font&gt;&lt;/div&gt;&lt;div style=&quot;&quot;&gt;&lt;br&gt;&lt;/div&gt;&lt;div style=&quot;&quot;&gt;&lt;br&gt;&lt;/div&gt;" style="text;html=1;align=left;verticalAlign=middle;resizable=0;points=[];autosize=1;strokeColor=none;fillColor=none;" vertex="1" parent="1">
          <mxGeometry x="680" y="140" width="370" height="420" as="geometry" />
        </mxCell>
        <mxCell id="bIWq4vjU1cbC7Kvbh_jD-10" value="&lt;div style=&quot;&quot;&gt;&lt;span style=&quot;font-size: 26px; color: rgb(5, 5, 5); font-family: roboto; background-color: initial;&quot;&gt;Advertisment can be&amp;nbsp;&lt;/span&gt;&lt;/div&gt;&lt;div style=&quot;&quot;&gt;&lt;span style=&quot;font-size: 26px; color: rgb(5, 5, 5); font-family: roboto; background-color: initial;&quot;&gt;done in programming&lt;/span&gt;&lt;/div&gt;&lt;div style=&quot;&quot;&gt;&lt;span style=&quot;font-size: 26px; color: rgb(5, 5, 5); font-family: roboto; background-color: initial;&quot;&gt;communities,&lt;/span&gt;&lt;/div&gt;&lt;div style=&quot;&quot;&gt;&lt;span style=&quot;font-size: 26px; color: rgb(5, 5, 5); font-family: roboto; background-color: initial;&quot;&gt;GoogleAds,&lt;/span&gt;&lt;/div&gt;&lt;div style=&quot;&quot;&gt;&lt;span style=&quot;font-size: 26px; color: rgb(5, 5, 5); font-family: roboto; background-color: initial;&quot;&gt;Youtube etc.&lt;/span&gt;&lt;/div&gt;" style="text;html=1;align=left;verticalAlign=middle;resizable=0;points=[];autosize=1;strokeColor=none;fillColor=none;" vertex="1" parent="1">
          <mxGeometry x="1040" y="400" width="250" height="170" as="geometry" />
        </mxCell>
        <mxCell id="bIWq4vjU1cbC7Kvbh_jD-11" value="&lt;div style=&quot;&quot;&gt;&lt;font face=&quot;roboto&quot; color=&quot;#050505&quot;&gt;&lt;span style=&quot;font-size: 26px;&quot;&gt;Developers&lt;/span&gt;&lt;/font&gt;&lt;/div&gt;&lt;div style=&quot;&quot;&gt;&lt;font face=&quot;roboto&quot; color=&quot;#050505&quot;&gt;&lt;span style=&quot;font-size: 26px;&quot;&gt;&lt;br&gt;&lt;/span&gt;&lt;/font&gt;&lt;/div&gt;&lt;div style=&quot;&quot;&gt;&lt;font face=&quot;roboto&quot; color=&quot;#050505&quot;&gt;&lt;span style=&quot;font-size: 26px;&quot;&gt;Programmers&lt;/span&gt;&lt;/font&gt;&lt;/div&gt;&lt;div style=&quot;&quot;&gt;&lt;font face=&quot;roboto&quot; color=&quot;#050505&quot;&gt;&lt;span style=&quot;font-size: 26px;&quot;&gt;&lt;br&gt;&lt;/span&gt;&lt;/font&gt;&lt;/div&gt;&lt;div style=&quot;&quot;&gt;&lt;font face=&quot;roboto&quot; color=&quot;#050505&quot;&gt;&lt;span style=&quot;font-size: 26px;&quot;&gt;Servers&lt;/span&gt;&lt;/font&gt;&lt;/div&gt;&lt;div style=&quot;&quot;&gt;&lt;font face=&quot;roboto&quot; color=&quot;#050505&quot;&gt;&lt;span style=&quot;font-size: 26px;&quot;&gt;&lt;br&gt;&lt;/span&gt;&lt;/font&gt;&lt;/div&gt;&lt;div style=&quot;&quot;&gt;&lt;font face=&quot;roboto&quot; color=&quot;#050505&quot;&gt;&lt;span style=&quot;font-size: 26px;&quot;&gt;Cloud services&lt;/span&gt;&lt;/font&gt;&lt;/div&gt;&lt;div style=&quot;&quot;&gt;&lt;br&gt;&lt;/div&gt;&lt;div style=&quot;&quot;&gt;&lt;br&gt;&lt;/div&gt;" style="text;html=1;align=left;verticalAlign=middle;resizable=0;points=[];autosize=1;strokeColor=none;fillColor=none;" vertex="1" parent="1">
          <mxGeometry x="440" y="390" width="180" height="260" as="geometry" />
        </mxCell>
        <mxCell id="bIWq4vjU1cbC7Kvbh_jD-12" value="&lt;div style=&quot;&quot;&gt;&lt;font face=&quot;roboto&quot; color=&quot;#050505&quot;&gt;&lt;span style=&quot;font-size: 26px;&quot;&gt;Monthly subscription&lt;/span&gt;&lt;/font&gt;&lt;/div&gt;&lt;div style=&quot;&quot;&gt;&lt;br&gt;&lt;/div&gt;&lt;div style=&quot;&quot;&gt;&lt;font face=&quot;roboto&quot; color=&quot;#050505&quot;&gt;&lt;span style=&quot;font-size: 26px;&quot;&gt;Pay-to-use: certain&amp;nbsp;&lt;/span&gt;&lt;/font&gt;&lt;/div&gt;&lt;div style=&quot;&quot;&gt;&lt;font face=&quot;roboto&quot; color=&quot;#050505&quot;&gt;&lt;span style=&quot;font-size: 26px;&quot;&gt;amount of € per line&lt;/span&gt;&lt;/font&gt;&lt;/div&gt;&lt;div style=&quot;&quot;&gt;&lt;font face=&quot;roboto&quot; color=&quot;#050505&quot;&gt;&lt;span style=&quot;font-size: 26px;&quot;&gt;of code&lt;/span&gt;&lt;/font&gt;&lt;/div&gt;&lt;div style=&quot;&quot;&gt;&lt;font face=&quot;roboto&quot; color=&quot;#050505&quot;&gt;&lt;span style=&quot;font-size: 26px;&quot;&gt;Pay-as-you-use: user&lt;/span&gt;&lt;/font&gt;&lt;/div&gt;&lt;div style=&quot;&quot;&gt;&lt;font face=&quot;roboto&quot; color=&quot;#050505&quot;&gt;&lt;span style=&quot;font-size: 26px;&quot;&gt;inserts credits that are&lt;/span&gt;&lt;/font&gt;&lt;/div&gt;&lt;div style=&quot;&quot;&gt;&lt;font face=&quot;roboto&quot; color=&quot;#050505&quot;&gt;&lt;span style=&quot;font-size: 26px;&quot;&gt;consumed gradually&lt;/span&gt;&lt;/font&gt;&lt;/div&gt;&lt;div style=&quot;&quot;&gt;&lt;font face=&quot;roboto&quot; color=&quot;#050505&quot;&gt;&lt;span style=&quot;font-size: 26px;&quot;&gt;&lt;br&gt;&lt;/span&gt;&lt;/font&gt;&lt;/div&gt;" style="text;html=1;align=left;verticalAlign=middle;resizable=0;points=[];autosize=1;strokeColor=none;fillColor=none;" vertex="1" parent="1">
          <mxGeometry x="1040" y="130" width="250" height="280" as="geometry" />
        </mxCell>
        <mxCell id="bIWq4vjU1cbC7Kvbh_jD-13" value="&lt;div style=&quot;&quot;&gt;&lt;font face=&quot;roboto&quot; color=&quot;#050505&quot;&gt;&lt;span style=&quot;font-size: 26px;&quot;&gt;Employee&#39;s wage, running servers, paying for cloud&amp;nbsp;&lt;/span&gt;&lt;/font&gt;&lt;span style=&quot;font-size: 26px; color: rgb(5, 5, 5); font-family: roboto; background-color: initial;&quot;&gt;services&lt;/span&gt;&lt;/div&gt;" style="text;html=1;align=left;verticalAlign=middle;resizable=0;points=[];autosize=1;strokeColor=none;fillColor=none;" vertex="1" parent="1">
          <mxGeometry x="195" y="660" width="650" height="40" as="geometry" />
        </mxCell>
        <mxCell id="bIWq4vjU1cbC7Kvbh_jD-14" value="&lt;div style=&quot;&quot;&gt;&lt;font face=&quot;roboto&quot; color=&quot;#050505&quot;&gt;&lt;span style=&quot;font-size: 26px;&quot;&gt;Subscriptions, trials, pay-to-use model&lt;/span&gt;&lt;/font&gt;&lt;/div&gt;" style="text;html=1;align=left;verticalAlign=middle;resizable=0;points=[];autosize=1;strokeColor=none;fillColor=none;" vertex="1" parent="1">
          <mxGeometry x="860" y="660" width="420" height="40" as="geometry" />
        </mxCell>
        <mxCell id="bIWq4vjU1cbC7Kvbh_jD-15" value="&lt;div style=&quot;&quot;&gt;&lt;font face=&quot;roboto&quot; color=&quot;#050505&quot;&gt;&lt;span style=&quot;font-size: 26px;&quot;&gt;Code Pal - Improve all aspects of your coding projects&lt;/span&gt;&lt;/font&gt;&lt;/div&gt;&lt;div style=&quot;&quot;&gt;&lt;font face=&quot;roboto&quot; color=&quot;#050505&quot;&gt;&lt;span style=&quot;font-size: 26px;&quot;&gt;Κωνσταντίνος Μαυρογιαννάκης 9789 ΤΗΜΜΥ&lt;/span&gt;&lt;/font&gt;&lt;/div&gt;" style="text;html=1;align=left;verticalAlign=middle;resizable=0;points=[];autosize=1;strokeColor=none;fillColor=none;" vertex="1" parent="1">
          <mxGeometry x="680" y="40" width="590" height="80" as="geometry" />
        </mxCell>
      </root>
    </mxGraphModel>
  </diagram>
</mxfile>
